<?xml version="1.0" encoding="utf-8"?>
<!-- Generator: Adobe Illustrator 23.0.3, SVG Export Plug-In . SVG Version: 6.00 Build 0)  -->
<svg version="1.1" id="Capa_6" xmlns="http://www.w3.org/2000/svg" xmlns:xlink="http://www.w3.org/1999/xlink" x="0px" y="0px"
	 viewBox="0 0 1418 273" style="enable-background:new 0 0 1418 273;" xml:space="preserve">
<style type="text/css">
	.st0{fill:#F2F2F2;}
	.st1{fill:#F0F0F0;}
	.st2{fill:#F03A28;}
</style>
<path class="st0" d="M109.28,149.61H29.74V60.57H3.51V3.37h105.77c40.32,0,73.12,32.8,73.12,73.12
	C182.4,116.81,149.59,149.61,109.28,149.61 M47.38,131.98h61.9c30.59,0,55.48-24.89,55.48-55.48c0-30.59-24.89-55.48-55.48-55.48
	H21.14v21.92h26.24V131.98z"/>
<path class="st0" d="M69.21,254.73V86.02h73.12c40.32,0,73.12,30.16,73.12,67.24c0,37.08-32.8,67.24-73.12,67.24h-22.8L69.21,254.73
	z M86.84,103.66v117.75l27.25-18.54h28.23c30.59,0,55.48-22.25,55.48-49.6s-24.89-49.61-55.48-49.61H86.84z"/>
<g id="Logo_oficial">
	<polygon class="st1" points="652.21,239.26 652.21,24 691.57,24 792.74,175.61 792.74,24 832.1,24 832.1,239.26 792.74,239.26 
		691.57,87.96 691.57,239.26 	"/>
	<path class="st1" d="M871.68,239.26V24h73.49c25.21,0,45.97,4.46,62.27,13.37c16.3,8.92,28.39,21.43,36.29,37.53
		c7.89,16.09,11.84,35,11.84,56.73c0,21.73-3.95,40.64-11.84,56.74c-7.9,16.09-19.99,28.59-36.29,37.51
		c-16.3,8.92-37.06,13.38-62.27,13.38H871.68z M911.04,205.43h32.29c18.04,0,32.28-2.92,42.75-8.77
		c10.45-5.84,17.94-14.24,22.45-25.22c4.51-10.96,6.76-24.24,6.76-39.81c0-15.37-2.25-28.61-6.76-39.67
		c-4.51-11.07-12-19.57-22.45-25.53c-10.47-5.94-24.71-8.91-42.75-8.91h-32.29V205.43z"/>
	<path class="st1" d="M601.09,76.16c-8.62-15.87-20.62-28.43-35.68-37.33c-15.09-8.89-32.54-13.4-51.88-13.4
		c-24.06,0-44.12,6.35-59.64,18.86c-15.47,12.44-26.1,28.34-31.59,47.25l-1.12,3.86h39.27l0.74-1.93
		c4.02-10.28,10.5-18.55,19.27-24.57c8.78-6.01,19.91-9.06,33.07-9.06c10.08,0,19.75,2.43,28.73,7.23
		c8.94,4.79,16.49,12.03,22.45,21.53c5.5,8.79,8.84,19.94,9.92,33.14H417v3.02c0,3.6-0.07,6.91-0.2,9.85
		c-0.13,2.98-0.21,5.95-0.21,8.94c0,16.66,3.88,32.46,11.54,46.97c7.68,14.53,18.87,26.42,33.25,35.33
		c14.41,8.9,31.69,13.42,51.34,13.42c19.9,0,37.69-4.5,52.89-13.38c15.19-8.91,27.21-21.54,35.7-37.56
		c8.45-15.95,12.74-34.78,12.74-55.97C614.04,110.88,609.68,91.98,601.09,76.16 M574.06,153.76c-2.25,16.07-8.93,28.57-19.85,37.15
		c-11.79,9.25-25.48,13.94-40.68,13.94c-15.96,0-29.54-4.86-40.36-14.43c-10.09-8.92-15.86-21.26-17.17-36.67H574.06z"/>
	<rect x="1067.35" y="201.19" class="st2" width="37.66" height="37.66"/>
	<path class="st1" d="M1146.03,38.67c3.29,0,6.2,0.73,8.75,2.19c2.54,1.46,4.54,3.5,5.98,6.12c1.44,2.61,2.16,5.65,2.16,9.12
		c0,3.51-0.71,6.6-2.13,9.25c-1.42,2.66-3.4,4.73-5.95,6.22c-2.54,1.49-5.51,2.23-8.88,2.23c-3.29,0-6.15-0.73-8.58-2.2
		c-2.43-1.46-4.32-3.41-5.67-5.84s-2.03-5.11-2.03-8.04c0-0.45,0.01-0.93,0.03-1.45c0.02-0.52,0.06-1.09,0.1-1.72h26.08
		c-0.22-3.24-1.29-5.71-3.21-7.4c-1.91-1.69-4.13-2.53-6.66-2.53c-2.03,0-3.73,0.46-5.1,1.39c-1.37,0.92-2.4,2.17-3.08,3.75h-7.16
		c0.9-3.15,2.69-5.79,5.37-7.9C1138.75,39.72,1142.07,38.67,1146.03,38.67 M1146.03,67.92c2.39,0,4.51-0.71,6.35-2.13
		c1.85-1.42,2.97-3.55,3.38-6.39h-18.92c0.13,2.61,1.06,4.68,2.77,6.22C1141.33,67.16,1143.47,67.92,1146.03,67.92"/>
	<polygon class="st1" points="1178.4,72.99 1165.83,39.48 1173.33,39.48 1182.65,66.17 1191.98,39.48 1199.41,39.48 1186.91,72.99 	
		"/>
	<path class="st1" d="M1219.27,73.8c-3.2,0-6.07-0.73-8.61-2.2c-2.55-1.46-4.56-3.51-6.05-6.15c-1.49-2.63-2.23-5.71-2.23-9.22
		c0-3.51,0.75-6.59,2.26-9.22c1.51-2.63,3.55-4.68,6.11-6.15c2.57-1.46,5.43-2.19,8.58-2.19c3.2,0,6.07,0.73,8.62,2.19
		c2.54,1.47,4.57,3.51,6.08,6.15c1.51,2.64,2.26,5.71,2.26,9.22c0,3.51-0.75,6.59-2.26,9.22c-1.51,2.64-3.55,4.69-6.11,6.15
		C1225.35,73.07,1222.47,73.8,1219.27,73.8 M1219.27,67.65c1.71,0,3.3-0.43,4.76-1.28c1.46-0.86,2.64-2.13,3.55-3.82
		c0.9-1.69,1.35-3.79,1.35-6.32c0-2.52-0.44-4.63-1.32-6.32c-0.88-1.69-2.05-2.96-3.51-3.82c-1.47-0.85-3.05-1.28-4.76-1.28
		c-1.71,0-3.3,0.43-4.76,1.28c-1.47,0.86-2.65,2.13-3.55,3.82c-0.9,1.69-1.35,3.8-1.35,6.32c0,2.52,0.45,4.63,1.35,6.32
		c0.9,1.69,2.07,2.96,3.51,3.82C1215.98,67.22,1217.56,67.65,1219.27,67.65"/>
	<rect x="1244.07" y="24.34" class="st1" width="7.16" height="48.65"/>
	<polygon class="st1" points="1269.67,72.99 1257.11,39.48 1264.61,39.48 1273.93,66.17 1283.25,39.48 1290.68,39.48 1278.19,72.99 
			"/>
	<path class="st1" d="M1297.04,39.48h7.16v33.51h-7.16V39.48z M1304.41,26.11h-7.08v7.08h7.08V26.11z"/>
	<path class="st1" d="M1313.65,72.99V39.48h6.35l0.54,5.88c1.04-2.07,2.55-3.71,4.56-4.9c2-1.19,4.31-1.79,6.92-1.79
		c4.05,0,7.24,1.26,9.56,3.78c2.32,2.52,3.48,6.28,3.48,11.28v19.26h-7.1V54.48c0-6.49-2.66-9.73-7.97-9.73
		c-2.66,0-4.85,0.95-6.59,2.84c-1.74,1.89-2.6,4.59-2.6,8.11v17.3H1313.65z"/>
	<path class="st1" d="M1367.23,62.72c-1.76,0-3.38-0.2-4.86-0.61l-2.91,2.84c0.5,0.32,1.1,0.59,1.83,0.81
		c0.72,0.23,1.73,0.43,3.04,0.61c1.3,0.18,3.09,0.36,5.34,0.54c4.46,0.4,7.68,1.47,9.66,3.21c1.98,1.74,2.97,4.04,2.97,6.93
		c0,1.98-0.53,3.86-1.59,5.64c-1.06,1.78-2.7,3.22-4.93,4.32c-2.23,1.1-5.08,1.66-8.55,1.66c-4.68,0-8.48-0.89-11.38-2.67
		c-2.91-1.78-4.36-4.47-4.36-8.07c0-1.4,0.37-2.78,1.11-4.15c0.74-1.37,1.93-2.67,3.55-3.89c-0.95-0.41-1.77-0.85-2.47-1.32
		c-0.7-0.47-1.32-0.96-1.86-1.45v-1.62l5.81-5.95c-2.61-2.25-3.92-5.2-3.92-8.85c0-2.21,0.53-4.22,1.59-6.05
		c1.06-1.82,2.6-3.28,4.63-4.36c2.03-1.08,4.46-1.62,7.3-1.62c1.89,0,3.65,0.27,5.27,0.81h12.5v4.73l-5.95,0.34
		c1.08,1.85,1.62,3.9,1.62,6.15c0,2.25-0.53,4.28-1.59,6.08c-1.06,1.8-2.59,3.24-4.59,4.32
		C1372.49,62.18,1370.07,62.72,1367.23,62.72 M1358.25,77.24c0,1.94,0.86,3.39,2.57,4.36c1.71,0.97,3.85,1.45,6.42,1.45
		c2.48,0,4.48-0.53,6.02-1.59c1.53-1.06,2.3-2.47,2.3-4.22c0-1.31-0.52-2.42-1.55-3.34c-1.04-0.92-3-1.5-5.88-1.72
		c-2.16-0.14-4.08-0.34-5.74-0.61c-1.58,0.86-2.66,1.78-3.24,2.77C1358.54,75.33,1358.25,76.3,1358.25,77.24 M1367.23,57.11
		c2.07,0,3.75-0.55,5.03-1.66c1.28-1.1,1.93-2.67,1.93-4.69c0-2.07-0.64-3.65-1.93-4.73c-1.28-1.08-2.96-1.62-5.03-1.62
		c-2.12,0-3.82,0.54-5.1,1.62c-1.28,1.08-1.92,2.66-1.92,4.73c0,2.03,0.64,3.59,1.92,4.69
		C1363.41,56.56,1365.11,57.11,1367.23,57.11"/>
	<path class="st1" d="M1129.26,123.17V89.66h6.35l0.54,5.88c1.04-2.07,2.55-3.71,4.56-4.9c2-1.19,4.31-1.79,6.93-1.79
		c4.05,0,7.24,1.26,9.56,3.78c2.32,2.52,3.48,6.28,3.48,11.28v19.26h-7.1v-18.51c0-6.49-2.66-9.73-7.97-9.73
		c-2.66,0-4.85,0.95-6.59,2.84c-1.74,1.89-2.6,4.59-2.6,8.11v17.3H1129.26z"/>
	<path class="st1" d="M1184.26,88.85c3.29,0,6.2,0.73,8.75,2.2c2.54,1.46,4.54,3.5,5.98,6.11c1.44,2.61,2.16,5.65,2.16,9.12
		c0,3.51-0.71,6.6-2.13,9.26c-1.42,2.66-3.4,4.73-5.95,6.22c-2.54,1.49-5.51,2.23-8.88,2.23c-3.29,0-6.15-0.73-8.58-2.2
		c-2.43-1.46-4.32-3.41-5.68-5.84c-1.35-2.43-2.03-5.11-2.03-8.04c0-0.45,0.01-0.94,0.03-1.45c0.02-0.52,0.06-1.09,0.1-1.72h26.08
		c-0.23-3.24-1.29-5.71-3.21-7.4c-1.91-1.69-4.13-2.53-6.66-2.53c-2.03,0-3.73,0.46-5.1,1.39c-1.37,0.92-2.4,2.17-3.07,3.75h-7.16
		c0.9-3.15,2.69-5.79,5.37-7.9C1176.97,89.9,1180.3,88.85,1184.26,88.85 M1184.26,118.1c2.39,0,4.51-0.71,6.35-2.13
		c1.85-1.42,2.97-3.55,3.38-6.38h-18.92c0.13,2.61,1.06,4.68,2.77,6.21C1179.55,117.33,1181.69,118.1,1184.26,118.1"/>
	<polygon class="st1" points="1213.92,123.17 1204.05,89.66 1211.22,89.66 1217.7,114.92 1225,89.66 1232.97,89.66 1240.27,114.92 
		1246.75,89.66 1253.92,89.66 1244.05,123.17 1236.69,123.17 1228.99,96.82 1221.28,123.17 	"/>
	<path class="st1" d="M1146.17,184.78c-3.24,0-6.1-0.77-8.58-2.3c-2.48-1.53-4.42-3.63-5.81-6.28c-1.4-2.66-2.09-5.67-2.09-9.05
		s0.7-6.38,2.09-9.02c1.39-2.63,3.34-4.71,5.84-6.22c2.5-1.51,5.37-2.26,8.62-2.26c2.66,0,4.99,0.52,6.99,1.55
		c2,1.04,3.57,2.5,4.69,4.39v-20.27h7.16v48.65h-6.42l-0.74-5.2c-1.08,1.58-2.56,2.97-4.46,4.19
		C1151.57,184.17,1149.14,184.78,1146.17,184.78 M1147.45,178.57c3.06,0,5.57-1.06,7.53-3.18c1.96-2.12,2.94-4.84,2.94-8.18
		c0-3.38-0.98-6.11-2.94-8.21c-1.96-2.09-4.47-3.14-7.53-3.14c-3.06,0-5.59,1.05-7.57,3.14c-1.98,2.09-2.97,4.83-2.97,8.21
		c0,2.21,0.45,4.17,1.35,5.88c0.9,1.71,2.15,3.05,3.75,4.02C1143.61,178.08,1145.43,178.57,1147.45,178.57"/>
	<path class="st1" d="M1189.28,149.65c3.29,0,6.2,0.73,8.75,2.2c2.54,1.46,4.54,3.5,5.98,6.11c1.44,2.61,2.16,5.65,2.16,9.12
		c0,3.51-0.71,6.6-2.13,9.26c-1.42,2.66-3.4,4.73-5.95,6.22c-2.54,1.49-5.51,2.23-8.88,2.23c-3.29,0-6.15-0.73-8.58-2.2
		c-2.43-1.47-4.32-3.41-5.67-5.85c-1.35-2.43-2.03-5.11-2.03-8.04c0-0.45,0.01-0.94,0.03-1.45c0.02-0.52,0.06-1.09,0.1-1.72h26.08
		c-0.22-3.24-1.29-5.71-3.21-7.4c-1.91-1.69-4.13-2.53-6.66-2.53c-2.03,0-3.73,0.46-5.1,1.39c-1.37,0.92-2.4,2.17-3.08,3.75h-7.16
		c0.9-3.15,2.69-5.79,5.37-7.9C1181.99,150.71,1185.31,149.65,1189.28,149.65 M1189.28,178.9c2.39,0,4.5-0.71,6.35-2.13
		c1.84-1.42,2.97-3.55,3.38-6.39h-18.92c0.13,2.61,1.06,4.68,2.77,6.22C1184.57,178.14,1186.71,178.9,1189.28,178.9"/>
	<path class="st1" d="M1226.97,184.78c-4.23,0-7.73-1.04-10.47-3.11c-2.75-2.07-4.32-4.82-4.73-8.24h7.23
		c0.36,1.53,1.22,2.85,2.57,3.95c1.35,1.1,3.13,1.66,5.34,1.66c2.16,0,3.74-0.45,4.73-1.35c0.99-0.9,1.49-1.93,1.49-3.11
		c0-1.71-0.69-2.87-2.06-3.48c-1.38-0.61-3.28-1.16-5.71-1.66c-1.89-0.41-3.77-0.95-5.64-1.62c-1.87-0.68-3.42-1.63-4.66-2.87
		c-1.24-1.24-1.86-2.92-1.86-5.03c0-2.93,1.12-5.37,3.38-7.33c2.25-1.96,5.4-2.94,9.46-2.94c3.74,0,6.77,0.9,9.09,2.7
		c2.32,1.8,3.68,4.35,4.09,7.63h-6.89c-0.23-1.44-0.89-2.56-1.99-3.38c-1.1-0.81-2.58-1.21-4.43-1.21c-1.8,0-3.2,0.37-4.19,1.11
		c-0.99,0.74-1.49,1.7-1.49,2.87c0,1.17,0.69,2.09,2.06,2.77c1.37,0.68,3.19,1.28,5.44,1.82c2.25,0.5,4.34,1.07,6.25,1.73
		c1.91,0.65,3.46,1.61,4.63,2.87c1.17,1.26,1.76,3.11,1.76,5.54c0.04,3.07-1.14,5.61-3.55,7.63
		C1234.4,183.77,1231.12,184.78,1226.97,184.78"/>
	<path class="st1" d="M1248.66,150.46h7.16v33.51h-7.16V150.46z M1256.6,135.9h-7.08v7.08h7.08V135.9z"/>
	<path class="st1" d="M1279,173.7c-1.76,0-3.38-0.2-4.86-0.61l-2.91,2.84c0.5,0.32,1.1,0.59,1.83,0.81
		c0.72,0.23,1.73,0.43,3.04,0.61c1.3,0.18,3.08,0.36,5.34,0.54c4.46,0.41,7.68,1.48,9.66,3.21c1.98,1.74,2.98,4.04,2.98,6.93
		c0,1.98-0.53,3.86-1.59,5.64c-1.06,1.78-2.7,3.22-4.93,4.32c-2.23,1.1-5.08,1.66-8.55,1.66c-4.68,0-8.48-0.89-11.38-2.67
		c-2.91-1.78-4.36-4.47-4.36-8.07c0-1.4,0.37-2.78,1.11-4.16c0.74-1.37,1.92-2.67,3.55-3.89c-0.95-0.41-1.77-0.85-2.47-1.32
		c-0.7-0.47-1.32-0.96-1.86-1.45v-1.62l5.81-5.95c-2.61-2.25-3.92-5.2-3.92-8.85c0-2.21,0.53-4.22,1.59-6.05
		c1.06-1.82,2.6-3.28,4.63-4.36c2.02-1.08,4.46-1.62,7.3-1.62c1.89,0,3.65,0.27,5.27,0.81h12.5v4.73l-5.95,0.34
		c1.08,1.85,1.62,3.9,1.62,6.15c0,2.25-0.53,4.28-1.59,6.08c-1.06,1.8-2.59,3.24-4.59,4.32C1284.25,173.16,1281.83,173.7,1279,173.7
		 M1270.01,188.23c0,1.93,0.86,3.39,2.57,4.36c1.71,0.97,3.85,1.45,6.42,1.45c2.48,0,4.48-0.53,6.02-1.59
		c1.53-1.06,2.3-2.47,2.3-4.22c0-1.31-0.52-2.42-1.55-3.34c-1.04-0.92-3-1.5-5.88-1.72c-2.16-0.14-4.08-0.34-5.74-0.61
		c-1.58,0.86-2.66,1.78-3.24,2.77C1270.3,186.31,1270.01,187.28,1270.01,188.23 M1279,168.09c2.07,0,3.75-0.55,5.03-1.65
		c1.28-1.1,1.92-2.67,1.92-4.7c0-2.07-0.64-3.65-1.92-4.73c-1.28-1.08-2.96-1.62-5.03-1.62c-2.12,0-3.82,0.54-5.1,1.62
		c-1.28,1.08-1.92,2.66-1.92,4.73c0,2.03,0.64,3.59,1.92,4.7C1275.18,167.55,1276.88,168.09,1279,168.09"/>
	<path class="st1" d="M1303.18,183.97v-33.51h6.35l0.54,5.88c1.04-2.07,2.55-3.71,4.56-4.9c2-1.19,4.31-1.79,6.93-1.79
		c4.05,0,7.24,1.26,9.56,3.78c2.32,2.52,3.48,6.28,3.48,11.28v19.25h-7.09v-18.51c0-6.49-2.66-9.73-7.97-9.73
		c-2.66,0-4.85,0.95-6.59,2.84c-1.74,1.89-2.6,4.59-2.6,8.11v17.3H1303.18z"/>
</g>
</svg>
