<?xml version="1.0" encoding="utf-8"?>
<!-- Generator: Adobe Illustrator 23.0.3, SVG Export Plug-In . SVG Version: 6.00 Build 0)  -->
<svg version="1.1" id="Capa_1" xmlns="http://www.w3.org/2000/svg" xmlns:xlink="http://www.w3.org/1999/xlink" x="0px" y="0px"
	 viewBox="0 0 692 156" style="enable-background:new 0 0 692 156;" xml:space="preserve">
<path d="M352.16,64.32c-0.01-0.01-0.03-0.02-0.04-0.04c-1.36-1.34-2.9-2.53-4.57-3.53c-1.69-1.01-3.6-1.83-5.69-2.43
	c-2.1-0.6-4.43-0.91-6.92-0.91c-3.26,0-6.47,0.63-9.53,1.86c-3.05,1.23-5.83,3.02-8.25,5.31c-2.44,2.31-4.41,5.16-5.86,8.48
	c-1.46,3.33-2.19,7.15-2.19,11.37c0,4.22,0.74,8.04,2.19,11.37c1.45,3.32,3.42,6.18,5.86,8.48c2.43,2.3,5.21,4.07,8.27,5.28
	c3.05,1.2,6.25,1.81,9.51,1.81c2.5,0,4.81-0.31,6.89-0.91c2.07-0.61,3.99-1.47,5.68-2.55c1.67-1.07,3.2-2.32,4.56-3.72
	c0.03-0.04,0.07-0.07,0.1-0.1v6.89h11.33V41.43l-11.33,7.72V64.32z M347.5,72.35c1.51,1.42,2.72,3.16,3.61,5.19
	c0.89,2.02,1.34,4.31,1.34,6.8c0,2.49-0.45,4.8-1.34,6.85c-0.89,2.05-2.1,3.81-3.61,5.23c-1.53,1.43-3.29,2.57-5.22,3.37
	c-3.9,1.61-8.32,1.54-12.03,0.04c-1.87-0.76-3.54-1.87-4.96-3.31c-1.42-1.44-2.57-3.21-3.41-5.24c-0.83-2.04-1.26-4.37-1.26-6.93
	c0-2.63,0.42-5.02,1.26-7.08c0.83-2.05,1.95-3.79,3.34-5.18c1.39-1.38,3.04-2.44,4.9-3.17c1.89-0.74,3.97-1.12,6.16-1.12
	c2.05,0,4.07,0.4,5.98,1.2C344.21,69.79,345.97,70.92,347.5,72.35"/>
<path d="M418.36,47.38c-2.4-1.91-5.32-3.39-8.67-4.42c-3.3-1.01-6.99-1.53-10.97-1.53h-27.29v75.82l11.52-7.72V87.39h14.51
	c3.77,0,7.4-0.48,10.78-1.42c3.44-0.96,6.5-2.42,9.1-4.35c2.64-1.96,4.76-4.43,6.31-7.33c1.56-2.94,2.36-6.37,2.36-10.21
	c0-3.49-0.66-6.69-1.97-9.5C422.72,51.75,420.81,49.32,418.36,47.38 M397.8,76.82h-14.85V52.09h15.24c5.06,0,9.13,1.08,12.11,3.21
	c2.82,2.02,4.19,4.98,4.19,9.06c0,1.86-0.37,3.55-1.11,5.04c-0.74,1.49-1.82,2.79-3.23,3.88c-1.46,1.12-3.23,2-5.29,2.6
	C402.76,76.51,400.38,76.82,397.8,76.82"/>
<path d="M461.72,57.64l-1.89-0.05c-2.59-0.06-5.03,0.24-7.28,0.92c-2.25,0.68-4.36,1.69-6.26,3c-1.86,1.29-3.53,2.84-4.99,4.62
	v-8.55h-11.33v53.38h11.33v-21.7c0-3.34,0.48-6.32,1.42-8.84c0.93-2.49,2.22-4.59,3.83-6.25c1.6-1.65,3.5-2.9,5.64-3.72
	c2.18-0.84,4.54-1.27,7-1.27h2.52V57.64z"/>
<path d="M514.06,94.81c1.42-3.3,2.14-6.82,2.14-10.47c0-3.65-0.7-7.15-2.09-10.42c-1.39-3.26-3.36-6.14-5.85-8.57
	c-2.49-2.42-5.48-4.37-8.88-5.79c-3.42-1.42-7.17-2.15-11.15-2.15c-4.04,0-7.83,0.72-11.25,2.15c-3.41,1.42-6.4,3.39-8.89,5.84
	c-2.5,2.46-4.46,5.38-5.85,8.67c-1.38,3.29-2.09,6.81-2.09,10.46c0,3.65,0.7,7.16,2.09,10.42c1.39,3.26,3.35,6.14,5.85,8.58
	c2.48,2.42,5.45,4.37,8.82,5.79c3.39,1.42,7.12,2.15,11.11,2.15c3.98,0,7.74-0.72,11.19-2.14c3.45-1.42,6.45-3.39,8.95-5.85
	C510.67,101.01,512.65,98.1,514.06,94.81L514.06,94.81z M481.66,99.75c-2.02-0.88-3.79-2.08-5.25-3.57
	c-1.46-1.48-2.62-3.26-3.46-5.3c-0.84-2.04-1.26-4.25-1.26-6.59c0-2.33,0.41-4.54,1.22-6.55c0.81-2.02,1.93-3.81,3.34-5.33
	c1.39-1.49,3.1-2.68,5.09-3.52c2.01-0.85,4.26-1.28,6.7-1.28c2.36,0,4.58,0.45,6.58,1.32c2.01,0.88,3.8,2.1,5.3,3.62
	c1.49,1.51,2.67,3.31,3.5,5.35c0.84,2.05,1.26,4.26,1.26,6.59c0,2.33-0.41,4.54-1.21,6.55c-0.81,2.01-1.94,3.79-3.37,5.26
	c-1.42,1.47-3.16,2.65-5.17,3.5C490.98,101.47,485.72,101.53,481.66,99.75"/>
<rect x="519.97" y="41.43" width="11.32" height="10.66"/>
<rect x="257.68" y="41.43" width="11.32" height="10.66"/>
<rect x="221.32" y="41.43" width="11.32" height="10.66"/>
<path d="M579.49,65.51c-2.17-2.49-4.87-4.48-8.01-5.92c-3.15-1.44-6.74-2.17-10.68-2.17c-3.74,0-7.25,0.71-10.41,2.12
	c-3.15,1.4-5.92,3.34-8.22,5.78c-2.29,2.44-4.1,5.34-5.38,8.62c-1.28,3.27-1.92,6.81-1.92,10.51c0,3.97,0.73,7.66,2.17,10.99
	c1.44,3.32,3.41,6.2,5.85,8.57c2.45,2.37,5.33,4.22,8.59,5.52c3.24,1.29,6.74,1.95,10.4,1.95c5.06,0,9.39-0.9,12.88-2.67
	c3.42-1.74,6.5-4.08,9.16-6.96l1.36-1.48l-7.52-6.47l-1.27,1.26c-1.91,1.89-4.04,3.43-6.32,4.57c-2.2,1.1-4.92,1.65-8.09,1.65
	c-1.96,0-3.86-0.32-5.64-0.96c-1.76-0.62-3.37-1.57-4.8-2.8c-1.42-1.23-2.6-2.75-3.51-4.53v0c-0.63-1.22-1.1-2.6-1.41-4.09h39
	l0.25-1.65c0.08-0.53,0.12-1.03,0.12-1.49V84.8c0-3.72-0.56-7.28-1.65-10.56C583.31,70.93,581.65,67.98,579.49,65.51 M560.61,67.33
	c2.2,0,4.14,0.39,5.76,1.16c1.64,0.78,3.05,1.83,4.19,3.11c1.15,1.3,2.06,2.84,2.71,4.59c0.43,1.16,0.76,2.37,0.99,3.61h-27.54
	c0.28-1.33,0.69-2.59,1.23-3.76c0.8-1.77,1.84-3.32,3.09-4.61c1.23-1.27,2.68-2.29,4.31-3.02
	C556.94,67.69,558.72,67.33,560.61,67.33"/>
<path d="M631.22,94.5c-1.86,1.9-3.97,3.5-6.27,4.76c-2.18,1.2-4.75,1.81-7.63,1.81c-2.37,0-4.57-0.43-6.54-1.28
	c-1.98-0.85-3.73-2.05-5.18-3.55c-1.46-1.51-2.63-3.32-3.47-5.36c-0.84-2.04-1.26-4.25-1.26-6.59c0-2.33,0.41-4.54,1.22-6.55
	c0.8-2.01,1.94-3.8,3.38-5.31c1.42-1.5,3.13-2.69,5.08-3.54c1.94-0.85,4.05-1.27,6.29-1.27c3.04,0,5.62,0.63,7.65,1.85
	c2.22,1.34,4.29,2.97,6.17,4.83l1.39,1.37l7.64-7.77l-1.34-1.36c-1.21-1.22-2.54-2.41-3.96-3.52c-1.45-1.13-3.07-2.12-4.8-2.96
	c-1.74-0.83-3.67-1.49-5.74-1.95c-2.07-0.46-4.39-0.7-6.91-0.7c-3.92,0-7.61,0.72-10.97,2.15c-3.35,1.42-6.29,3.39-8.74,5.85
	c-2.46,2.46-4.4,5.37-5.79,8.66c-1.38,3.29-2.09,6.81-2.09,10.46c0,3.65,0.7,7.16,2.09,10.42c1.38,3.26,3.33,6.14,5.79,8.57
	c2.46,2.42,5.39,4.37,8.73,5.79c3.35,1.43,7.04,2.15,10.97,2.15c5.02,0,9.32-0.97,12.79-2.88c3.37-1.86,6.42-4.26,9.06-7.13
	l1.33-1.44l-7.58-6.83L631.22,94.5z"/>
<path d="M676.74,68.91v-10.2h-15.87v-17l-11.33,7.73v9.27h-6.97v10.2h6.97v27.05c0,2.66,0.41,5,1.21,6.96
	c0.82,2.01,2,3.68,3.48,4.96c1.47,1.27,3.23,2.2,5.24,2.76c1.91,0.54,3.97,0.82,6.14,0.82c1.94,0,3.74-0.19,5.33-0.56
	c1.61-0.38,3.15-0.95,4.58-1.71l1.03-0.55V98.26l-2.78,1.33c-1.15,0.55-2.23,0.94-3.21,1.15c-0.99,0.22-2.07,0.33-3.21,0.33
	c-2.07,0-3.73-0.46-4.92-1.37c-1.03-0.78-1.55-2.36-1.55-4.68V68.91H676.74z"/>
<polygon points="519.97,58.43 519.97,59.21 519.97,61.39 519.97,64.73 519.97,69 519.97,73.96 519.97,79.38 519.97,85.03 
	519.97,88.36 519.94,88.36 519.94,117.25 531.3,109.53 531.3,88.36 531.3,58.43 "/>
<path d="M281.47,57.86c-4.5,0-8.69,1.18-12.29,3.2V57.8h-11.63v20.95c-0.04,0.52-0.09,1.03-0.09,1.56v6.58
	c-0.44,6.85-5.75,12.3-12.29,12.3c-6.82,0-12.38-5.91-12.38-13.18V57.8h-11.63V86c0,13.68,10.77,24.81,24,24.81
	c13.24,0,24-11.13,24-24.81v-6.42c0.44-5.62,5.75-10.09,12.29-10.09c6.82,0,12.38,4.85,12.38,10.82v30.65h11.63V80.31
	C305.48,67.93,294.71,57.86,281.47,57.86"/>
<path d="M192.05,41.17h-14.22v10.68h14.22c3.97,0,7.2,3.23,7.2,7.2c0,3.97-3.23,7.2-7.2,7.2h-29.96V56.18H151.4v20.76h40.65
	c9.86,0,17.88-8.03,17.88-17.89S201.91,41.17,192.05,41.17"/>
<polygon points="139.17,39.7 143.92,39.7 143.92,57.31 146.11,55.6 146.11,39.7 150.85,39.7 150.85,37.69 139.17,37.69 "/>
<path d="M160.47,42.23c-0.37-0.38-0.83-0.68-1.36-0.89c-0.53-0.21-1.13-0.31-1.8-0.31c-0.96,0-1.76,0.21-2.37,0.62
	c-0.34,0.23-0.64,0.48-0.91,0.77v-4.73h-2.15v14.17h2.15v-6.04c0-0.43,0.07-0.82,0.21-1.17c0.14-0.35,0.34-0.65,0.59-0.9
	c0.25-0.25,0.55-0.44,0.9-0.57c0.35-0.14,0.73-0.2,1.14-0.2c0.84,0,1.48,0.24,1.92,0.72c0.44,0.48,0.67,1.16,0.67,2.01v6.15h2.15
	v-6.52c0-0.63-0.1-1.21-0.29-1.73C161.12,43.07,160.84,42.61,160.47,42.23"/>
<path d="M172.6,44.39c-0.22-0.67-0.56-1.26-0.98-1.75c-0.44-0.5-0.97-0.89-1.6-1.18c-1.22-0.56-2.91-0.59-4.22-0.01
	c-0.63,0.28-1.18,0.67-1.64,1.16c-0.46,0.49-0.82,1.07-1.08,1.72c-0.25,0.65-0.38,1.36-0.38,2.1c0,0.79,0.15,1.53,0.43,2.2
	c0.29,0.66,0.68,1.24,1.17,1.71c0.49,0.47,1.07,0.84,1.72,1.1c0.65,0.26,1.35,0.39,2.08,0.39c1.01,0,1.88-0.18,2.58-0.53
	c0.69-0.35,1.3-0.82,1.84-1.4l0.21-0.22l-1.38-1.19l-0.19,0.19c-0.4,0.39-0.84,0.71-1.32,0.95c-0.46,0.23-1.03,0.35-1.69,0.35
	c-0.41,0-0.81-0.07-1.19-0.2c-0.37-0.13-0.71-0.33-1.01-0.59c-0.3-0.26-0.55-0.58-0.74-0.96c-0.15-0.29-0.26-0.62-0.32-0.99h7.98
	l0.04-0.25c0.02-0.1,0.02-0.2,0.02-0.29V46.5C172.93,45.76,172.82,45.05,172.6,44.39 M170.75,45.59h-5.86
	c0.06-0.32,0.15-0.63,0.28-0.91c0.17-0.37,0.39-0.7,0.65-0.97c0.26-0.27,0.57-0.48,0.91-0.64c0.73-0.33,1.68-0.29,2.33,0.02
	c0.35,0.17,0.65,0.39,0.89,0.66c0.24,0.27,0.43,0.6,0.57,0.97C170.63,44.99,170.71,45.29,170.75,45.59"/>
<path d="M195.01,67.2h-43.6v42.34v1.43v6.29l9.42-6.31l1.07,0h33.11c12.05,0,21.86-9.8,21.86-21.88
	C216.86,77,207.06,67.2,195.01,67.2 M195.01,100.26h-32.92V77.88h32.92c6.16,0,11.17,5.01,11.17,11.17
	C206.18,95.24,201.17,100.26,195.01,100.26"/>
<path d="M69.29,89.68H28.76V44.31H15.39V15.16h53.9c20.55,0,37.26,16.71,37.26,37.26C106.55,72.97,89.84,89.68,69.29,89.68
	 M37.75,80.7h31.54c15.59,0,28.27-12.68,28.27-28.27c0-15.59-12.68-28.28-28.27-28.28H24.38v11.17h13.37V80.7z"/>
<path d="M48.87,143.25V57.28h37.26c20.55,0,37.26,15.37,37.26,34.27s-16.72,34.27-37.26,34.27H74.52L48.87,143.25z M57.86,66.26v60
	l13.89-9.45h14.39c15.59,0,28.27-11.34,28.27-25.28c0-13.94-12.68-25.28-28.27-25.28H57.86z"/>
</svg>
