<?xml version="1.0" encoding="utf-8"?>
<!-- Generator: Adobe Illustrator 23.0.3, SVG Export Plug-In . SVG Version: 6.00 Build 0)  -->
<svg version="1.1" id="Capa_1" xmlns="http://www.w3.org/2000/svg" xmlns:xlink="http://www.w3.org/1999/xlink" x="0px" y="0px"
	 viewBox="0 0 134 156" style="enable-background:new 0 0 134 156;" xml:space="preserve">
<style type="text/css">
	.st0{fill:#F2F2F2;}
</style>
<path class="st0" d="M67.86,89.92H20.14V36.48H4.39V2.16h63.47c24.19,0,43.88,19.68,43.88,43.88
	C111.74,70.23,92.06,89.92,67.86,89.92 M30.72,79.33h37.14c18.36,0,33.3-14.94,33.3-33.3c0-18.36-14.94-33.3-33.3-33.3H14.97V25.9
	h15.74V79.33z"/>
<path class="st0" d="M43.82,153V51.76H87.7c24.19,0,43.88,18.1,43.88,40.35c0,22.25-19.68,40.35-43.88,40.35H74.02L43.82,153z
	 M54.4,62.34V133l16.36-11.12H87.7c18.36,0,33.3-13.35,33.3-29.77c0-16.41-14.94-29.77-33.3-29.77H54.4z"/>
</svg>
