<?xml version="1.0" encoding="utf-8"?>
<!-- Generator: Adobe Illustrator 23.0.3, SVG Export Plug-In . SVG Version: 6.00 Build 0)  -->
<svg version="1.1" xmlns="http://www.w3.org/2000/svg" xmlns:xlink="http://www.w3.org/1999/xlink" x="0px" y="0px"
	 viewBox="0 0 541 512" style="enable-background:new 0 0 541 512;" xml:space="preserve">
<style type="text/css">
	.st0{display:none;}
	.st1{display:inline;}
</style>
<g id="Instagram" class="st0">
	<path class="st1" d="M197.81,7c49.93,0,99.86,0,149.79,0c2.9,0.27,5.81,0.54,8.71,0.8c18.81,1.7,37.96,1.72,56.37,5.43
		c48.74,9.8,82.69,38.1,99.83,85.37c8.29,22.86,10.21,46.76,10.28,70.8c0.18,57.43,0.44,114.87-0.17,172.29
		c-0.19,18.18-1.45,36.64-4.93,54.44c-9.37,47.99-36.81,81.93-82.84,99.86c-22.2,8.65-45.6,10.95-69.16,11.19
		c-52.85,0.53-105.72,1.03-158.57,0.74c-26.04-0.14-52.22-0.24-77.84-6.46c-41.48-10.07-72.3-33.58-90.63-72.43
		c-11.28-23.9-14.72-49.62-15-75.71c-0.57-54.16-1.17-108.33-0.74-162.49c0.18-22.77,1.56-45.72,4.88-68.22
		c5.18-35.07,22.08-64.18,50.76-85.7C103.15,18.46,131.62,11.13,161.72,9C173.74,8.15,185.78,7.65,197.81,7z M273.3,463.97
		c0.01-0.26,0.01-0.51,0.02-0.77c13.22,0,26.45,0.39,39.65-0.08c28.34-1.02,56.88-0.76,84.94-4.18
		c37.03-4.52,62.39-25.48,73.59-61.9c5.14-16.7,6.02-34.02,6.22-51.31c0.52-44.37,1.15-88.75,0.75-133.12
		c-0.23-26.38-0.9-52.92-3.91-79.09c-4.63-40.26-30.15-67.56-69.81-75.46c-17.3-3.44-35.27-4.46-52.97-4.76
		c-43.71-0.73-87.45-0.6-131.17-0.45c-25.1,0.08-50.27-0.24-75.15,4.13c-38.02,6.68-64.09,30.78-71.85,68.61
		c-3.35,16.33-4.46,33.3-4.82,50.01c-0.86,40.29-1.17,80.6-0.73,120.89c0.31,28.19,1.13,56.46,3.76,84.5
		c2.44,26.04,14.36,47.95,36.49,63.17c17.08,11.75,36.62,16.25,56.88,17.02C201.21,462.54,237.26,463.08,273.3,463.97z"/>
	<path class="st1" d="M144.35,257.81c-0.24-70.89,57.68-128.83,128.78-128.84c71.01-0.01,128.24,57.05,128.73,128.33
		c0.48,70.84-57.27,128.91-128.47,129.16C202.47,386.71,144.59,329,144.35,257.81z M272.87,341.1c46.24,0.13,83.48-36.82,83.7-83.03
		c0.21-46.21-36.72-83.55-82.91-83.82c-46.4-0.27-83.84,36.87-83.94,83.28C189.61,303.71,226.69,340.97,272.87,341.1z"/>
	<path class="st1" d="M407.68,93.89c16.82,0.33,29.69,13.91,29.25,30.86c-0.43,16.51-13.95,29.37-30.61,29.1
		c-16.55-0.27-29.71-14.15-29.34-30.95C377.35,106.51,391.04,93.56,407.68,93.89z"/>
</g>
<g id="Twitter" class="st0">
	<g class="st1">
		<path d="M33,463c0-139.98,0-279.96,0-419.94c1.17-0.29,1.11-1.39,1.37-2.22c4.14-13.52,12.97-22.33,26.48-26.48
			c0.83-0.25,1.92-0.2,2.22-1.37c139.98,0,279.96,0,419.94,0c0.16,0.24,0.28,0.64,0.5,0.71c22.23,7.36,30.5,18.83,30.5,42.35
			c0,131.78,0,263.56,0,395.33c0,1.88,0.02,3.76-0.03,5.63c-0.47,16.62-11.32,30.61-27.3,35.44c-1.22,0.37-2.92-0.09-3.67,1.53
			c-139.67,0-279.33,0-419,0c-0.49-0.32-0.94-0.79-1.48-0.94c-15.04-4.03-24.59-13.52-28.59-28.59C33.79,463.94,33.32,463.49,33,463
			z M427.09,157.94c-10.35,3.85-20.78,7.39-32.13,8.05c11.79-8.61,20.5-19.34,25.46-34.19c-11.84,6.76-23.41,11.3-35.58,14.37
			c-3.08,0.78-5.31,0.49-7.88-1.95c-27.47-26.1-72.2-22.08-94.71,8.42c-10.66,14.44-14.46,30.67-11.84,48.34
			c0.56,3.76-0.17,4.69-3.94,4.05c-4.77-0.82-9.67-0.82-14.45-1.62c-40.82-6.86-75.68-25.02-104.14-55.22
			c-2.82-3-5.55-6.09-8.55-9.4c-6.74,11.62-9.51,23.67-8.51,36.45c1.54,19.74,10.55,35.59,27.38,48.43
			c-9.55-0.05-17.08-2.23-24.22-5.73c-3.35-1.64-3.86-0.84-3.63,2.54c1.26,18.48,9.04,33.59,23.06,45.56
			c7.61,6.5,16.52,10.55,27.21,13.52c-9.86,2.62-18.64,2.38-27.94,1.28c4.43,13.17,11.94,23.3,22.41,31.26
			c10.56,8.02,22.66,12.04,36.87,13.09c-27.84,21.09-58.35,29.07-92.41,26.68c0.8,0.93,0.93,1.17,1.13,1.3
			c1.19,0.74,2.4,1.47,3.61,2.18c25.18,14.66,52.28,22.9,81.4,24.39c34.49,1.77,67.69-3.86,97.69-21.24
			c62.65-36.3,92.79-91.94,94.12-163.75c0.07-3.52,1.03-5.56,3.78-7.71c10.28-8.02,19.49-17.12,26.35-28.35
			c0.21-0.21,0.63-0.51,0.58-0.61C427.98,157.49,427.51,157.73,427.09,157.94z"/>
	</g>
</g>
<g id="FB" class="st0">
	<path class="st1" d="M30.72,474.9c0-147.56,0-295.12,0-442.68C33.32,17.97,41.8,9.37,55.85,6.13c148.2,0,296.41,0,444.61,0
		c14.1,3.19,22.49,11.87,25.13,26.1c0,147.56,0,295.12,0,442.68c-2.75,14.65-11.45,23.34-26.1,26.1c-42.21,0-84.41,0-126.62,0
		c0.11-2.24,0.31-4.49,0.32-6.73c0.02-59.43,0.06-118.87-0.08-178.3c-0.01-4.53,1.05-6.11,5.86-6.04
		c18.03,0.28,36.08,0.04,54.12,0.17c3.43,0.03,4.64-0.99,5.06-4.55c1.94-16.41,4.3-32.78,6.42-49.17
		c0.94-7.25,1.65-14.52,2.54-22.46c-2.81,0-4.7,0-6.59,0c-20.78,0-41.55-0.04-62.33,0.04c-3.18,0.01-5.1-0.35-5.05-4.35
		c0.2-16.43-0.08-32.86,0.19-49.28c0.24-14.77,7.57-24.15,21.08-27.43c3.56-0.86,7.29-1.31,10.96-1.36
		c13.04-0.17,26.09-0.17,39.14-0.03c3.69,0.04,5.15-1.1,5.12-4.96c-0.14-19.65-0.09-39.3-0.04-58.95c0.01-2.8-0.55-4.5-3.9-4.67
		c-9.62-0.48-19.24-1.13-28.85-1.91c-16.08-1.32-32.16-1.78-48.09,1.17c-29.97,5.55-52.41,21.27-65.16,49.54
		c-6.38,14.14-8.89,29.18-9.21,44.54c-0.36,17.07-0.1,34.14-0.11,51.22c0,6.43-0.01,6.44-6.23,6.44
		c-17.39,0.01-34.79,0.11-52.18-0.07c-4.1-0.04-5.6,0.99-5.56,5.39c0.22,21.9,0.09,43.81,0.11,65.71c0,1.55,0.18,3.1,0.3,5.1
		c2.13,0,3.87,0,5.61,0c17.23,0,34.47,0,51.7,0c6.24,0,6.24,0.01,6.24,6.41c0,59.27,0,118.54,0.02,177.82
		c0,2.25,0.21,4.49,0.32,6.74c-79.26,0-158.51,0-237.77,0C42.16,498.25,33.46,489.56,30.72,474.9z"/>
</g>
<g id="Mail" class="st0">
	<g class="st1">
		<path d="M20.07,78.05c0-9.92-0.7-19.97,3.07-28.35c9.45-20.98,30.73-21.83,48.03-21.82c46.01,0.01,92.03,0,138.04,0
			c87.64,0,175.27-0.02,262.91,0.01c22.68,0.01,39,7.52,45.56,36.14c1.64,7.17,1.9,16.3,1.91,23.84
			c0.16,113.65,0.18,227.3,0.07,340.95c-0.03,38.25-8.13,50.91-43.59,56.91c-1.14,0.06-2.28,0.04-3.41,0.04
			c-133.16,0-266.32,0.01-399.48-0.01c-21.37,1.14-45.95-0.91-52.09-27.53c-1.25-5.41,0.16-14.03-1.02-19.56
			C20.07,318.47,20.07,198.26,20.07,78.05z M489.5,165.11c-3.21,2.36-5.64,4.13-8.06,5.93c-60.89,45.53-121.77,91.09-182.68,136.57
			c-18.66,13.93-37.38,13.74-56.02-0.21c-61.89-46.3-123.78-92.61-185.67-138.91c-1.39-1.04-2.82-1.94-4.76-3.26
			c0,3.25,0,5.54,0,7.84c0,84.08,0,168.16,0,252.24c0,18.48,5.87,26.97,18.71,26.98c133.17,0.01,266.35,0.01,399.52,0
			c13.23,0,18.94-8.27,18.94-27.34c0-83.85,0-167.7,0-251.55C489.5,171.1,489.5,168.78,489.5,165.11z M271.32,64.42
			c-66.19,0-132.39,0-198.58,0c-1.79,0-3.59-0.11-5.36,0.1C58.4,65.6,52.51,74.6,52.34,87.53c-0.08,6.05,0.37,12.18-0.12,18.15
			c-0.57,6.94,1.51,10.09,5.65,13.17c65.29,48.58,130.56,97.21,195.62,146.42c12.14,9.18,22.91,9.08,34.98-0.05
			c62.33-47.15,124.88-93.69,187.35-140.46c4.45-3.33,10.57-5.41,12.75-10.73c2.29-5.6,0.89-14.4,0.91-21.8
			c0.06-19.8-5.62-27.81-19.58-27.81C403.71,64.42,337.51,64.42,271.32,64.42z"/>
	</g>
</g>
<g id="Behance">
	<g>
		<path d="M502.79,31.38c0,151.87,0,303.75,0,455.62c-151.87,0-303.75,0-455.62,0c0-151.78,0-303.56,0-455.62
			C199.43,31.38,351.11,31.38,502.79,31.38z M117.7,160.39c0,64.96,0,129.37,0,194.01c1.97,0,3.58,0,5.2,0
			c27.44,0,54.88,0.24,82.31-0.13c9.72-0.13,19.62-0.82,29.11-2.81c26.16-5.49,45.3-23.68,45.3-52.41c0-16.66-4.4-31.47-18.36-41.81
			c-4.77-3.53-10.47-5.82-15.79-8.71c0.18-0.14,0.56-0.6,1.06-0.85c18.55-9.41,25.64-24.9,23.99-45.06
			c-1.47-17.93-10.06-30.65-27.23-37c-11.72-4.33-23.99-5.17-36.33-5.2c-21.5-0.06-43.01-0.02-64.51-0.02
			C134.29,160.39,126.16,160.39,117.7,160.39z M433.28,293.44c-0.93-9.59-1.07-18.65-2.8-27.4c-6.53-33.07-30.83-55.85-64.74-56
			c-25.32-0.11-45.92,9.21-60.53,30.19c-11.47,16.48-14.35,35.22-12.22,54.75c2.12,19.4,9.63,36.39,25.48,48.6
			c23.46,18.08,61.73,19.47,86.72,3.27c13.05-8.46,19.96-21.26,24.53-36.02c-9.65,0-18.84,0.16-28.02-0.08
			c-3.73-0.1-6.26,0.55-7.94,4.36c-1.02,2.3-3.25,4.2-5.25,5.92c-8.84,7.66-19.34,9.02-30.47,7.58
			c-17.77-2.3-27.38-16.62-26.3-35.16C365.07,293.44,398.4,293.44,433.28,293.44z M401.54,173.69c-26.17,0-52.05,0-78.07,0
			c0,6.38,0,12.49,0,18.51c26.23,0,52.1,0,78.07,0C401.54,185.89,401.54,179.88,401.54,173.69z"/>
		<path d="M160.44,268.71c18.26,0,36.38-1.19,54.26,0.36c15.8,1.37,22.43,10.92,22.28,26.74c-0.13,14.22-7.69,23.17-22.07,24.61
			c-10.27,1.03-20.68,0.79-31.03,0.96c-7.68,0.13-15.37,0.03-23.43,0.03C160.44,303.65,160.44,286.14,160.44,268.71z"/>
		<path d="M160.06,238.74c0-14.69,0-28.75,0.01-42.8c0-0.7,0.15-1.41,0.27-2.55c8.44,0,16.7-0.19,24.94,0.05
			c9.14,0.27,18.42,0.09,27.38,1.65c11.49,1.99,16.93,9.81,16.65,21.17c-0.29,11.8-6.07,19.13-17.32,21.43
			c-3.73,0.76-7.63,0.97-11.46,1.01C187.24,238.81,173.94,238.74,160.06,238.74z"/>
		<path d="M393.42,268.86c-20.79,0-41.34,0-61.89,0c-0.1-13.67,9.72-29.54,31.36-29.83C380.51,238.79,392.58,250.18,393.42,268.86z"
			/>
	</g>
</g>
</svg>
