<?xml version="1.0" encoding="utf-8"?>
<!-- Generator: Adobe Illustrator 23.0.3, SVG Export Plug-In . SVG Version: 6.00 Build 0)  -->
<svg version="1.1" xmlns="http://www.w3.org/2000/svg" xmlns:xlink="http://www.w3.org/1999/xlink" x="0px" y="0px"
	 viewBox="0 0 541 512" style="enable-background:new 0 0 541 512;" xml:space="preserve">
<style type="text/css">
	.st0{display:none;}
	.st1{display:inline;}
</style>
<g id="Instagram">
	<path d="M197.81,7c49.93,0,99.86,0,149.79,0c2.9,0.27,5.81,0.54,8.71,0.8c18.81,1.7,37.96,1.72,56.37,5.43
		c48.74,9.8,82.69,38.1,99.83,85.37c8.29,22.86,10.21,46.76,10.28,70.8c0.18,57.43,0.44,114.87-0.17,172.29
		c-0.19,18.18-1.45,36.64-4.93,54.44c-9.37,47.99-36.81,81.93-82.84,99.86c-22.2,8.65-45.6,10.95-69.16,11.19
		c-52.85,0.53-105.72,1.03-158.57,0.74c-26.04-0.14-52.22-0.24-77.84-6.46c-41.48-10.07-72.3-33.58-90.63-72.43
		c-11.28-23.9-14.72-49.62-15-75.71c-0.57-54.16-1.17-108.33-0.74-162.49c0.18-22.77,1.56-45.72,4.88-68.22
		c5.18-35.07,22.08-64.18,50.76-85.7C103.15,18.46,131.62,11.13,161.72,9C173.74,8.15,185.78,7.65,197.81,7z M273.3,463.97
		c0.01-0.26,0.01-0.51,0.02-0.77c13.22,0,26.45,0.39,39.65-0.08c28.34-1.02,56.88-0.76,84.94-4.18
		c37.03-4.52,62.39-25.48,73.59-61.9c5.14-16.7,6.02-34.02,6.22-51.31c0.52-44.37,1.15-88.75,0.75-133.12
		c-0.23-26.38-0.9-52.92-3.91-79.09c-4.63-40.26-30.15-67.56-69.81-75.46c-17.3-3.44-35.27-4.46-52.97-4.76
		c-43.71-0.73-87.45-0.6-131.17-0.45c-25.1,0.08-50.27-0.24-75.15,4.13c-38.02,6.68-64.09,30.78-71.85,68.61
		c-3.35,16.33-4.46,33.3-4.82,50.01c-0.86,40.29-1.17,80.6-0.73,120.89c0.31,28.19,1.13,56.46,3.76,84.5
		c2.44,26.04,14.36,47.95,36.49,63.17c17.08,11.75,36.62,16.25,56.88,17.02C201.21,462.54,237.26,463.08,273.3,463.97z"/>
	<path d="M144.35,257.81c-0.24-70.89,57.68-128.83,128.78-128.84c71.01-0.01,128.24,57.05,128.73,128.33
		c0.48,70.84-57.27,128.91-128.47,129.16C202.47,386.71,144.59,329,144.35,257.81z M272.87,341.1c46.24,0.13,83.48-36.82,83.7-83.03
		c0.21-46.21-36.72-83.55-82.91-83.82c-46.4-0.27-83.84,36.87-83.94,83.28C189.61,303.71,226.69,340.97,272.87,341.1z"/>
	<path d="M407.68,93.89c16.82,0.33,29.69,13.91,29.25,30.86c-0.43,16.51-13.95,29.37-30.61,29.1
		c-16.55-0.27-29.71-14.15-29.34-30.95C377.35,106.51,391.04,93.56,407.68,93.89z"/>
</g>
<g id="Twitter" class="st0">
	<g class="st1">
		<path d="M590,907.25c0-111.75,0-223.5,0-335.25c0.94-0.23,0.89-1.11,1.09-1.77c3.31-10.79,10.35-17.83,21.14-21.14
			c0.66-0.2,1.54-0.16,1.77-1.09c111.75,0,223.5,0,335.25,0c0.13,0.19,0.22,0.51,0.4,0.57C967.4,554.45,974,563.6,974,582.38
			c0,105.2,0,210.41,0,315.61c0,1.5,0.02,3-0.03,4.5c-0.38,13.27-9.04,24.44-21.79,28.29c-0.98,0.29-2.33-0.07-2.93,1.22
			c-111.5,0-223,0-334.5,0c-0.39-0.25-0.75-0.63-1.18-0.75c-12.01-3.22-19.63-10.79-22.82-22.82
			C590.63,908,590.25,907.64,590,907.25z M904.61,663.71c-8.27,3.07-16.59,5.9-25.65,6.43c9.42-6.87,16.37-15.44,20.33-27.29
			c-9.45,5.4-18.69,9.02-28.4,11.47c-2.46,0.62-4.24,0.4-6.29-1.56c-21.93-20.84-57.64-17.62-75.61,6.72
			c-8.51,11.53-11.54,24.49-9.45,38.59c0.45,3-0.14,3.75-3.14,3.23c-3.81-0.65-7.72-0.65-11.53-1.29
			c-32.59-5.47-60.42-19.98-83.14-44.08c-2.25-2.39-4.43-4.86-6.83-7.51c-5.38,9.28-7.59,18.89-6.8,29.1
			c1.23,15.76,8.42,28.41,21.86,38.66c-7.63-0.04-13.64-1.78-19.34-4.57c-2.68-1.31-3.08-0.67-2.89,2.03
			c1,14.75,7.22,26.82,18.41,36.38c6.07,5.19,13.19,8.42,21.72,10.79c-7.87,2.09-14.88,1.9-22.3,1.02
			c3.54,10.52,9.53,18.6,17.89,24.95c8.43,6.4,18.09,9.61,29.43,10.45c-22.22,16.84-46.58,23.2-73.78,21.3
			c0.64,0.74,0.74,0.94,0.91,1.04c0.95,0.59,1.91,1.18,2.89,1.74c20.1,11.7,41.74,18.28,64.99,19.47
			c27.53,1.41,54.04-3.08,77.99-16.96c50.02-28.98,74.08-73.4,75.14-130.73c0.05-2.81,0.82-4.44,3.02-6.15
			c8.21-6.4,15.56-13.66,21.04-22.63c0.16-0.17,0.5-0.41,0.47-0.48C905.33,663.35,904.96,663.54,904.61,663.71z"/>
	</g>
</g>
<g id="FB" class="st0">
	<path class="st1" d="M602.72,473.66c0-111.91,0-223.83,0-335.74c1.98-10.81,8.41-17.34,19.06-19.79c112.4,0,224.8,0,337.21,0
		c10.69,2.42,17.06,9.01,19.06,19.79c0,111.91,0,223.83,0,335.74c-2.08,11.11-8.69,17.7-19.79,19.79c-32.01,0-64.02,0-96.03,0
		c0.08-1.7,0.24-3.41,0.24-5.11c0.01-45.08,0.05-90.15-0.06-135.23c-0.01-3.44,0.8-4.64,4.44-4.58c13.68,0.21,27.36,0.03,41.04,0.13
		c2.61,0.02,3.52-0.75,3.84-3.45c1.47-12.45,3.26-24.86,4.87-37.29c0.71-5.5,1.25-11.01,1.93-17.03c-2.13,0-3.56,0-4.99,0
		c-15.76,0-31.52-0.03-47.27,0.03c-2.41,0.01-3.87-0.27-3.83-3.3c0.15-12.46-0.06-24.92,0.15-37.38c0.18-11.2,5.74-18.31,15.99-20.8
		c2.7-0.66,5.53-0.99,8.31-1.03c9.89-0.13,19.79-0.13,29.68-0.02c2.8,0.03,3.9-0.83,3.88-3.76c-0.11-14.9-0.07-29.81-0.03-44.71
		c0.01-2.13-0.42-3.41-2.96-3.54c-7.3-0.36-14.59-0.85-21.88-1.45c-12.2-1-24.39-1.35-36.47,0.89
		c-22.73,4.21-39.75,16.13-49.42,37.57c-4.84,10.72-6.74,22.13-6.99,33.78c-0.27,12.94-0.07,25.9-0.08,38.84
		c0,4.87-0.01,4.88-4.73,4.88c-13.19,0.01-26.39,0.08-39.58-0.06c-3.11-0.03-4.25,0.75-4.22,4.09c0.16,16.61,0.07,33.23,0.08,49.84
		c0,1.18,0.14,2.35,0.23,3.87c1.62,0,2.94,0,4.26,0c13.07,0,26.14,0,39.21,0c4.73,0,4.74,0,4.74,4.86c0,44.95,0,89.91,0.01,134.86
		c0,1.7,0.16,3.41,0.24,5.11c-60.11,0-120.22,0-180.33,0C611.4,491.37,604.79,484.78,602.72,473.66z"/>
</g>
<g id="Mail" class="st0">
	<g class="st1">
		<path d="M1054.06,147.31c0-7.99-0.56-16.09,2.48-22.84c7.61-16.91,24.76-17.59,38.71-17.59c37.08,0.01,74.16,0,111.24,0
			c70.62,0,141.24-0.02,211.86,0.01c18.28,0.01,31.43,6.06,36.72,29.12c1.32,5.78,1.53,13.13,1.54,19.21
			c0.13,91.58,0.14,183.17,0.06,274.75c-0.03,30.82-6.55,41.03-35.12,45.86c-0.92,0.05-1.83,0.03-2.75,0.03
			c-107.31,0-214.61,0.01-321.92-0.01c-17.22,0.92-37.03-0.73-41.98-22.18c-1.01-4.36,0.13-11.3-0.83-15.76
			C1054.06,341.05,1054.06,244.18,1054.06,147.31z M1432.35,217.47c-2.59,1.9-4.55,3.32-6.49,4.78
			c-49.07,36.69-98.13,73.41-147.21,110.06c-15.03,11.23-30.12,11.07-45.14-0.17c-49.87-37.31-99.75-74.63-149.62-111.94
			c-1.12-0.84-2.28-1.56-3.83-2.63c0,2.62,0,4.47,0,6.32c0,67.76,0,135.51,0,203.27c0,14.89,4.73,21.74,15.08,21.74
			c107.32,0.01,214.64,0.01,321.95,0c10.66,0,15.26-6.67,15.26-22.03c0-67.57,0-135.14,0-202.71
			C1432.35,222.29,1432.35,220.42,1432.35,217.47z M1256.53,136.33c-53.34,0-106.68,0-160.03,0c-1.44,0-2.89-0.09-4.32,0.08
			c-7.23,0.86-11.98,8.12-12.12,18.54c-0.06,4.88,0.3,9.81-0.09,14.63c-0.46,5.59,1.22,8.13,4.55,10.61
			c52.61,39.15,105.21,78.33,157.64,117.99c9.78,7.4,18.46,7.32,28.19-0.04c50.23-37.99,100.64-75.5,150.97-113.19
			c3.59-2.69,8.52-4.36,10.27-8.65c1.85-4.51,0.72-11.6,0.74-17.57c0.05-15.95-4.53-22.41-15.78-22.41
			C1363.21,136.32,1309.87,136.33,1256.53,136.33z"/>
	</g>
</g>
<g id="Behance" class="st0">
	<g class="st1">
		<path d="M400.79,658.38c0,124.21,0,248.41,0,372.62c-124.21,0-248.41,0-372.62,0c0-124.13,0-248.26,0-372.62
			C152.7,658.38,276.74,658.38,400.79,658.38z M85.85,763.89c0,53.13,0,105.8,0,158.67c1.61,0,2.93,0,4.25,0
			c22.44,0,44.88,0.19,67.32-0.1c7.95-0.11,16.04-0.67,23.8-2.3c21.39-4.49,37.05-19.37,37.05-42.87c0-13.62-3.6-25.74-15.02-34.19
			c-3.9-2.89-8.56-4.76-12.91-7.12c0.14-0.12,0.46-0.49,0.86-0.7c15.17-7.69,20.97-20.36,19.62-36.85
			c-1.2-14.67-8.23-25.07-22.27-30.26c-9.59-3.55-19.62-4.22-29.72-4.25c-17.59-0.05-35.17-0.01-52.76-0.01
			C99.42,763.89,92.77,763.89,85.85,763.89z M343.94,872.7c-0.76-7.84-0.88-15.25-2.29-22.41c-5.34-27.05-25.22-45.68-52.95-45.8
			c-20.71-0.09-37.56,7.53-49.5,24.69c-9.38,13.48-11.74,28.8-9.99,44.77c1.74,15.87,7.88,29.76,20.84,39.74
			c19.19,14.78,50.48,15.92,70.92,2.67c10.67-6.92,16.32-17.38,20.06-29.46c-7.89,0-15.41,0.13-22.91-0.06
			c-3.05-0.08-5.12,0.45-6.49,3.56c-0.83,1.88-2.66,3.43-4.29,4.84c-7.23,6.27-15.82,7.38-24.92,6.2
			c-14.53-1.88-22.39-13.59-21.51-28.76C288.16,872.7,315.42,872.7,343.94,872.7z M317.98,774.76c-21.41,0-42.57,0-63.85,0
			c0,5.22,0,10.22,0,15.14c21.45,0,42.61,0,63.85,0C317.98,784.74,317.98,779.83,317.98,774.76z"/>
		<path d="M120.8,852.47c14.93,0,29.75-0.97,44.38,0.29c12.93,1.12,18.34,8.93,18.22,21.87c-0.11,11.63-6.29,18.95-18.05,20.13
			c-8.4,0.84-16.91,0.64-25.38,0.79c-6.28,0.11-12.57,0.02-19.16,0.02C120.8,881.05,120.8,866.73,120.8,852.47z"/>
		<path d="M120.5,827.96c0-12.02,0-23.51,0.01-35.01c0-0.58,0.12-1.15,0.22-2.08c6.9,0,13.65-0.16,20.4,0.04
			c7.48,0.22,15.07,0.07,22.39,1.35c9.39,1.63,13.85,8.02,13.61,17.32c-0.24,9.65-4.97,15.65-14.16,17.53
			c-3.05,0.63-6.24,0.8-9.37,0.82C142.72,828.02,131.84,827.96,120.5,827.96z"/>
		<path d="M311.35,852.6c-17,0-33.81,0-50.62,0c-0.08-11.18,7.95-24.16,25.65-24.4C300.78,828.01,310.66,837.32,311.35,852.6z"/>
	</g>
</g>
</svg>
