<?xml version="1.0" encoding="utf-8"?>
<!-- Generator: Adobe Illustrator 23.0.3, SVG Export Plug-In . SVG Version: 6.00 Build 0)  -->
<svg version="1.1" xmlns="http://www.w3.org/2000/svg" xmlns:xlink="http://www.w3.org/1999/xlink" x="0px" y="0px"
	 viewBox="0 0 541 512" style="enable-background:new 0 0 541 512;" xml:space="preserve">
<style type="text/css">
	.st0{display:none;}
	.st1{display:inline;fill:#F2F2F2;}
	.st2{display:inline;}
	.st3{fill:#F2F2F2;}
	.st4{clip-path:url(#SVGID_2_);fill:#F2F2F2;}
</style>
<g id="Instagram" class="st0">
	<path class="st1" d="M197.81,7c49.93,0,99.86,0,149.79,0c2.9,0.27,5.81,0.54,8.71,0.8c18.81,1.7,37.96,1.72,56.37,5.43
		c48.74,9.8,82.69,38.1,99.83,85.37c8.29,22.86,10.21,46.76,10.28,70.8c0.18,57.43,0.44,114.87-0.17,172.29
		c-0.19,18.18-1.45,36.64-4.93,54.44c-9.37,47.99-36.81,81.93-82.84,99.86c-22.2,8.65-45.6,10.95-69.16,11.19
		c-52.85,0.53-105.72,1.03-158.57,0.74c-26.04-0.14-52.22-0.24-77.84-6.46c-41.48-10.07-72.3-33.58-90.63-72.43
		c-11.28-23.9-14.72-49.62-15-75.71c-0.57-54.16-1.17-108.33-0.74-162.49c0.18-22.77,1.56-45.72,4.88-68.22
		c5.18-35.07,22.08-64.18,50.76-85.7C103.15,18.46,131.62,11.13,161.72,9C173.74,8.15,185.78,7.65,197.81,7z M273.3,463.97
		c0.01-0.26,0.01-0.51,0.02-0.77c13.22,0,26.45,0.39,39.65-0.08c28.34-1.02,56.88-0.76,84.94-4.18
		c37.03-4.52,62.39-25.48,73.59-61.9c5.14-16.7,6.02-34.02,6.22-51.31c0.52-44.37,1.15-88.75,0.75-133.12
		c-0.23-26.38-0.9-52.92-3.91-79.09c-4.63-40.26-30.15-67.56-69.81-75.46c-17.3-3.44-35.27-4.46-52.97-4.76
		c-43.71-0.73-87.45-0.6-131.17-0.45c-25.1,0.08-50.27-0.24-75.15,4.13c-38.02,6.68-64.09,30.78-71.85,68.61
		c-3.35,16.33-4.46,33.3-4.82,50.01c-0.86,40.29-1.17,80.6-0.73,120.89c0.31,28.19,1.13,56.46,3.76,84.5
		c2.44,26.04,14.36,47.95,36.49,63.17c17.08,11.75,36.62,16.25,56.88,17.02C201.21,462.54,237.26,463.08,273.3,463.97z"/>
	<path class="st1" d="M144.35,257.81c-0.24-70.89,57.68-128.83,128.78-128.84c71.01-0.01,128.24,57.05,128.73,128.33
		c0.48,70.84-57.27,128.91-128.47,129.16C202.47,386.71,144.59,329,144.35,257.81z M272.87,341.1c46.24,0.13,83.48-36.82,83.7-83.03
		c0.21-46.21-36.72-83.55-82.91-83.82c-46.4-0.27-83.84,36.87-83.94,83.28C189.61,303.71,226.69,340.97,272.87,341.1z"/>
	<path class="st1" d="M407.68,93.89c16.82,0.33,29.69,13.91,29.25,30.86c-0.43,16.51-13.95,29.37-30.61,29.1
		c-16.55-0.27-29.71-14.15-29.34-30.95C377.35,106.51,391.04,93.56,407.68,93.89z"/>
</g>
<g id="Twitter" class="st0">
	<g class="st2">
		<path class="st3" d="M33,463c0-139.98,0-279.96,0-419.94c1.17-0.29,1.11-1.39,1.37-2.22c4.14-13.52,12.97-22.33,26.48-26.48
			c0.83-0.25,1.92-0.2,2.22-1.37c139.98,0,279.96,0,419.94,0c0.16,0.24,0.28,0.64,0.5,0.71c22.23,7.36,30.5,18.83,30.5,42.35
			c0,131.78,0,263.56,0,395.33c0,1.88,0.02,3.76-0.03,5.63c-0.47,16.62-11.32,30.61-27.3,35.44c-1.22,0.37-2.92-0.09-3.67,1.53
			c-139.67,0-279.33,0-419,0c-0.49-0.32-0.94-0.79-1.48-0.94c-15.04-4.03-24.59-13.52-28.59-28.59C33.79,463.94,33.32,463.49,33,463
			z M427.09,157.94c-10.35,3.85-20.78,7.39-32.13,8.05c11.79-8.61,20.5-19.34,25.46-34.19c-11.84,6.76-23.41,11.3-35.58,14.37
			c-3.08,0.78-5.31,0.49-7.88-1.95c-27.47-26.1-72.2-22.08-94.71,8.42c-10.66,14.44-14.46,30.67-11.84,48.34
			c0.56,3.76-0.17,4.69-3.94,4.05c-4.77-0.82-9.67-0.82-14.45-1.62c-40.82-6.86-75.68-25.02-104.14-55.22
			c-2.82-3-5.55-6.09-8.55-9.4c-6.74,11.62-9.51,23.67-8.51,36.45c1.54,19.74,10.55,35.59,27.38,48.43
			c-9.55-0.05-17.08-2.23-24.22-5.73c-3.35-1.64-3.86-0.84-3.63,2.54c1.26,18.48,9.04,33.59,23.06,45.56
			c7.61,6.5,16.52,10.55,27.21,13.52c-9.86,2.62-18.64,2.38-27.94,1.28c4.43,13.17,11.94,23.3,22.41,31.26
			c10.56,8.02,22.66,12.04,36.87,13.09c-27.84,21.09-58.35,29.07-92.41,26.68c0.8,0.93,0.93,1.17,1.13,1.3
			c1.19,0.74,2.4,1.47,3.61,2.18c25.18,14.66,52.28,22.9,81.4,24.39c34.49,1.77,67.69-3.86,97.69-21.24
			c62.65-36.3,92.79-91.94,94.12-163.75c0.07-3.52,1.03-5.56,3.78-7.71c10.28-8.02,19.49-17.12,26.35-28.35
			c0.21-0.21,0.63-0.51,0.58-0.61C427.98,157.49,427.51,157.73,427.09,157.94z"/>
	</g>
</g>
<g id="FB" class="st0">
	<path class="st1" d="M30.72,474.9c0-147.56,0-295.12,0-442.68C33.32,17.97,41.8,9.37,55.85,6.13c148.2,0,296.41,0,444.61,0
		c14.1,3.19,22.49,11.87,25.13,26.1c0,147.56,0,295.12,0,442.68c-2.75,14.65-11.45,23.34-26.1,26.1c-42.21,0-84.41,0-126.62,0
		c0.11-2.24,0.31-4.49,0.32-6.73c0.02-59.43,0.06-118.87-0.08-178.3c-0.01-4.53,1.05-6.11,5.86-6.04
		c18.03,0.28,36.08,0.04,54.12,0.17c3.43,0.03,4.64-0.99,5.06-4.55c1.94-16.41,4.3-32.78,6.42-49.17
		c0.94-7.25,1.65-14.52,2.54-22.46c-2.81,0-4.7,0-6.59,0c-20.78,0-41.55-0.04-62.33,0.04c-3.18,0.01-5.1-0.35-5.05-4.35
		c0.2-16.43-0.08-32.86,0.19-49.28c0.24-14.77,7.57-24.15,21.08-27.43c3.56-0.86,7.29-1.31,10.96-1.36
		c13.04-0.17,26.09-0.17,39.14-0.03c3.69,0.04,5.15-1.1,5.12-4.96c-0.14-19.65-0.09-39.3-0.04-58.95c0.01-2.8-0.55-4.5-3.9-4.67
		c-9.62-0.48-19.24-1.13-28.85-1.91c-16.08-1.32-32.16-1.78-48.09,1.17c-29.97,5.55-52.41,21.27-65.16,49.54
		c-6.38,14.14-8.89,29.18-9.21,44.54c-0.36,17.07-0.1,34.14-0.11,51.22c0,6.43-0.01,6.44-6.23,6.44
		c-17.39,0.01-34.79,0.11-52.18-0.07c-4.1-0.04-5.6,0.99-5.56,5.39c0.22,21.9,0.09,43.81,0.11,65.71c0,1.55,0.18,3.1,0.3,5.1
		c2.13,0,3.87,0,5.61,0c17.23,0,34.47,0,51.7,0c6.24,0,6.24,0.01,6.24,6.41c0,59.27,0,118.54,0.02,177.82
		c0,2.25,0.21,4.49,0.32,6.74c-79.26,0-158.51,0-237.77,0C42.16,498.25,33.46,489.56,30.72,474.9z"/>
</g>
<g id="Mail" class="st0">
	<g class="st2">
		<path class="st3" d="M20.07,78.05c0-9.92-0.7-19.97,3.07-28.35c9.45-20.98,30.73-21.83,48.03-21.82c46.01,0.01,92.03,0,138.04,0
			c87.64,0,175.27-0.02,262.91,0.01c22.68,0.01,39,7.52,45.56,36.14c1.64,7.17,1.9,16.3,1.91,23.84
			c0.16,113.65,0.18,227.3,0.07,340.95c-0.03,38.25-8.13,50.91-43.59,56.91c-1.14,0.06-2.28,0.04-3.41,0.04
			c-133.16,0-266.32,0.01-399.48-0.01c-21.37,1.14-45.95-0.91-52.09-27.53c-1.25-5.41,0.16-14.03-1.02-19.56
			C20.07,318.47,20.07,198.26,20.07,78.05z M489.5,165.11c-3.21,2.36-5.64,4.13-8.06,5.93c-60.89,45.53-121.77,91.09-182.68,136.57
			c-18.66,13.93-37.38,13.74-56.02-0.21c-61.89-46.3-123.78-92.61-185.67-138.91c-1.39-1.04-2.82-1.94-4.76-3.26
			c0,3.25,0,5.54,0,7.84c0,84.08,0,168.16,0,252.24c0,18.48,5.87,26.97,18.71,26.98c133.17,0.01,266.35,0.01,399.52,0
			c13.23,0,18.94-8.27,18.94-27.34c0-83.85,0-167.7,0-251.55C489.5,171.1,489.5,168.78,489.5,165.11z M271.32,64.42
			c-66.19,0-132.39,0-198.58,0c-1.79,0-3.59-0.11-5.36,0.1C58.4,65.6,52.51,74.6,52.34,87.53c-0.08,6.05,0.37,12.18-0.12,18.15
			c-0.57,6.94,1.51,10.09,5.65,13.17c65.29,48.58,130.56,97.21,195.62,146.42c12.14,9.18,22.91,9.08,34.98-0.05
			c62.33-47.15,124.88-93.69,187.35-140.46c4.45-3.33,10.57-5.41,12.75-10.73c2.29-5.6,0.89-14.4,0.91-21.8
			c0.06-19.8-5.62-27.81-19.58-27.81C403.71,64.42,337.51,64.42,271.32,64.42z"/>
	</g>
</g>
<g id="Behance" class="st0">
	<g class="st2">
		<path class="st3" d="M502.79,31.38c0,151.87,0,303.75,0,455.62c-151.87,0-303.75,0-455.62,0c0-151.78,0-303.56,0-455.62
			C199.43,31.38,351.11,31.38,502.79,31.38z M117.7,160.39c0,64.96,0,129.37,0,194.01c1.97,0,3.58,0,5.2,0
			c27.44,0,54.88,0.24,82.31-0.13c9.72-0.13,19.62-0.82,29.11-2.81c26.16-5.49,45.3-23.68,45.3-52.41c0-16.66-4.4-31.47-18.36-41.81
			c-4.77-3.53-10.47-5.82-15.79-8.71c0.18-0.14,0.56-0.6,1.06-0.85c18.55-9.41,25.64-24.9,23.99-45.06
			c-1.47-17.93-10.06-30.65-27.23-37c-11.72-4.33-23.99-5.17-36.33-5.2c-21.5-0.06-43.01-0.02-64.51-0.02
			C134.29,160.39,126.16,160.39,117.7,160.39z M433.28,293.44c-0.93-9.59-1.07-18.65-2.8-27.4c-6.53-33.07-30.83-55.85-64.74-56
			c-25.32-0.11-45.92,9.21-60.53,30.19c-11.47,16.48-14.35,35.22-12.22,54.75c2.12,19.4,9.63,36.39,25.48,48.6
			c23.46,18.08,61.73,19.47,86.72,3.27c13.05-8.46,19.96-21.26,24.53-36.02c-9.65,0-18.84,0.16-28.02-0.08
			c-3.73-0.1-6.26,0.55-7.94,4.36c-1.02,2.3-3.25,4.2-5.25,5.92c-8.84,7.66-19.34,9.02-30.47,7.58
			c-17.77-2.3-27.38-16.62-26.3-35.16C365.07,293.44,398.4,293.44,433.28,293.44z M401.54,173.69c-26.17,0-52.05,0-78.07,0
			c0,6.38,0,12.49,0,18.51c26.23,0,52.1,0,78.07,0C401.54,185.89,401.54,179.88,401.54,173.69z"/>
		<path class="st3" d="M160.44,268.71c18.26,0,36.38-1.19,54.26,0.36c15.8,1.37,22.43,10.92,22.28,26.74
			c-0.13,14.22-7.69,23.17-22.07,24.61c-10.27,1.03-20.68,0.79-31.03,0.96c-7.68,0.13-15.37,0.03-23.43,0.03
			C160.44,303.65,160.44,286.14,160.44,268.71z"/>
		<path class="st3" d="M160.06,238.74c0-14.69,0-28.75,0.01-42.8c0-0.7,0.15-1.41,0.27-2.55c8.44,0,16.7-0.19,24.94,0.05
			c9.14,0.27,18.42,0.09,27.38,1.65c11.49,1.99,16.93,9.81,16.65,21.17c-0.29,11.8-6.07,19.13-17.32,21.43
			c-3.73,0.76-7.63,0.97-11.46,1.01C187.24,238.81,173.94,238.74,160.06,238.74z"/>
		<path class="st3" d="M393.42,268.86c-20.79,0-41.34,0-61.89,0c-0.1-13.67,9.72-29.54,31.36-29.83
			C380.51,238.79,392.58,250.18,393.42,268.86z"/>
	</g>
</g>
<g id="Behance_1_" class="st0">
	<g class="st2">
		<defs>
			<circle id="SVGID_1_" cx="275.5" cy="256.5" r="249.5"/>
		</defs>
		<clipPath id="SVGID_2_">
			<use xlink:href="#SVGID_1_"  style="overflow:visible;"/>
		</clipPath>
		<path class="st4" d="M23,278.21c0-13.81,0-27.62,0-41.43c1.51-0.56,0.9-1.92,1.06-2.95c1.39-9.24,2.25-18.59,4.19-27.72
			C50.53,101.41,133.19,23.89,239.63,7.57c5.06-0.78,10.33-0.43,15.16-2.57c13.48,0,26.96,0,40.44,0c0.3,1.04,1.18,0.93,1.97,0.98
			c9.83,0.69,19.56,2.21,29.21,4.13C429.29,30.64,511.06,117.3,525.3,220.65c0.79,5.72,0.62,11.61,2.7,17.13
			c0,13.48,0,26.96,0,40.44c-1.28,0.42-0.95,1.55-1.04,2.46c-0.89,9.31-2.24,18.57-4.07,27.74
			C502.38,411.26,415.7,493.06,312.35,507.3c-5.72,0.79-11.61,0.62-17.13,2.7c-13.48,0-26.96,0-40.44,0
			c-0.56-1.51-1.92-0.9-2.95-1.06c-9.24-1.39-18.59-2.25-27.72-4.19C119.41,482.47,41.89,399.81,25.57,293.37
			C24.8,288.31,25.14,283.04,23,278.21z M244.85,147.2c-39.81,0.56-74.42,3.86-108.64,10.82c-5.95,1.21-11.89,2.46-17.78,3.91
			c-14.88,3.66-23.42,16.8-20.02,30.62c3.39,13.78,16.6,21.65,31.27,18.28c16.01-3.68,32.1-6.73,48.39-8.88
			c41.91-5.55,83.84-6.28,125.78-0.67c41.84,5.59,81.79,17.15,118.65,38.27c3.26,1.87,6.66,3.57,10.48,4.07
			c12.63,1.65,23.78-4.83,27.85-16.18c4.13-11.53-0.5-23.87-11.72-30.43c-17.46-10.21-35.79-18.57-54.82-25.45
			C344.41,153.54,292.7,147.1,244.85,147.2z M242.24,235.89c-13.5-0.05-26.94,0.76-40.37,1.93c-20.97,1.82-41.72,5.09-62.16,10.13
			c-12.34,3.05-18.88,13.67-16.03,25.26c2.66,10.85,13.57,17.27,25.4,14.54c41.45-9.56,83.33-13.04,125.76-9.51
			c26.3,2.19,51.94,7.49,76.83,16.3c13.18,4.67,25.57,11.02,37.95,17.48c11.11,5.8,22.87,2.09,28.33-8.24
			c5.28-9.99,1.47-21.58-9.16-27.72c-7.39-4.27-14.98-8.15-22.76-11.69C340.33,243.58,291.99,236.17,242.24,235.89z M231.48,313.42
			c-23.15-0.13-51.95,3.25-80.32,10.07c-10.56,2.54-16.02,11.09-13.83,20.85c2.15,9.56,11.11,15.05,21.63,12.65
			c17.8-4.06,35.78-6.9,53.98-8.17c34.64-2.41,68.89-0.31,102.45,9.35c16.79,4.83,32.54,11.99,48.01,20.02
			c8.27,4.3,18.07,0.56,22.36-7.49c4.27-8.03,1.64-17.98-6.51-22.69c-6.8-3.93-13.82-7.56-20.99-10.78
			C319.86,320,279.37,313.24,231.48,313.42z"/>
	</g>
</g>
<g id="Capa_7">
	<path d="M21.64,300.38c1.01-6.61,1.97-13.22,3.04-19.82c0.37-2.29,0.99-4.55,1.5-6.82c0.54-0.03,1.08-0.05,1.62-0.08
		c0.61,1.32,1.54,2.59,1.78,3.97c1.36,7.92,3.69,15.89,3.54,23.79c-0.2,10.24-2.38,20.45-3.84,30.65c-0.1,0.69-1.29,1.22-1.98,1.82
		c-0.7-0.97-1.85-1.87-2.02-2.93c-1-6.31-1.75-12.67-2.66-19c-0.18-1.25-0.65-2.46-0.98-3.69
		C21.64,305.65,21.64,303.01,21.64,300.38z"/>
	<path d="M441.54,241.92c13.23-5.14,26.27-6.14,39.6-2.69c29.01,7.52,49.02,36.17,46.31,66.39c-2.79,31.08-27.41,55.38-58.03,57.26
		c-2.79,0.17-5.59,0.3-8.39,0.3c-54.51-0.04-109.01-0.09-163.52-0.15c-9.34-0.01-11.26-1.92-11.26-11.27
		c-0.01-64.22-0.01-128.45,0-192.67c0-7.88,0.88-9.07,8.45-11.71c67.46-23.52,137.17,19.91,146.08,90.99
		C440.89,239.32,441.18,240.26,441.54,241.92z"/>
	<path d="M264.61,258.74c0.66-31.28,1.32-62.57,2-93.85c0.13-6.01,2.37-9.11,6.61-9.23c4.44-0.13,7.03,3.11,7.16,9.33
		c0.76,35.73,1.04,71.48,2.36,107.19c1.01,27.23-0.73,54.3-2.29,81.42c-0.33,5.71-2.56,8.7-6.57,9c-3.82,0.29-7.03-2.56-7.19-7.1
		c-0.9-25.33-1.69-50.66-2.41-75.99c-0.2-6.91-0.03-13.83-0.03-20.75C264.38,258.74,264.49,258.74,264.61,258.74z"/>
	<path d="M261.72,265.32c-0.99,29.75-1.96,59.51-3,89.26c-0.19,5.48-2.51,8.21-6.53,8.22c-4.03,0.01-6.01-2.57-6.44-8.2
		c-2.72-36-2.27-72.03-1.42-108.07c0.54-23.04,0.97-46.08,1.47-69.12c0.04-1.64-0.37-3.74,0.46-4.82c1.46-1.89,3.61-4.14,5.69-4.39
		c1.8-0.21,4.38,1.78,5.72,3.49c1.05,1.34,0.97,3.75,1.01,5.69c0.63,29.29,1.2,58.59,1.78,87.89
		C260.88,265.29,261.3,265.31,261.72,265.32z"/>
	<path d="M240.27,276.08c-1.09,26.29-2.16,52.58-3.28,78.87c-0.16,3.85-1.09,7.35-5.83,7.74c-3.86,0.32-5.9-2.11-6.35-7.62
		c-3.11-37.81-2.42-75.66-1.13-113.51c0.49-14.48,0.76-28.97,1.17-43.45c0.05-1.64-0.23-3.64,0.58-4.82
		c1.18-1.73,3.13-3.83,4.92-3.99c1.78-0.16,4.18,1.51,5.52,3.06c1.02,1.17,1.04,3.4,1.09,5.17c0.74,26.17,1.42,52.34,2.11,78.51
		C239.45,276.05,239.86,276.06,240.27,276.08z"/>
	<path d="M202.01,272.83c0.67-25.98,1.33-51.97,2-77.95c0.04-1.48-0.34-3.31,0.38-4.35c1.32-1.93,3.28-4.66,5.04-4.71
		c1.84-0.05,3.87,2.55,5.56,4.25c0.53,0.53,0.28,1.89,0.3,2.88c1.02,35.52,2.55,71.03,2.84,106.56c0.15,19.04-1.79,38.1-2.9,57.14
		c-0.2,3.47-1.89,6.12-5.82,5.97c-3.96-0.16-5.17-3.04-5.31-6.46c-1.16-27.75-2.28-55.51-3.41-83.26
		C201.13,272.87,201.57,272.85,202.01,272.83z"/>
	<path d="M181.64,253.51c0.64-21.21,1.3-42.42,1.9-63.63c0.1-3.58,0.68-6.96,5.06-6.98c4.33-0.02,5.05,3.31,5.16,6.91
		c1.19,37.48,2.99,74.96,3.39,112.45c0.19,18.36-2.21,36.75-3.46,55.12c-0.22,3.23-1.8,5.37-5.24,5.27
		c-3.49-0.1-4.66-2.47-4.88-5.64c-1.99-28.55-4.05-57.09-2.43-85.75c0.33-5.9,0.05-11.83,0.05-17.75
		C181.33,253.52,181.48,253.51,181.64,253.51z"/>
	<path d="M175.78,255.91c0,18.92,0.39,37.84-0.13,56.74c-0.39,14.46-1.92,28.9-2.97,43.34c-0.24,3.27-0.83,6.68-5.04,6.55
		c-4.15-0.13-4.4-3.51-4.74-6.8c-5.16-49.66-1.6-99.33-0.21-149c0.13-4.61,0.21-9.22,0.31-13.83c0.07-3.16,1.26-5.74,4.68-5.84
		c3.51-0.11,4.74,2.59,4.86,5.66c0.43,10.53,0.91,21.06,1.09,31.59c0.18,10.53,0.04,21.06,0.04,31.59
		C174.38,255.91,175.08,255.91,175.78,255.91z"/>
	<path d="M153.83,263.41c2.95,26.59,0.73,58.45-2.04,90.3c-0.14,1.64,0.06,3.52-0.68,4.85c-0.9,1.62-2.64,3.83-4.02,3.84
		c-1.38,0-3.77-2.27-3.97-3.78c-0.94-7.17-1.16-14.43-1.85-21.64c-4.27-44.64,0.77-89.18,1.41-133.76c0.01-0.82-0.18-1.87,0.24-2.42
		c1.25-1.63,2.75-3.06,4.15-4.58c1.39,1.52,3.74,2.9,3.99,4.59c0.76,5.02,0.74,10.17,0.94,15.27
		C152.58,230.06,153.09,244.05,153.83,263.41z"/>
	<path d="M133.22,272.98c3.57,25.07-0.26,55.04-2.98,85.03c-0.15,1.64-2.54,3.08-3.89,4.62c-1.26-1.66-3.48-3.24-3.64-5
		c-1.29-14.26-3.1-28.56-3.03-42.85c0.13-26.15,1.42-52.29,2.25-78.44c0.16-4.94,0.41-9.87,0.64-14.81c0.13-2.8,0.78-5.91,4.17-5.3
		c1.49,0.27,3.4,3.35,3.53,5.27C131.38,236.95,132.1,252.41,133.22,272.98z"/>
	<path d="M98.57,304.29c1.37-16.93,2.68-34,4.26-51.03c0.14-1.5,2.06-2.84,3.15-4.26c1.22,1.47,3.32,2.83,3.52,4.42
		c1.23,9.96,1.64,20.02,3.06,29.95c3.57,24.96-1.29,49.53-3.05,74.24c-0.11,1.61-2.21,3.08-3.39,4.62
		c-1.13-1.38-3.14-2.69-3.27-4.16C101.27,340.2,99.96,322.31,98.57,304.29z"/>
	<path d="M78.57,304.23c1.47-18.54,2.86-36.76,4.49-54.95c0.12-1.35,1.96-2.54,3.01-3.81c0.98,1.32,2.69,2.57,2.82,3.97
		c2.62,28.29,7.2,56.52,2.35,85.05c-1.29,7.6-1.41,15.4-2.4,23.06c-0.17,1.31-2.04,2.4-3.12,3.59c-0.92-1.2-2.55-2.34-2.67-3.62
		C81.43,339.66,80.01,321.78,78.57,304.23z"/>
	<path d="M73.82,304.27c-1.39,13.68-2.81,27.6-4.23,41.51c-0.33,3.27-0.46,6.59-1.14,9.79c-0.27,1.28-1.75,2.3-2.68,3.44
		c-0.85-1.24-2.28-2.4-2.44-3.72c-0.85-7.02-1-14.14-2.1-21.12c-4.37-27.69-0.21-55.15,2.08-82.65c0.12-1.44,1.7-2.77,2.59-4.15
		c0.92,1.37,2.5,2.66,2.65,4.11C70.43,268.99,72.09,286.52,73.82,304.27z"/>
	<path d="M39.03,304.17c1.56-14.67,3.1-29.53,4.81-44.37c0.14-1.19,1.44-2.24,2.21-3.35c0.76,1.12,2.05,2.16,2.21,3.36
		c1.9,14.49,4.6,28.96,5.1,43.51c0.37,10.7-2.16,21.5-3.44,32.26c-0.43,3.59-0.78,7.2-1.54,10.72c-0.36,1.65-1.61,3.11-2.46,4.65
		c-0.77-1.48-2.05-2.9-2.24-4.45c-1.22-9.77-2.2-19.58-3.26-29.37C39.96,312.87,39.51,308.63,39.03,304.17z"/>
</g>
</svg>
