<svg xmlns="http://www.w3.org/2000/svg" viewBox="0 0 779.59 257.18"><title>Centro de Reproducción_Logo</title><g id="Capa_2" data-name="Capa 2"><g id="Capa_1-2" data-name="Capa 1"><path d="M273.18,139.61h9.15q7.51,0,10.71,1.34a11,11,0,0,1,5.12,4.46,13.58,13.58,0,0,1,1.95,7.37,12.57,12.57,0,0,1-2.15,7.48,13,13,0,0,1-6.46,4.54L302.25,185h-9.44l-10.2-19.21h-.79V185h-8.64Zm8.64,17.73h2.7q4.13,0,5.68-1.08a4.08,4.08,0,0,0,1.55-3.59,4.39,4.39,0,0,0-.77-2.58,4.22,4.22,0,0,0-2.06-1.58,15.59,15.59,0,0,0-4.73-.48h-2.37Z" fill="#fff"/><polygon points="311.29 139.61 336.05 139.61 336.05 148.06 319.86 148.06 319.86 156.26 336.05 156.26 336.05 164.56 319.86 164.56 319.86 176.49 336.05 176.49 336.05 184.97 311.29 184.97 311.29 139.61" fill="#fff"/><path d="M346.09,139.61h9.16q7.42,0,10.71,1.37a11,11,0,0,1,5.19,4.44,13.78,13.78,0,0,1,1.89,7.36,12.34,12.34,0,0,1-2.48,7.89,12.86,12.86,0,0,1-6.74,4.38,38.88,38.88,0,0,1-9.1.71V185h-8.63Zm8.63,17.73h2.75a14.8,14.8,0,0,0,4.5-.46,4,4,0,0,0,2-1.53,4.53,4.53,0,0,0,.72-2.59,4.11,4.11,0,0,0-2-3.83q-1.48-.9-5.49-.9h-2.44Z" fill="#fff"/><path d="M384.1,139.61h9.15q7.51,0,10.7,1.34a11,11,0,0,1,5.13,4.46,13.66,13.66,0,0,1,1.94,7.37,12.57,12.57,0,0,1-2.14,7.48,13,13,0,0,1-6.46,4.54L413.17,185h-9.44l-10.21-19.21h-.79V185H384.1Zm8.63,17.73h2.71q4.13,0,5.67-1.08a4.05,4.05,0,0,0,1.55-3.59,4.39,4.39,0,0,0-.76-2.58,4.26,4.26,0,0,0-2.06-1.58,15.63,15.63,0,0,0-4.74-.48h-2.37Z" fill="#fff"/><path d="M443.59,138.47a22.49,22.49,0,0,1,16.55,7,24.2,24.2,0,0,1,.1,33.8,23.67,23.67,0,0,1-33.56-.19,23.83,23.83,0,0,1,16.91-40.58m-.09,8.45a14.24,14.24,0,0,0-10.59,4.38,15.25,15.25,0,0,0-4.29,11.13,14.49,14.49,0,0,0,5.4,11.9,14.78,14.78,0,0,0,9.63,3.43,14.08,14.08,0,0,0,10.47-4.44,16,16,0,0,0,0-21.91,14.16,14.16,0,0,0-10.58-4.49" fill="#fff"/><path d="M477.27,139.61H487.5q9.88,0,14.69,2.45a19.12,19.12,0,0,1,7.92,8,28,28,0,0,1,1.37,22.53,20,20,0,0,1-4.8,7.29,17,17,0,0,1-6.64,4c-2.39.74-6.51,1.11-12.39,1.11H477.27Zm8.57,8.33v28.61h4q5.92,0,8.59-1.35a10.35,10.35,0,0,0,4.36-4.57,16.79,16.79,0,0,0,1.7-7.91q0-7.22-4-11.2-3.65-3.59-11.69-3.58Z" fill="#fff"/><path d="M523.17,139.61h8.67V169a15.3,15.3,0,0,0,.66,5.36,5.37,5.37,0,0,0,2.19,2.51,7,7,0,0,0,3.68.94,7.18,7.18,0,0,0,3.94-1,5.52,5.52,0,0,0,2.28-2.67,19.76,19.76,0,0,0,.63-6.17V139.61h8.67v27c0,4.56-.26,7.73-.78,9.49a13.34,13.34,0,0,1-2.94,5.12,13.63,13.63,0,0,1-5,3.66,17,17,0,0,1-6.6,1.19,16,16,0,0,1-8.59-2.27,13.14,13.14,0,0,1-5.23-5.68q-1.57-3.4-1.57-11.51Z" fill="#fff"/><path d="M607.62,147.58l-6,5.76q-6.15-6.51-13.86-6.51a15.2,15.2,0,0,0-15.41,15.4,16.26,16.26,0,0,0,2,8.06,14.17,14.17,0,0,0,5.58,5.52,16.2,16.2,0,0,0,8,2,16.42,16.42,0,0,0,6.87-1.41,24.28,24.28,0,0,0,6.84-5.1l5.86,6.1a32.1,32.1,0,0,1-9.5,6.81,26,26,0,0,1-10.21,1.9q-10.58,0-17.31-6.71t-6.74-17.2a23.45,23.45,0,0,1,3.07-12.05,22.65,22.65,0,0,1,8.79-8.48,24.76,24.76,0,0,1,12.32-3.21,26.16,26.16,0,0,1,19.76,9.11" fill="#fff"/><path d="M658.9,147.58l-6,5.76q-6.17-6.51-13.87-6.51a15.2,15.2,0,0,0-15.41,15.4,16.16,16.16,0,0,0,2,8.06,14.08,14.08,0,0,0,5.57,5.52,16.21,16.21,0,0,0,8,2,16.49,16.49,0,0,0,6.87-1.41,24.56,24.56,0,0,0,6.84-5.1l5.85,6.1a32.1,32.1,0,0,1-9.5,6.81,26,26,0,0,1-10.21,1.9q-10.57,0-17.31-6.71T615,162.21A23.45,23.45,0,0,1,618,150.16a22.65,22.65,0,0,1,8.79-8.48,24.76,24.76,0,0,1,12.32-3.21,26.16,26.16,0,0,1,19.77,9.11" fill="#fff"/><rect x="667.86" y="139.61" width="8.57" height="45.36" fill="#fff"/><path d="M709.58,138.47a22.52,22.52,0,0,1,16.56,7,23.18,23.18,0,0,1,6.92,17,22.93,22.93,0,0,1-6.83,16.81,23.67,23.67,0,0,1-33.56-.19,23.83,23.83,0,0,1,16.91-40.58m-.09,8.45a14.24,14.24,0,0,0-10.59,4.38,15.25,15.25,0,0,0-4.29,11.13,14.49,14.49,0,0,0,5.4,11.9,14.78,14.78,0,0,0,9.63,3.43,14.07,14.07,0,0,0,10.47-4.44,16,16,0,0,0,0-21.91,14.16,14.16,0,0,0-10.59-4.49M711.08,124h10l-11.29,12.09h-6Z" fill="#fff"/><polygon points="743.26 139.61 751.54 139.61 770.95 169.46 770.95 139.61 779.59 139.61 779.59 184.97 771.28 184.97 751.89 155.21 751.89 184.97 743.26 184.97 743.26 139.61" fill="#fff"/><path d="M321.57,80.94l-7,6.63q-7.1-7.5-16-7.5a17.5,17.5,0,0,0-17.75,17.75,18.71,18.71,0,0,0,2.27,9.28,16.28,16.28,0,0,0,6.43,6.37,18.68,18.68,0,0,0,9.23,2.31,19,19,0,0,0,7.92-1.62,28.41,28.41,0,0,0,7.88-5.88l6.75,7a37,37,0,0,1-10.95,7.85,30,30,0,0,1-11.76,2.18q-12.19,0-20-7.73T270.93,97.8a27.14,27.14,0,0,1,3.54-13.9,26.23,26.23,0,0,1,10.12-9.77,28.63,28.63,0,0,1,14.2-3.7,30.16,30.16,0,0,1,22.78,10.51" fill="#fff"/><polygon points="331.77 71.75 360.31 71.75 360.31 81.49 341.65 81.49 341.65 90.94 360.31 90.94 360.31 100.5 341.65 100.5 341.65 114.25 360.31 114.25 360.31 124.03 331.77 124.03 331.77 71.75" fill="#fff"/><polygon points="371.07 71.75 380.62 71.75 402.99 106.15 402.99 71.75 412.94 71.75 412.94 124.03 403.37 124.03 381.02 89.73 381.02 124.03 371.07 124.03 371.07 71.75" fill="#fff"/><polygon points="421.18 71.75 450.07 71.75 450.07 81.56 440.55 81.56 440.55 124.03 430.46 124.03 430.46 81.56 421.18 81.56 421.18 71.75" fill="#fff"/><path d="M459,71.75h10.54q8.67,0,12.34,1.54a12.71,12.71,0,0,1,5.91,5.14,15.72,15.72,0,0,1,2.23,8.49,14.44,14.44,0,0,1-2.47,8.62,14.9,14.9,0,0,1-7.44,5.24L492.52,124H481.65l-11.76-22.14H469V124H459Zm10,20.43h3.12q4.74,0,6.53-1.24a4.68,4.68,0,0,0,1.79-4.14,5.08,5.08,0,0,0-.88-3A4.92,4.92,0,0,0,477.16,82a18.28,18.28,0,0,0-5.45-.55H469Z" fill="#fff"/><path d="M526.71,70.43a25.94,25.94,0,0,1,19.08,8,26.72,26.72,0,0,1,8,19.58,26.44,26.44,0,0,1-7.87,19.37,27.31,27.31,0,0,1-38.68-.22,27.47,27.47,0,0,1,19.49-46.77m-.11,9.74a16.39,16.39,0,0,0-12.2,5,17.55,17.55,0,0,0-4.94,12.83q0,8.67,6.22,13.71a17.09,17.09,0,0,0,11.1,3.95,16.21,16.21,0,0,0,12.06-5.12,18.45,18.45,0,0,0,0-25.25,16.38,16.38,0,0,0-12.21-5.17" fill="#fff"/><path d="M586.46,71.75h11.79q11.4,0,16.94,2.82a22.2,22.2,0,0,1,9.13,9.19,29.75,29.75,0,0,1,3.58,14.86,30,30,0,0,1-2,11.1,23.16,23.16,0,0,1-5.54,8.41,19.76,19.76,0,0,1-7.66,4.62Q608.59,124,598.43,124h-12Zm9.88,9.59v33H601q6.82,0,9.9-1.56a11.82,11.82,0,0,0,5-5.27,19.32,19.32,0,0,0,2-9.1q0-8.33-4.66-12.92c-2.8-2.75-7.28-4.13-13.47-4.13Z" fill="#fff"/><polygon points="638.88 71.75 667.42 71.75 667.42 81.49 648.76 81.49 648.76 90.94 667.42 90.94 667.42 100.5 648.76 100.5 648.76 114.25 667.42 114.25 667.42 124.03 638.88 124.03 638.88 71.75" fill="#fff"/><polygon points="331.99 198.16 336.11 198.16 332.96 220.61 328.92 220.61 331.99 198.16" fill="#fff"/><polygon points="343.12 198.16 346.94 198.16 350.74 213.8 358.5 198.16 362.13 198.16 362.44 220.61 358.5 220.61 358.32 207.18 351.66 220.61 348.44 220.61 345.02 206.51 341.44 220.61 337.41 220.61 343.12 198.16" fill="#fff"/><path d="M370.3,198.16h3.93a14.31,14.31,0,0,1,5.07.63,6.15,6.15,0,0,1,2.76,2.17,5.6,5.6,0,0,1,.95,3.24,6.47,6.47,0,0,1-1.11,3.7,6.26,6.26,0,0,1-3,2.41,18.47,18.47,0,0,1-6.18.82l-1.3,9.48h-4.23Zm3,9c2.29,0,3.78-.24,4.48-.71a2.37,2.37,0,0,0,1-2.09,2.08,2.08,0,0,0-.4-1.31,2.17,2.17,0,0,0-1.21-.75,15.13,15.13,0,0,0-3.18-.22Z" fill="#fff"/><path d="M388.63,198.16h3.9a14.26,14.26,0,0,1,5.08.63,6.07,6.07,0,0,1,2.77,2.16,5.71,5.71,0,0,1,.93,3.27,6.08,6.08,0,0,1-1.38,4,7.5,7.5,0,0,1-4.19,2.33l4.89,10.06h-4.37l-4.79-9.8h-.34l-1.35,9.8h-4.21Zm3,9c2.28,0,3.77-.24,4.46-.71a2.35,2.35,0,0,0,1-2.08,2.09,2.09,0,0,0-.42-1.33,2.16,2.16,0,0,0-1.19-.74,14.2,14.2,0,0,0-3.18-.22Z" fill="#fff"/><polygon points="406.97 198.16 411.1 198.16 407.95 220.61 403.91 220.61 406.97 198.16" fill="#fff"/><polygon points="418.1 198.16 421.93 198.16 425.73 213.8 433.49 198.16 437.12 198.16 437.43 220.61 433.49 220.61 433.31 207.18 426.65 220.61 423.43 220.61 420.01 206.51 416.43 220.61 412.4 220.61 418.1 198.16" fill="#fff"/><polygon points="445.09 198.16 449.21 198.16 446.06 220.61 442.02 220.61 445.09 198.16" fill="#fff"/><polygon points="456.22 198.16 460.04 198.16 463.85 213.8 471.6 198.16 475.24 198.16 475.54 220.61 471.6 220.61 471.42 207.18 464.76 220.61 461.54 220.61 458.12 206.51 454.54 220.61 450.51 220.61 456.22 198.16" fill="#fff"/><path d="M493.67,197.6a10.42,10.42,0,0,1,7.63,3,10.2,10.2,0,0,1,3,7.56,13,13,0,0,1-1.78,6.61,12.39,12.39,0,0,1-4.73,4.77,13.54,13.54,0,0,1-6.78,1.66,10.36,10.36,0,0,1-7.65-2.84,10,10,0,0,1-2.86-7.47,13,13,0,0,1,3.42-9.05,12.55,12.55,0,0,1,9.75-4.21m-.16,4a8.55,8.55,0,0,0-4.4,1.17,8.64,8.64,0,0,0-3.21,3.35,9.23,9.23,0,0,0-1.22,4.53,6.82,6.82,0,0,0,1.69,4.68,6.15,6.15,0,0,0,4.87,1.92,8.48,8.48,0,0,0,6.25-2.59,8.63,8.63,0,0,0,2.57-6.3,6.7,6.7,0,0,0-1.81-4.91,6.33,6.33,0,0,0-4.74-1.85" fill="#fff"/><path d="M521.63,201.29,518.57,204c-1.27-1.63-2.44-2.44-3.53-2.44a1.93,1.93,0,0,0-1.34.48,1.48,1.48,0,0,0-.54,1.15,2.69,2.69,0,0,0,.49,1.39,35.43,35.43,0,0,0,3,3.37,21.51,21.51,0,0,1,1.73,2,10.35,10.35,0,0,1,1.42,2.51,6.72,6.72,0,0,1,.44,2.37,6,6,0,0,1-1.92,4.53,6.88,6.88,0,0,1-4.93,1.83q-4.58,0-7.46-4.35l3.23-2.61q2,3,4.23,3a2.53,2.53,0,0,0,1.82-.7,2.28,2.28,0,0,0,.74-1.7,3.22,3.22,0,0,0-.45-1.58,20.81,20.81,0,0,0-2.57-3.05,23.12,23.12,0,0,1-2.95-3.57,6.48,6.48,0,0,1-.94-3.21,5.79,5.79,0,0,1,6-5.78,8,8,0,0,1,6.66,3.69" fill="#fff"/><polygon points="533.56 198.16 547.26 198.16 546.78 202.16 542.1 202.16 539.58 220.61 535.39 220.61 537.91 202.16 533.04 202.16 533.56 198.16" fill="#fff"/><path d="M550.09,198.16h4.2L552.41,212a21.05,21.05,0,0,0-.25,2.56,2.55,2.55,0,0,0,.79,2,3.29,3.29,0,0,0,2.28.71,4,4,0,0,0,2.11-.54,2.7,2.7,0,0,0,1.08-1.32,16.26,16.26,0,0,0,.78-3.67l1.86-13.58h4.24l-1.81,13.4a20.18,20.18,0,0,1-1.48,5.93,6.22,6.22,0,0,1-2.65,2.74,8.71,8.71,0,0,1-4.22.94,7.27,7.27,0,0,1-5.23-1.78A6.4,6.4,0,0,1,548,214.5a30.39,30.39,0,0,1,.37-4Z" fill="#fff"/><path d="M582.25,201.29,579.18,204c-1.26-1.63-2.43-2.44-3.52-2.44a1.91,1.91,0,0,0-1.34.48,1.48,1.48,0,0,0-.54,1.15,2.6,2.6,0,0,0,.49,1.39,33.93,33.93,0,0,0,3,3.37,20.93,20.93,0,0,1,1.72,2,10.41,10.41,0,0,1,1.43,2.51,6.71,6.71,0,0,1,.43,2.37,6,6,0,0,1-1.92,4.53,6.85,6.85,0,0,1-4.93,1.83c-3.05,0-5.53-1.45-7.46-4.35l3.24-2.61q1.95,3,4.22,3a2.55,2.55,0,0,0,1.83-.7,2.28,2.28,0,0,0,.74-1.7,3.22,3.22,0,0,0-.45-1.58,20.81,20.81,0,0,0-2.57-3.05,23.12,23.12,0,0,1-3-3.57,6.38,6.38,0,0,1-.94-3.21,5.77,5.77,0,0,1,6-5.78,8,8,0,0,1,6.67,3.69" fill="#fff"/><polygon points="596.92 198.16 601.05 198.16 597.9 220.61 593.86 220.61 596.92 198.16" fill="#fff"/><path d="M606.48,198.16H610a18,18,0,0,1,7.45,1.18,9.42,9.42,0,0,1,4,3.72A11.09,11.09,0,0,1,623,208.9a12.39,12.39,0,0,1-1.62,6.25,10.3,10.3,0,0,1-4.1,4.15,14.9,14.9,0,0,1-6.87,1.31h-7Zm3.69,4-2,14.57h1.38a14.4,14.4,0,0,0,4.64-.53,6.6,6.6,0,0,0,3.23-2.61,8.12,8.12,0,0,0,1.22-4.56,7.46,7.46,0,0,0-.86-3.73,5.82,5.82,0,0,0-2.42-2.32,9.05,9.05,0,0,0-4.15-.82Z" fill="#fff"/><polygon points="628.71 198.16 640.78 198.16 640.26 202.14 632.43 202.14 631.78 206.78 639.66 206.78 639.14 210.74 631.24 210.74 630.41 216.68 638.37 216.68 637.86 220.61 625.64 220.61 628.71 198.16" fill="#fff"/><path d="M653.48,198.16H657l5.59,22.45h-4.08l-1.19-4.78h-8.91l-2.55,4.78h-4.53Zm2.83,13.7-1.8-7.39-4,7.39Z" fill="#fff"/><path d="M681,201.29,677.91,204c-1.26-1.63-2.43-2.44-3.52-2.44a2,2,0,0,0-1.35.48,1.51,1.51,0,0,0-.53,1.15,2.6,2.6,0,0,0,.49,1.39,32.55,32.55,0,0,0,3,3.37,20.93,20.93,0,0,1,1.72,2,10.41,10.41,0,0,1,1.43,2.51,6.71,6.71,0,0,1,.43,2.37,6,6,0,0,1-1.92,4.53,6.85,6.85,0,0,1-4.93,1.83c-3.05,0-5.53-1.45-7.46-4.35l3.24-2.61q1.95,3,4.22,3a2.55,2.55,0,0,0,1.83-.7,2.28,2.28,0,0,0,.74-1.7,3.22,3.22,0,0,0-.45-1.58,20.81,20.81,0,0,0-2.57-3.05,23.12,23.12,0,0,1-3-3.57,6.38,6.38,0,0,1-.94-3.21,5.77,5.77,0,0,1,6-5.78,8,8,0,0,1,6.67,3.69" fill="#fff"/><path d="M295.31,203.43H294v12.35h1.83a9.75,9.75,0,0,0,3.94-.59,4.57,4.57,0,0,0,2-2,7,7,0,0,0,.77-3.41,6.26,6.26,0,0,0-1.85-4.83q-1.67-1.54-5.35-1.55" fill="#fff"/><path d="M270.66,222.13h52.88v-25H270.66Zm19.27-14.21q0,5-.79,6.84a7.43,7.43,0,0,1-2.84,3.45,8.7,8.7,0,0,1-4.77,1.2,8.51,8.51,0,0,1-5.08-1.4,7.47,7.47,0,0,1-2.73-3.91,23.92,23.92,0,0,1-.56-6.32v-7.94H278V209a13,13,0,0,0,.37,3.73,3.35,3.35,0,0,0,1.19,1.62,3.43,3.43,0,0,0,2,.58,3.49,3.49,0,0,0,2-.57,3.33,3.33,0,0,0,1.24-1.68,12.76,12.76,0,0,0,.3-3.52v-9.35h4.79Zm15.78,6.14a8.52,8.52,0,0,1-2.2,3.14,7.84,7.84,0,0,1-3,1.73,22.86,22.86,0,0,1-5.67.48H290V199.84h4.69a16.2,16.2,0,0,1,6.73,1.06,8.52,8.52,0,0,1,3.62,3.44,11.39,11.39,0,0,1,.63,9.72m12.73,3.71a6.25,6.25,0,0,1-4.51,1.62h-7.37V199.82h7a6.48,6.48,0,0,1,4.23,1.22,4.15,4.15,0,0,1,1.5,3.41,5.28,5.28,0,0,1-.7,2.75,3.66,3.66,0,0,1-1.94,1.61,4.33,4.33,0,0,1,2.57,1.64,5,5,0,0,1,.93,3.07,5.61,5.61,0,0,1-1.68,4.25" fill="#fff"/><path d="M313.25,211.18h-2.58v4.49h2.75a2.59,2.59,0,0,0,1.83-.58,2.24,2.24,0,0,0,.62-1.7,2,2,0,0,0-.65-1.66,3,3,0,0,0-2-.55" fill="#fff"/><path d="M314.52,207a2.22,2.22,0,0,0,.48-1.62,1.66,1.66,0,0,0-.52-1.35,2.34,2.34,0,0,0-1.57-.45h-2.24v3.9h2.13a2.42,2.42,0,0,0,1.72-.48" fill="#fff"/><path d="M128.59,0A128.59,128.59,0,1,0,257.18,128.59,128.74,128.74,0,0,0,128.59,0m37,246.46v-27.6l.4.38,2,1.88,17.89,17a122.42,122.42,0,0,1-20.27,8.33m47.63-51L202.57,193A98,98,0,0,0,227,130.51H195.45A67,67,0,0,1,131,195h0v56.89c-.59,0-1.19,0-1.79,0a123.49,123.49,0,1,1,101-52.66Z" fill="#fff"/><path d="M130.92,29.77V61.32a67,67,0,0,1,64.53,64.52H227a98.55,98.55,0,0,0-96.08-96.07" fill="#fff"/><path d="M119.61,135.68a6.86,6.86,0,1,0-7.06-6.86,7,7,0,0,0,7.06,6.86m0-11a4.13,4.13,0,1,1-4.32,4.13,4.24,4.24,0,0,1,4.32-4.13" fill="#fff"/><path d="M101.53,135.68a6.86,6.86,0,1,0-7.06-6.86,7,7,0,0,0,7.06,6.86m0-11a4.13,4.13,0,1,1-4.32,4.13,4.24,4.24,0,0,1,4.32-4.13" fill="#fff"/><path d="M130.63,128.82a7.06,7.06,0,1,0,7.06-6.86,7,7,0,0,0-7.06,6.86m7.06-4.13a4.13,4.13,0,1,1-4.33,4.13,4.24,4.24,0,0,1,4.33-4.13" fill="#fff"/><path d="M148.7,128.82a7.06,7.06,0,1,0,7.06-6.86,7,7,0,0,0-7.06,6.86m11.39,0a4.33,4.33,0,1,1-4.33-4.13,4.24,4.24,0,0,1,4.33,4.13" fill="#fff"/><path d="M126.26,195l-.58,0,.58,0" fill="#00a3c3"/><path d="M125.68,195c-.9,0-1.8-.08-2.69-.15l-.32,0c-1-.08-1.94-.19-2.9-.31-.13,0-.26-.05-.39-.06-.93-.13-1.86-.27-2.78-.44l-.14,0c-1-.18-2-.39-3-.62-.12,0-.23-.06-.35-.09-.91-.21-1.82-.44-2.72-.7-.27-.07-.53-.16-.8-.24-.74-.22-1.48-.44-2.21-.68l-.09,0c-1-.33-1.92-.67-2.86-1l-.4-.17c-.83-.33-1.66-.67-2.48-1l-.58-.27c-.75-.34-1.5-.69-2.23-1.05-.28-.14-.55-.29-.82-.44-.64-.33-1.29-.66-1.93-1l-.29-.17c-.8-.45-1.59-.92-2.37-1.4-.28-.17-.54-.36-.82-.54-.59-.38-1.18-.75-1.76-1.15l-.34-.25c-.73-.51-1.45-1-2.16-1.56-.26-.19-.51-.4-.76-.6-.55-.43-1.11-.86-1.65-1.31s-1-.87-1.51-1.32l-.81-.7c-.46-.42-.9-.86-1.34-1.29-.3-.28-.6-.55-.88-.84-.54-.54-1.06-1.09-1.58-1.65l-.55-.57c-.49-.54-1-1.1-1.44-1.66-.19-.22-.39-.43-.58-.66-.47-.56-.92-1.15-1.37-1.73-.18-.23-.37-.45-.54-.68-.44-.58-.86-1.17-1.28-1.77-.17-.24-.36-.48-.53-.73-.47-.68-.92-1.38-1.36-2.08-.11-.17-.23-.33-.33-.5-.44-.71-.85-1.42-1.27-2.14l-.3-.53c-.37-.64-.71-1.29-1-1.95-.68-1.31-1.31-2.65-1.9-4-.3-.68-.59-1.37-.86-2.06-.06-.14-.12-.27-.17-.41-.32-.82-.61-1.66-.9-2.49,0-.16-.12-.31-.17-.46-.23-.7-.44-1.41-.65-2.11-.09-.3-.19-.6-.28-.9-.23-.84-.44-1.68-.64-2.53,0-.18-.1-.36-.14-.54a65.76,65.76,0,0,1-1.33-8c-.17-1.59-.3-3.19-.36-4.8H30.2c0,1.49.1,3,.2,4.46l.09,1.1c.15,2,.37,3.9.64,5.82.07.5.14,1,.22,1.49.43,2.78,1,5.53,1.64,8.23.19.76.38,1.51.59,2.27l.09.35c.09.34.19.67.29,1s.23.84.36,1.25l0,.09c.28.95.59,1.89.9,2.83.57,1.67,1.17,3.32,1.82,5s1.44,3.5,2.24,5.21c0,.06,0,.11.07.16.31.65.61,1.29.93,1.93.16.32.32.64.49,1s.37.74.56,1.1l.37.68c.6,1.14,1.23,2.26,1.87,3.37l.74,1.22.45.75c.23.36.46.72.68,1.08l.56.87c.75,1.16,1.54,2.3,2.34,3.43l.26.37c.37.52.76,1,1.14,1.55l.22.3c.22.3.46.59.68.88s.48.63.73.94.69.86,1,1.28l.4.5c.83,1,1.69,2,2.55,3l.47.52.62.66c.31.34.62.68,1,1,.84.88,1.7,1.75,2.58,2.6l.66.64c.24.24.49.46.74.7l.94.87,1,.9c.24.2.47.42.71.63l.88.74.87.74c1,.86,2.09,1.7,3.16,2.51l.44.35,1.19.87.67.49c.45.33.92.65,1.38,1l.5.35c.62.43,1.24.84,1.87,1.25l0,0c.47.31.94.61,1.42.9L77,212c.6.38,1.21.74,1.82,1.1l.16.09c.63.38,1.27.74,1.92,1.1l.08.05c1.2.66,2.41,1.29,3.63,1.9l.48.25c1.22.6,2.46,1.18,3.71,1.74l.5.22c1.93.85,3.91,1.63,5.91,2.35l.6.22q.92.33,1.86.63l.35.13a98.16,98.16,0,0,0,10.72,2.84l.71.14c.61.13,1.22.24,1.84.35l.5.09,2,.31.41.07,1.84.25.54.07,2,.22.39,0,2.13.19.29,0,1.66.1.77.05,1.73.06.72,0V195l-.58,0" fill="#fff"/><path d="M126.26,29.77A98.55,98.55,0,0,0,30.2,125.84H61.74a67,67,0,0,1,64.52-64.52Z" fill="#fff"/></g></g></svg>