<svg xmlns="http://www.w3.org/2000/svg" viewBox="0 0 646.35 151.84"><title>Coyote</title><g id="Capa_2" data-name="Capa 2"><g id="Capa_1-2" data-name="Capa 1"><path d="M72.62,1.18A118.44,118.44,0,0,1,84.84,18.9c.9,1.61,1.75,3.24,2.57,4.88h40.87V128.06H87.41c-.82,1.64-1.67,3.27-2.57,4.88a117.7,117.7,0,0,1-12.22,17.72h78.25V1.18Z" fill="#fff"/><path d="M87.23,75.92A103.68,103.68,0,0,0,74,25,104.68,104.68,0,0,0,55.63,1.18H0V150.66H55.63A104.46,104.46,0,0,0,74,126.83,103.68,103.68,0,0,0,87.23,75.92" fill="#fff"/><path d="M181.59,60a22.92,22.92,0,0,0,8.49,6.32,26.32,26.32,0,0,0,10.32,2,31.24,31.24,0,0,0,14.21-3.13,3.13,3.13,0,0,0,1.73-1.84,3.21,3.21,0,0,0-.39-2.52l-1.19-2.3c-.61-1.15-2.11-2.85-5.19-1.34a19.44,19.44,0,0,1-9.17,2.1A11.07,11.07,0,0,1,195,57.9a12.67,12.67,0,0,1-4.44-4.38,26.73,26.73,0,0,1-3.15-7.84,48.67,48.67,0,0,1-1.2-11.53,48.58,48.58,0,0,1,1.2-11.52,26.73,26.73,0,0,1,3.15-7.84A12.59,12.59,0,0,1,195,10.41,11.07,11.07,0,0,1,200.4,9a21.23,21.23,0,0,1,4.77.5,20.88,20.88,0,0,1,4.41,1.6c3,1.43,4.46-.22,5.08-1.33l1.28-2.29A3.22,3.22,0,0,0,216.33,5a3.31,3.31,0,0,0-1.82-1.95A26.5,26.5,0,0,0,207.87.71,37.3,37.3,0,0,0,200.4,0a26.32,26.32,0,0,0-10.32,2,23,23,0,0,0-8.49,6.31A31.09,31.09,0,0,0,175.89,19a49.62,49.62,0,0,0-2.06,15.12,49.69,49.69,0,0,0,2.06,15.13A31,31,0,0,0,181.59,60" fill="#fff"/><path d="M268.21,47.69V4.06a2.27,2.27,0,0,0-1-1.92A2.69,2.69,0,0,0,265,1.73l-6.16,1.14a2.33,2.33,0,0,0-1.39.73A2.12,2.12,0,0,0,256.91,5V47.69c0,4.1-.86,7.1-2.56,8.9s-4.21,2.69-7.5,2.69-5.82-.9-7.5-2.69-2.56-4.79-2.56-8.9V4.06a2.26,2.26,0,0,0-1-1.92,2.63,2.63,0,0,0-2.14-.41l-6.17,1.14a2.33,2.33,0,0,0-1.38.73A2.09,2.09,0,0,0,225.48,5V47.69c0,6.41,1.93,11.51,5.73,15.15s9,5.47,15.64,5.47,11.85-1.84,15.64-5.47,5.72-8.74,5.72-15.15" fill="#fff"/><path d="M310.08,51.75,314,64.48c.22.94,1,2.52,3.56,2.52h4.82a3.21,3.21,0,0,0,2.74-1,2.81,2.81,0,0,0,.3-2.52l-19-59.6c-.33-1-1.27-2.68-4-2.19l-6.5,1a3.55,3.55,0,0,0-3.17,2.59L274,63.48a2.75,2.75,0,0,0,.32,2.47,3.21,3.21,0,0,0,2.74,1h4.82a3.33,3.33,0,0,0,3.54-2.45l2.87-9.46a1,1,0,0,1,.36-.67,3,3,0,0,1,1.15-.4l18.58-3c1.26-.23,1.51.25,1.67.75m-3.31-10.4a1.51,1.51,0,0,1-1,.41l-12.68,2.13a1.69,1.69,0,0,1-1.1,0s-.08-.23,0-.6l7.16-23.85c.19-.55.38-.75.49-.75s.3.19.48.73l6.58,21.36a.81.81,0,0,1,0,.61l.11.07Z" fill="#fff"/><path d="M366.17,59.11A27.22,27.22,0,0,0,373,48.85a40.34,40.34,0,0,0,2.43-14.7A40.32,40.32,0,0,0,373,19.46,27.11,27.11,0,0,0,366.17,9.2a27.83,27.83,0,0,0-10.5-6A44,44,0,0,0,342.3,1.3h-7.76a2.62,2.62,0,0,0-1.69.61A2.14,2.14,0,0,0,332,3.57V64.73a2.16,2.16,0,0,0,.82,1.67,2.61,2.61,0,0,0,1.69.6h7.76a44.24,44.24,0,0,0,13.37-1.92,27.83,27.83,0,0,0,10.5-6m-21.24-1.29a1.67,1.67,0,0,1-1.26-.2,1.23,1.23,0,0,1-.33-1v-45a1.22,1.22,0,0,1,.34-1,1.2,1.2,0,0,1,.82-.22l.45,0a22.18,22.18,0,0,1,7.28,1.95,16.7,16.7,0,0,1,5.68,4.37,20.57,20.57,0,0,1,3.78,7.11,33.94,33.94,0,0,1,1.38,10.23,34,34,0,0,1-1.38,10.24,20.43,20.43,0,0,1-3.78,7.1,16.63,16.63,0,0,1-5.68,4.38,22.41,22.41,0,0,1-7.3,2" fill="#fff"/><path d="M406.3,44.1l11.56,21.64A2.22,2.22,0,0,0,420.08,67h6.48A2.93,2.93,0,0,0,429,66a2.05,2.05,0,0,0,.17-2.56L416.86,40.66a.94.94,0,0,1-.16-.69,1.87,1.87,0,0,1,.94-.83,18.33,18.33,0,0,0,7.53-7.4,20,20,0,0,0,2.23-9.25,20.43,20.43,0,0,0-1.66-8.08,17,17,0,0,0-5.58-6.86,29.64,29.64,0,0,0-10-4.58,57.45,57.45,0,0,0-14.85-1.66h-7.76a2.59,2.59,0,0,0-1.69.6,2.11,2.11,0,0,0-.82,1.67V64.73a2.12,2.12,0,0,0,.82,1.67,2.59,2.59,0,0,0,1.69.6h6.29a2.61,2.61,0,0,0,1.69-.6,2.16,2.16,0,0,0,.82-1.67V44.84c0-.55.12-1.15,1.66-1.24,1.12-.05,2.15-.11,3.1-.17s1.92-.13,2.84-.24c1.22-.13,1.94.16,2.33.91m9.21-21.61a10.39,10.39,0,0,1-3.9,8.25C409,33,404.38,34.26,398,34.58a2,2,0,0,1-1.42-.28,1.06,1.06,0,0,1-.23-.8v-22a1.06,1.06,0,0,1,.23-.8,1.67,1.67,0,0,1,1.13-.29h.3c6.35.31,10.92,1.61,13.58,3.84a10.38,10.38,0,0,1,3.9,8.24" fill="#fff"/><path d="M442.83,60.62a21.14,21.14,0,0,0,8.51,5.91,30.55,30.55,0,0,0,20.55,0,21.21,21.21,0,0,0,8.52-5.91A29.11,29.11,0,0,0,486.12,50a53,53,0,0,0,2.07-15.86,52.67,52.67,0,0,0-2.07-15.77,29.11,29.11,0,0,0-5.71-10.61,21.78,21.78,0,0,0-8.51-5.95,30,30,0,0,0-20.57,0,21.58,21.58,0,0,0-8.5,5.95,28.81,28.81,0,0,0-5.72,10.61,52.6,52.6,0,0,0-2.06,15.77A53,53,0,0,0,437.11,50a29,29,0,0,0,5.72,10.61m13.35-50.35a12.55,12.55,0,0,1,10.88,0,11.43,11.43,0,0,1,4.4,4.05,24,24,0,0,1,3.14,7.73,51.8,51.8,0,0,1,1.2,12.1,51.84,51.84,0,0,1-1.2,12.11A24,24,0,0,1,471.46,54a11.51,11.51,0,0,1-4.4,4,12.57,12.57,0,0,1-10.89,0,11.5,11.5,0,0,1-4.4-4,24.17,24.17,0,0,1-3.14-7.73,51.78,51.78,0,0,1-1.2-12.11,51.69,51.69,0,0,1,1.2-12.1,24.08,24.08,0,0,1,3.14-7.73,11.46,11.46,0,0,1,4.41-4.05" fill="#fff"/><path d="M236.73,85.59h0a2.69,2.69,0,0,0-2.13-.41L227,86.43a3.73,3.73,0,0,0-.81.33,1.88,1.88,0,0,0-.86.93L206.81,134c-.32.75-.62.75-.72.75s-.39,0-.7-.72L186.82,86.47A2.25,2.25,0,0,0,184,85.1l-7.75,1.22a2.14,2.14,0,0,0-2.07,2.17v59.78a2.11,2.11,0,0,0,.82,1.66,2.6,2.6,0,0,0,1.69.61H183a2.62,2.62,0,0,0,1.69-.61,2.14,2.14,0,0,0,.82-1.66V117c0-.59.14-.61.27-.64s.3,0,.58.64l13.5,32.3a2.34,2.34,0,0,0,2.19,1.29h7.85a2.43,2.43,0,0,0,2.24-1.38l13.46-32.22c.27-.68.46-.65.57-.63s.28,0,.28.64v31.32a2.09,2.09,0,0,0,.82,1.66,2.58,2.58,0,0,0,1.69.61h6.28a2.6,2.6,0,0,0,1.69-.61,2.11,2.11,0,0,0,.82-1.66V87.52a2.28,2.28,0,0,0-1-1.93" fill="#fff"/><path d="M260.79,93.86h22.88a2.72,2.72,0,0,0,2-.79,2.09,2.09,0,0,0,.56-2.16l-1.17-4.38a2.11,2.11,0,0,0-.95-1.29,2.64,2.64,0,0,0-1.43-.4H251.07a2.57,2.57,0,0,0-1.69.6,2.12,2.12,0,0,0-.82,1.67v61.16a2.11,2.11,0,0,0,.82,1.66,2.58,2.58,0,0,0,1.69.61h31.62a2.19,2.19,0,0,0,2.38-1.68l1.17-4.37a2.13,2.13,0,0,0-.56-2.19,2.76,2.76,0,0,0-2-.79H260.79c-.93,0-.93-.27-.93-.58V121.76c0-.31,0-.58.93-.58h18a2.19,2.19,0,0,0,2.38-1.67l1.17-4.37a2.15,2.15,0,0,0-.56-2.2,2.75,2.75,0,0,0-2-.79h-19c-.93,0-.93-.27-.93-.58V94.45c0-.32,0-.59.93-.59" fill="#fff"/><path d="M335.62,85.59h0l-.08,0a2.25,2.25,0,0,0-.46-.24l-.24-.13.08.08a2.72,2.72,0,0,0-1.45-.08l-6.22,1.15a2.15,2.15,0,0,0-1.89,2.16v36.29c0,.67-.18.7-.28.72s-.35.07-.7-.69L305.89,86.27a2.36,2.36,0,0,0-2.76-1.17l-6.92,1.23a2.16,2.16,0,0,0-1.89,2.16v59.78a2.14,2.14,0,0,0,.82,1.66,2.62,2.62,0,0,0,1.69.61h6.29a2.62,2.62,0,0,0,1.69-.61,2.11,2.11,0,0,0,.82-1.66v-36c0-.68.16-.71.28-.73s.34,0,.7.69l17.74,36.88a2.17,2.17,0,0,0,2.14,1.39h7.66a2.58,2.58,0,0,0,1.69-.61,2.11,2.11,0,0,0,.82-1.66V87.52a2.29,2.29,0,0,0-1-1.93" fill="#fff"/><path d="M388.55,111.83H375.2a3.8,3.8,0,0,0-2.8,1,2.82,2.82,0,0,0-.65,2.86l.69,2.47c.37,1.23,1.37,2.69,4,2.69h2.85c1.72,0,1.72.72,1.72,1.24v16.8a2.14,2.14,0,0,1-1.15,1.86,15.31,15.31,0,0,1-3.73,1.57,16.1,16.1,0,0,1-4.1.5,11.05,11.05,0,0,1-5.4-1.39,12.56,12.56,0,0,1-4.44-4.37,26.26,26.26,0,0,1-3.15-7.85,48.06,48.06,0,0,1-1.2-11.52,48.21,48.21,0,0,1,1.2-11.53,26.19,26.19,0,0,1,3.15-7.84,12.59,12.59,0,0,1,4.44-4.38,11.18,11.18,0,0,1,5.4-1.38,21.3,21.3,0,0,1,4.77.5,21.66,21.66,0,0,1,4.41,1.6c3,1.43,4.46-.22,5.07-1.33L387.59,91a3.14,3.14,0,0,0,.39-2.51,3.34,3.34,0,0,0-1.81-2,26.61,26.61,0,0,0-6.64-2.33,36.56,36.56,0,0,0-7.47-.72,26.28,26.28,0,0,0-10.32,2,22.92,22.92,0,0,0-8.49,6.32,30.78,30.78,0,0,0-5.7,10.67,49.69,49.69,0,0,0-2.06,15.13,49.62,49.62,0,0,0,2.06,15.12,31,31,0,0,0,5.7,10.68,22.81,22.81,0,0,0,8.49,6.31,26.28,26.28,0,0,0,10.32,2,30.32,30.32,0,0,0,9.45-1.56,31.15,31.15,0,0,0,9.08-4.79,4.51,4.51,0,0,0,1.75-3.58V115.16c0-1-.37-3.33-3.79-3.33" fill="#fff"/><path d="M444,85.67h0a2.71,2.71,0,0,0-2.14-.41l-6.17,1.14a2.31,2.31,0,0,0-1.38.74,2.07,2.07,0,0,0-.57,1.44v42.64c0,4.11-.86,7.1-2.56,8.9s-4.21,2.7-7.5,2.7-5.81-.91-7.5-2.7-2.56-4.79-2.56-8.9V87.6a2.29,2.29,0,0,0-1-1.93,2.73,2.73,0,0,0-2.15-.41L404.3,86.4a2.32,2.32,0,0,0-1.39.74,2.1,2.1,0,0,0-.56,1.44v42.64c0,6.42,1.92,11.51,5.72,15.15s9,5.47,15.64,5.47,11.86-1.84,15.64-5.47,5.73-8.73,5.73-15.15V87.6a2.29,2.29,0,0,0-1-1.93" fill="#fff"/><path d="M483.23,87.36c-.33-1-1.28-2.68-4-2.18l-6.5,1a3.53,3.53,0,0,0-3.17,2.58L450.89,147a2.74,2.74,0,0,0,.32,2.47,3.22,3.22,0,0,0,2.75,1.06h4.81a3.33,3.33,0,0,0,3.54-2.46l2.87-9.46a1,1,0,0,1,.36-.66,2.84,2.84,0,0,1,1.15-.4l18.58-3c1.26-.23,1.52.24,1.68.74l3.9,12.73c.22.94,1,2.53,3.57,2.53h4.81a3.2,3.2,0,0,0,2.74-1.06,2.8,2.8,0,0,0,.31-2.52Zm.41,37.51h0c-.08.14-.37.31-1,.42L470,127.42c-.72.13-1,0-1.1,0s-.07-.23,0-.59l7.15-23.85c.19-.56.38-.76.49-.76s.31.19.49.73l6.57,21.36a.86.86,0,0,1,0,.6" fill="#fff"/><path d="M549.41,85.59h0a2.74,2.74,0,0,0-2.15-.41L541,86.33a2.16,2.16,0,0,0-1.89,2.17v36.28c0,.67-.16.7-.28.72s-.34.07-.69-.69L519.68,86.27a2.38,2.38,0,0,0-2.76-1.17L510,86.33a2.16,2.16,0,0,0-1.89,2.17v59.77a2.09,2.09,0,0,0,.82,1.66,2.58,2.58,0,0,0,1.69.61h6.29a2.62,2.62,0,0,0,1.69-.61,2.13,2.13,0,0,0,.82-1.66v-36c0-.68.16-.71.27-.73s.35-.06.7.69l17.75,36.88a2.17,2.17,0,0,0,2.14,1.39h7.66a2.6,2.6,0,0,0,1.69-.61,2.09,2.09,0,0,0,.82-1.66V87.52a2.29,2.29,0,0,0-1-1.93" fill="#fff"/><path d="M601,86.53a2.09,2.09,0,0,0-1-1.29,2.64,2.64,0,0,0-1.43-.4h-39a2.17,2.17,0,0,0-2.37,1.67l-1.17,4.37a2.09,2.09,0,0,0,.56,2.19,2.7,2.7,0,0,0,2,.79H571.7c1.68,0,1.81.63,1.81,1.32v53.17a2.13,2.13,0,0,0,.82,1.66,2.62,2.62,0,0,0,1.69.61h6.29A2.62,2.62,0,0,0,584,150a2.09,2.09,0,0,0,.82-1.66V95.18c0-.69.14-1.32,1.81-1.32h13a2.74,2.74,0,0,0,2-.79,2.09,2.09,0,0,0,.56-2.16Z" fill="#fff"/><path d="M643.69,141.51H620.8c-.92,0-.92-.27-.92-.58V121.76c0-.31,0-.58.92-.58h18a2.17,2.17,0,0,0,2.37-1.67l1.17-4.37a2.13,2.13,0,0,0-.56-2.2,2.75,2.75,0,0,0-2-.79h-19c-.92,0-.92-.27-.92-.58V94.45c0-.32,0-.59.92-.59h22.89a2.71,2.71,0,0,0,2-.79,2.11,2.11,0,0,0,.57-2.16l-1.18-4.38a2.09,2.09,0,0,0-1-1.29,2.61,2.61,0,0,0-1.43-.4H611.08a2.59,2.59,0,0,0-1.69.6,2.12,2.12,0,0,0-.82,1.67v61.16a2.11,2.11,0,0,0,.82,1.66,2.6,2.6,0,0,0,1.69.61H642.7a2.19,2.19,0,0,0,2.38-1.68l1.17-4.37a2.13,2.13,0,0,0-.56-2.19,2.75,2.75,0,0,0-2-.79" fill="#fff"/></g></g></svg>