<svg xmlns="http://www.w3.org/2000/svg" viewBox="0 0 293.57 231.23"><title>Cuadro Menguante</title><g id="Capa_2" data-name="Capa 2"><g id="Capa_1-2" data-name="Capa 1"><path d="M184.21,21.26c.52-3.07,2.71-18.67-5.77-21.18-6.07-1.8-32.76,28.54-35.21,31.34H123.6C121.15,28.62,94.47-1.72,88.39.08c-8.48,2.51-6.27,18.15-5.76,21.19,0,.32,0,.52,0,.52l5.78,26.64,0,0,9.36,45.93,25.79,12v.31h19.89v-.31l25.79-12,9.37-45.93,0,0,5.78-26.64s0-.21,0-.53M89.08,4.84c3-.61,24.33,21.22,29.65,26.73l-3,4.5c-16.33-16.55-22.56-25.66-28-23.9a5.26,5.26,0,0,0-2.29,1.54c.07-3.33.69-8.27,3.67-8.87M89,16.1c4.57-.41,24,19.55,23.84,24.41L105.3,51.82a27.41,27.41,0,0,1-3.21,3.4c-5.88,5.13-9.41-7.66-9.41-7.66S81.39,16.78,89,16.1m11.33,70.83a23.64,23.64,0,0,1-.82-3.22C99.2,82.29,95,63,94,58.44l16.31,23a29.94,29.94,0,0,0,4.37,6.42c-5.2.94-12.19,1.63-14.42-.92m18.57,7.54a10,10,0,0,0,.38,2.8c-.49-.1-1.32-.78-1.66-.6L106.4,93l12.9-2.39a19.21,19.21,0,0,0-.45,3.82h0m1.5-8.24c-3.39-.28-6.3-4.7-9.43-10.18a29.37,29.37,0,0,0,11.17,3.38c-.64,2.63-1.23,4.86-1.74,6.8M104,64.36l-.19-.27c-.21-.46-.4-.91-.6-1.35,2.6-1.62,13.48-7.53,18.94,4A9.39,9.39,0,0,1,123.53,73l-.27,1.27c-5.72-.14-12.31-3.11-19.27-9.9m35.11,37.9c-.26-.07-.53-.12-.79-.18a35.16,35.16,0,0,0-4.11-.81L137.77,99l1.38-4.39H127.69L129.07,99l3.57,2.32a32.41,32.41,0,0,0-3.87.75l-1,.23c-1.38-.69-5.24-3.24-4.21-9.76a149.55,149.55,0,0,1,3.87-18.11C129,69.28,124,49.9,103.69,58.17l17.07-23.61h25.32l17.07,23.61c-20.29-8.27-25.26,11.11-23.71,16.21a149.55,149.55,0,0,1,3.87,18.11c1,6.51-2.82,9.07-4.21,9.77M143.31,73a9.39,9.39,0,0,1,1.39-6.27c5.45-11.51,16.34-5.6,18.93-4q-.28.66-.6,1.35a.43.43,0,0,1,0,.07C156,71,149.3,74,143.54,74.08c-.08-.36-.15-.72-.23-1.09m1.4,6.27A29.54,29.54,0,0,0,156,75.89c-3.17,5.56-6.1,10-9.53,10.34-.51-2-1.12-4.27-1.77-7m4.55,17.41c-.34-.18-1.17.5-1.65.6a13.47,13.47,0,0,0-.08-6.64L160.43,93Zm18.11-13a22.26,22.26,0,0,1-.82,3.22c-2.22,2.55-9.22,1.86-14.41.91a30,30,0,0,0,4.37-6.42l16.3-23c-1,4.59-5.17,23.84-5.44,25.26m6.79-36.15s-3.54,12.79-9.41,7.66a26.25,26.25,0,0,1-3.22-3.42L154,40.51c-.14-4.86,19.27-24.82,23.85-24.41,7.56.68-3.73,31.46-3.73,31.46m5-35.39c-5.48-1.76-11.72,7.35-28,23.9l-3-4.5c5.32-5.5,26.64-27.34,29.64-26.73s3.6,5.53,3.67,8.86a5.36,5.36,0,0,0-2.28-1.53" fill="#fff" fill-rule="evenodd"/><path d="M28.13,187.63q0,14.26-14.08,14.3T0,187.63V140.38q0-14.26,14.05-14.26t14.08,14.26v8.46H20.86v-8.46q0-7.11-6.77-7.15H14q-6.75,0-6.74,7.15v47.25q0,7.16,6.78,7.15t6.81-7.15v-8.46h7.27Z" fill="#fff"/><path d="M79.1,187.63q0,14.26-14.09,14.31T51,187.63V140.39q0-14.28,14-14.27T79.1,140.39Zm-7.27-47.24q0-7.12-6.78-7.16H65q-6.75,0-6.74,7.16v47.24q0,7.16,6.77,7.15t6.82-7.15Z" fill="#fff"/><polygon points="107.34 127.34 116.47 163.49 125.6 127.34 133.31 127.34 120.12 169.82 120.12 200.67 112.85 200.67 112.85 169.82 99.7 127.34 107.34 127.34" fill="#fff"/><path d="M180,187.63q0,14.26-14.08,14.31t-14-14.31V140.39q0-14.28,14-14.27T180,140.39Zm-7.27-47.24q0-7.12-6.78-7.16h-.07q-6.75,0-6.74,7.16v47.24c0,4.77,2.25,7.15,6.78,7.15s6.81-2.38,6.81-7.15Z" fill="#fff"/><polygon points="229.14 127.34 229.14 134.42 218.7 134.42 218.7 200.67 211.48 200.67 211.48 134.42 201.01 134.42 201.01 127.34 229.14 127.34" fill="#fff"/><polygon points="273.4 160.43 273.4 167.59 258.13 167.59 258.13 193.59 275.86 193.59 275.86 200.67 250.86 200.67 250.86 127.35 275.86 127.35 275.86 134.43 258.13 134.43 258.13 160.43 273.4 160.43" fill="#fff"/><path d="M3.2,221.56h4c3.07,0,5.16,1.94,5.16,4.78s-2.09,4.78-5.16,4.78h-4Zm4,8.38c2.36,0,3.88-1.45,3.88-3.6s-1.52-3.59-3.88-3.59H4.56v7.19Z" fill="#fff"/><rect x="14.48" y="221.56" width="1.37" height="9.57" fill="#fff"/><path d="M17.85,230l.5-1.06a4.94,4.94,0,0,0,3.16,1.1c1.65,0,2.36-.64,2.36-1.47,0-2.34-5.79-.86-5.79-4.42,0-1.47,1.15-2.73,3.66-2.73a5.64,5.64,0,0,1,3.08.85l-.45,1.09a5,5,0,0,0-2.63-.78c-1.62,0-2.32.68-2.32,1.52,0,2.34,5.79.87,5.79,4.38,0,1.47-1.17,2.72-3.7,2.72a5.67,5.67,0,0,1-3.66-1.2" fill="#fff"/><polygon points="34.15 229.94 34.15 231.12 27.21 231.12 27.21 221.56 33.96 221.56 33.96 222.75 28.58 222.75 28.58 225.68 33.37 225.68 33.37 226.85 28.58 226.85 28.58 229.94 34.15 229.94" fill="#fff"/><path d="M44.59,221.56v9.56H43.47L37.73,224v7.13H36.37v-9.56h1.12l5.74,7.13v-7.13Zm-5.68-.89h-.74c0-1,.55-1.67,1.34-1.67s1.31.93,1.82.93.67-.31.69-.82h.74c0,1-.54,1.63-1.34,1.63s-1.31-.92-1.81-.92-.67.32-.7.85" fill="#fff"/><path d="M46.69,226.34a5.08,5.08,0,1,1,5.09,4.89,4.86,4.86,0,0,1-5.09-4.89m8.8,0A3.72,3.72,0,1,0,51.78,230a3.6,3.6,0,0,0,3.71-3.68" fill="#fff"/><rect x="77.33" y="221.56" width="1.37" height="9.57" fill="#fff"/><polygon points="90.44 231.12 90.42 224.15 86.96 229.96 86.33 229.96 82.88 224.19 82.88 231.12 81.57 231.12 81.57 221.56 82.69 221.56 86.68 228.28 90.61 221.56 91.73 221.56 91.75 231.12 90.44 231.12" fill="#fff"/><path d="M102.34,224.89c0,2.08-1.5,3.34-4,3.34H96v2.89H94.62v-9.56h3.73c2.49,0,4,1.25,4,3.33m-1.37,0c0-1.36-.91-2.14-2.66-2.14H96V227h2.33c1.75,0,2.66-.78,2.66-2.15" fill="#fff"/><path d="M110.75,231.12l-2.07-2.93-.6,0h-2.36v2.91h-1.37v-9.56h3.73c2.49,0,4,1.25,4,3.33a3,3,0,0,1-2.1,3l2.27,3.21Zm0-6.23c0-1.36-.91-2.14-2.66-2.14h-2.32v4.3H108c1.75,0,2.66-.79,2.66-2.16" fill="#fff"/><polygon points="121.23 229.94 121.23 231.12 114.29 231.12 114.29 221.56 121.04 221.56 121.04 222.75 115.65 222.75 115.65 225.68 120.45 225.68 120.45 226.85 115.65 226.85 115.65 229.94 121.23 229.94" fill="#fff"/><path d="M122.57,230l.5-1.06a4.94,4.94,0,0,0,3.16,1.1c1.65,0,2.36-.64,2.36-1.47,0-2.34-5.79-.86-5.79-4.42,0-1.47,1.15-2.73,3.66-2.73a5.61,5.61,0,0,1,3.08.85l-.45,1.09a5,5,0,0,0-2.63-.78c-1.62,0-2.32.68-2.32,1.52,0,2.34,5.79.87,5.79,4.38,0,1.47-1.17,2.72-3.7,2.72a5.67,5.67,0,0,1-3.66-1.2" fill="#fff"/><rect x="131.93" y="221.56" width="1.37" height="9.57" fill="#fff"/><path d="M135.39,226.34a5.08,5.08,0,1,1,5.1,4.89,4.86,4.86,0,0,1-5.1-4.89m8.8,0a3.72,3.72,0,1,0-3.7,3.68,3.6,3.6,0,0,0,3.7-3.68M141.32,219H143l-2.3,1.78h-1.23Z" fill="#fff"/><polygon points="155.87 221.56 155.87 231.12 154.75 231.12 149.01 223.99 149.01 231.12 147.65 231.12 147.65 221.56 148.77 221.56 154.51 228.69 154.51 221.56 155.87 221.56" fill="#fff"/><path d="M176.35,226.34a4.84,4.84,0,0,1,5.07-4.89,4.68,4.68,0,0,1,3.63,1.49l-.88.86a3.55,3.55,0,0,0-2.7-1.14,3.68,3.68,0,1,0,0,7.36,3.56,3.56,0,0,0,2.7-1.15l.88.86a4.73,4.73,0,0,1-3.64,1.5,4.83,4.83,0,0,1-5.06-4.89" fill="#fff"/><path d="M186,226.34a5.09,5.09,0,1,1,5.1,4.89,4.86,4.86,0,0,1-5.1-4.89m8.8,0a3.72,3.72,0,1,0-3.7,3.68,3.59,3.59,0,0,0,3.7-3.68" fill="#fff"/><path d="M204.7,231.12l-2.07-2.93-.6,0h-2.36v2.91H198.3v-9.56H202c2.49,0,4,1.25,4,3.33a3,3,0,0,1-2.1,3l2.26,3.21Zm0-6.23c0-1.36-.91-2.14-2.66-2.14h-2.32v4.3H202c1.75,0,2.66-.79,2.66-2.16" fill="#fff"/><polygon points="210.01 222.75 206.73 222.75 206.73 221.56 214.65 221.56 214.65 222.75 211.37 222.75 211.37 231.12 210.01 231.12 210.01 222.75" fill="#fff"/><polygon points="223.08 229.94 223.08 231.12 216.14 231.12 216.14 221.56 222.89 221.56 222.89 222.75 217.5 222.75 217.5 225.68 222.3 225.68 222.3 226.85 217.5 226.85 217.5 229.94 223.08 229.94" fill="#fff"/><polygon points="228.97 221.56 230.34 221.56 230.34 229.94 235.52 229.94 235.52 231.12 228.97 231.12 228.97 221.56" fill="#fff"/><path d="M243.22,228.73h-5.08l-1,2.4h-1.41l4.33-9.57h1.36l4.34,9.57h-1.43Zm-.47-1.09L240.68,223l-2.06,4.69Zm-1.85-6.86h-1.23l1.86-1.78h1.67Z" fill="#fff"/><path d="M246.26,230l.5-1.06a4.94,4.94,0,0,0,3.16,1.1c1.65,0,2.37-.64,2.37-1.47,0-2.34-5.8-.86-5.8-4.42,0-1.47,1.15-2.73,3.66-2.73a5.59,5.59,0,0,1,3.08.85l-.45,1.09a5,5,0,0,0-2.63-.78c-1.62,0-2.32.68-2.32,1.52,0,2.34,5.79.87,5.79,4.38,0,1.47-1.17,2.72-3.7,2.72a5.69,5.69,0,0,1-3.66-1.2" fill="#fff"/><polygon points="262.56 229.94 262.56 231.12 255.62 231.12 255.62 221.56 262.37 221.56 262.37 222.75 256.99 222.75 256.99 225.68 261.79 225.68 261.79 226.85 256.99 226.85 256.99 229.94 262.56 229.94" fill="#fff"/><path d="M271.17,231.12l-2.06-2.93-.6,0h-2.36v2.91h-1.37v-9.56h3.73c2.49,0,4,1.25,4,3.33a3,3,0,0,1-2.1,3l2.26,3.21Zm0-6.23c0-1.36-.91-2.14-2.66-2.14h-2.32v4.3h2.32c1.75,0,2.66-.79,2.66-2.16" fill="#fff"/><path d="M67.25,226.21A1.21,1.21,0,1,1,66,225a1.21,1.21,0,0,1,1.21,1.21" fill="#fff" fill-rule="evenodd"/><path d="M166,226.21a1.21,1.21,0,1,1-1.21-1.21,1.21,1.21,0,0,1,1.21,1.21" fill="#fff" fill-rule="evenodd"/><path d="M287.58,126.25h.51a5.74,5.74,0,0,1,5.45,5.2,5.5,5.5,0,0,1-.15,2,5.76,5.76,0,0,1-11.33-1c0-.07,0-.14,0-.21v-.47s0,0,0-.06a5.61,5.61,0,0,1,.21-1.29,5.77,5.77,0,0,1,3.63-3.85,5.33,5.33,0,0,1,1.37-.3l.32,0M283.21,132a4.6,4.6,0,1,0,4.6-4.59,4.6,4.6,0,0,0-4.6,4.59" fill="#fff"/><path d="M285.28,128.86h2.49a3.57,3.57,0,0,1,1.17.17,1.49,1.49,0,0,1,.65.39,1.3,1.3,0,0,1,.34.74,2.2,2.2,0,0,1-.05.92,1.37,1.37,0,0,1-.75.85l-.32.14a1.2,1.2,0,0,1,.38.18,1.71,1.71,0,0,1,.51.59c.17.32.33.64.49,1l.51,1,0,0h-1.6s-.05,0-.07-.05c-.25-.51-.5-1-.76-1.53-.06-.11-.13-.22-.2-.33a.83.83,0,0,0-.6-.36c-.22,0-.43,0-.65,0v2.28h-1.56Zm1.56,2.68h.8a1.28,1.28,0,0,0,.27,0,.58.58,0,0,0,.46-.43,1.14,1.14,0,0,0,0-.58.54.54,0,0,0-.39-.42.93.93,0,0,0-.29-.05c-.28,0-.56,0-.84,0h0Z" fill="#fff"/></g></g></svg>