<svg xmlns="http://www.w3.org/2000/svg" viewBox="0 0 356.33 116.89"><title>Lero_logo</title><g id="Capa_2" data-name="Capa 2"><g id="Capa_1-2" data-name="Capa 1"><path d="M0,.06,17.68,0l0,16.7V83.83c0,10.91,7.67,16.37,17.09,16.37h20v16.69H29.39Q0,116.89,0,85.39Z" fill="#fff"/><path d="M187.08,31.56q0-31.5,29.39-31.5h19.59v16.7H221.81c-9.42,0-15.62,5.45-15.62,16.36l-.2,83.72H187.08Z" fill="#fff"/><path d="M245,58.5Q245,.06,300.67.06T356.33,58.5q0,58.34-55.66,58.34-55.44,0-55.67-58.34m55.67,41.75q35.07,0,35.07-42.19,0-41.31-35.07-41.3T265.6,58.06q0,42.19,35.07,42.19" fill="#fff"/><path d="M115.19,100.31q-23.06,0-30.95-18.25l65.83-29.68h0l19.71-8.89Q163.14.12,115.19.11,59.53.11,59.53,58.56q.22,58.34,55.66,58.33,29.09,0,43-15.93l-15.8-12.3q-8.74,11.64-27.16,11.65m0-83.5q23.82,0,31.45,19.07L80.42,65.44q-.3-3.49-.3-7.33,0-41.29,35.07-41.3" fill="#fff"/></g></g></svg>