<?xml version="1.0" encoding="utf-8"?>
<!-- Generator: Adobe Illustrator 23.0.3, SVG Export Plug-In . SVG Version: 6.00 Build 0)  -->
<svg version="1.1" xmlns="http://www.w3.org/2000/svg" xmlns:xlink="http://www.w3.org/1999/xlink" x="0px" y="0px"
	 viewBox="0 0 541 512" style="enable-background:new 0 0 541 512;" xml:space="preserve">
<style type="text/css">
	.st0{display:none;}
	.st1{display:inline;fill:#F2F2F2;}
	.st2{display:inline;}
	.st3{fill:#F2F2F2;}
</style>
<g id="Capa_1" class="st0">
	<g id="Instagram">
		<path class="st1" d="M197.8,7c49.9,0,99.9,0,149.8,0c2.9,0.3,5.8,0.5,8.7,0.8c18.8,1.7,38,1.7,56.4,5.4
			c48.7,9.8,82.7,38.1,99.8,85.4c8.3,22.9,10.2,46.8,10.3,70.8c0.2,57.4,0.4,114.9-0.2,172.3c-0.2,18.2-1.5,36.6-4.9,54.4
			c-9.4,48-36.8,81.9-82.8,99.9c-22.2,8.6-45.6,11-69.2,11.2c-52.9,0.5-105.7,1-158.6,0.7c-26-0.1-52.2-0.2-77.8-6.5
			C87.8,491.4,57,467.9,38.7,429c-11.3-23.9-14.7-49.6-15-75.7c-0.6-54.2-1.2-108.3-0.7-162.5c0.2-22.8,1.6-45.7,4.9-68.2
			C33,87.5,49.9,58.4,78.6,36.9c24.6-18.5,53.1-25.8,83.2-27.9C173.7,8.1,185.8,7.7,197.8,7z M273.3,464c0-0.3,0-0.5,0-0.8
			c13.2,0,26.5,0.4,39.6-0.1c28.3-1,56.9-0.8,84.9-4.2c37-4.5,62.4-25.5,73.6-61.9c5.1-16.7,6-34,6.2-51.3
			c0.5-44.4,1.1-88.8,0.8-133.1c-0.2-26.4-0.9-52.9-3.9-79.1c-4.6-40.3-30.1-67.6-69.8-75.5c-17.3-3.4-35.3-4.5-53-4.8
			c-43.7-0.7-87.5-0.6-131.2-0.5c-25.1,0.1-50.3-0.2-75.2,4.1c-38,6.7-64.1,30.8-71.8,68.6c-3.3,16.3-4.5,33.3-4.8,50
			c-0.9,40.3-1.2,80.6-0.7,120.9c0.3,28.2,1.1,56.5,3.8,84.5c2.4,26,14.4,48,36.5,63.2c17.1,11.8,36.6,16.3,56.9,17
			C201.2,462.5,237.3,463.1,273.3,464z"/>
		<path class="st1" d="M144.4,257.8C144.1,186.9,202,129,273.1,129c71,0,128.2,57.1,128.7,128.3c0.5,70.8-57.3,128.9-128.5,129.2
			C202.5,386.7,144.6,329,144.4,257.8z M272.9,341.1c46.2,0.1,83.5-36.8,83.7-83c0.2-46.2-36.7-83.6-82.9-83.8
			c-46.4-0.3-83.8,36.9-83.9,83.3C189.6,303.7,226.7,341,272.9,341.1z"/>
		<path class="st1" d="M407.7,93.9c16.8,0.3,29.7,13.9,29.3,30.9c-0.4,16.5-14,29.4-30.6,29.1c-16.5-0.3-29.7-14.1-29.3-30.9
			C377.4,106.5,391,93.6,407.7,93.9z"/>
	</g>
	<g id="Twitter">
		<g class="st2">
			<path class="st3" d="M33,463c0-140,0-280,0-419.9c1.2-0.3,1.1-1.4,1.4-2.2c4.1-13.5,13-22.3,26.5-26.5c0.8-0.3,1.9-0.2,2.2-1.4
				c140,0,280,0,419.9,0c0.2,0.2,0.3,0.6,0.5,0.7C505.7,21.1,514,32.5,514,56c0,131.8,0,263.6,0,395.3c0,1.9,0,3.8,0,5.6
				c-0.5,16.6-11.3,30.6-27.3,35.4c-1.2,0.4-2.9-0.1-3.7,1.5c-139.7,0-279.3,0-419,0c-0.5-0.3-0.9-0.8-1.5-0.9
				c-15-4-24.6-13.5-28.6-28.6C33.8,463.9,33.3,463.5,33,463z M427.1,157.9c-10.4,3.9-20.8,7.4-32.1,8.1
				c11.8-8.6,20.5-19.3,25.5-34.2c-11.8,6.8-23.4,11.3-35.6,14.4c-3.1,0.8-5.3,0.5-7.9-1.9c-27.5-26.1-72.2-22.1-94.7,8.4
				c-10.7,14.4-14.5,30.7-11.8,48.3c0.6,3.8-0.2,4.7-3.9,4.1c-4.8-0.8-9.7-0.8-14.4-1.6c-40.8-6.9-75.7-25-104.1-55.2
				c-2.8-3-5.6-6.1-8.6-9.4c-6.7,11.6-9.5,23.7-8.5,36.4c1.5,19.7,10.6,35.6,27.4,48.4c-9.6-0.1-17.1-2.2-24.2-5.7
				c-3.4-1.6-3.9-0.8-3.6,2.5c1.3,18.5,9,33.6,23.1,45.6c7.6,6.5,16.5,10.5,27.2,13.5c-9.9,2.6-18.6,2.4-27.9,1.3
				c4.4,13.2,11.9,23.3,22.4,31.3c10.6,8,22.7,12,36.9,13.1c-27.8,21.1-58.4,29.1-92.4,26.7c0.8,0.9,0.9,1.2,1.1,1.3
				c1.2,0.7,2.4,1.5,3.6,2.2c25.2,14.7,52.3,22.9,81.4,24.4c34.5,1.8,67.7-3.9,97.7-21.2c62.6-36.3,92.8-91.9,94.1-163.8
				c0.1-3.5,1-5.6,3.8-7.7c10.3-8,19.5-17.1,26.4-28.4c0.2-0.2,0.6-0.5,0.6-0.6C428,157.5,427.5,157.7,427.1,157.9z"/>
		</g>
	</g>
	<g id="FB">
		<path class="st1" d="M30.7,474.9c0-147.6,0-295.1,0-442.7C33.3,18,41.8,9.4,55.8,6.1c148.2,0,296.4,0,444.6,0
			C514.6,9.3,523,18,525.6,32.2c0,147.6,0,295.1,0,442.7c-2.8,14.6-11.5,23.3-26.1,26.1c-42.2,0-84.4,0-126.6,0
			c0.1-2.2,0.3-4.5,0.3-6.7c0-59.4,0.1-118.9-0.1-178.3c0-4.5,1-6.1,5.9-6c18,0.3,36.1,0,54.1,0.2c3.4,0,4.6-1,5.1-4.5
			c1.9-16.4,4.3-32.8,6.4-49.2c0.9-7.3,1.6-14.5,2.5-22.5c-2.8,0-4.7,0-6.6,0c-20.8,0-41.5,0-62.3,0c-3.2,0-5.1-0.4-5-4.4
			c0.2-16.4-0.1-32.9,0.2-49.3c0.2-14.8,7.6-24.1,21.1-27.4c3.6-0.9,7.3-1.3,11-1.4c13-0.2,26.1-0.2,39.1,0c3.7,0,5.1-1.1,5.1-5
			c-0.1-19.7-0.1-39.3,0-58.9c0-2.8-0.5-4.5-3.9-4.7c-9.6-0.5-19.2-1.1-28.9-1.9c-16.1-1.3-32.2-1.8-48.1,1.2
			c-30,5.6-52.4,21.3-65.2,49.5c-6.4,14.1-8.9,29.2-9.2,44.5c-0.4,17.1-0.1,34.1-0.1,51.2c0,6.4,0,6.4-6.2,6.4
			c-17.4,0-34.8,0.1-52.2-0.1c-4.1,0-5.6,1-5.6,5.4c0.2,21.9,0.1,43.8,0.1,65.7c0,1.5,0.2,3.1,0.3,5.1c2.1,0,3.9,0,5.6,0
			c17.2,0,34.5,0,51.7,0c6.2,0,6.2,0,6.2,6.4c0,59.3,0,118.5,0,177.8c0,2.3,0.2,4.5,0.3,6.7c-79.3,0-158.5,0-237.8,0
			C42.2,498.3,33.5,489.6,30.7,474.9z"/>
	</g>
	<g id="Mail" class="st2">
		<g>
			<path class="st3" d="M20.1,78.1c0-9.9-0.7-20,3.1-28.3c9.5-21,30.7-21.8,48-21.8c46,0,92,0,138,0c87.6,0,175.3,0,262.9,0
				c22.7,0,39,7.5,45.6,36.1c1.6,7.2,1.9,16.3,1.9,23.8c0.2,113.7,0.2,227.3,0.1,341c0,38.3-8.1,50.9-43.6,56.9
				c-1.1,0.1-2.3,0-3.4,0c-133.2,0-266.3,0-399.5,0c-21.4,1.1-46-0.9-52.1-27.5c-1.3-5.4,0.2-14-1-19.6
				C20.1,318.5,20.1,198.3,20.1,78.1z M489.5,165.1c-3.2,2.4-5.6,4.1-8.1,5.9c-60.9,45.5-121.8,91.1-182.7,136.6
				c-18.7,13.9-37.4,13.7-56-0.2C180.9,261.1,119,214.8,57.1,168.5c-1.4-1-2.8-1.9-4.8-3.3c0,3.3,0,5.5,0,7.8
				c0,84.1,0,168.2,0,252.2c0,18.5,5.9,27,18.7,27c133.2,0,266.3,0,399.5,0c13.2,0,18.9-8.3,18.9-27.3c0-83.9,0-167.7,0-251.6
				C489.5,171.1,489.5,168.8,489.5,165.1z M271.3,64.4c-66.2,0-132.4,0-198.6,0c-1.8,0-3.6-0.1-5.4,0.1c-9,1.1-14.9,10.1-15,23
				c-0.1,6.1,0.4,12.2-0.1,18.2c-0.6,6.9,1.5,10.1,5.7,13.2c65.3,48.6,130.6,97.2,195.6,146.4c12.1,9.2,22.9,9.1,35,0
				c62.3-47.1,124.9-93.7,187.4-140.5c4.5-3.3,10.6-5.4,12.8-10.7c2.3-5.6,0.9-14.4,0.9-21.8c0.1-19.8-5.6-27.8-19.6-27.8
				C403.7,64.4,337.5,64.4,271.3,64.4z"/>
		</g>
	</g>
	<g id="Behance">
		<g class="st2">
			<path class="st3" d="M502.8,31.4c0,151.9,0,303.8,0,455.6c-151.9,0-303.8,0-455.6,0c0-151.8,0-303.6,0-455.6
				C199.4,31.4,351.1,31.4,502.8,31.4z M117.7,160.4c0,65,0,129.4,0,194c2,0,3.6,0,5.2,0c27.4,0,54.9,0.2,82.3-0.1
				c9.7-0.1,19.6-0.8,29.1-2.8c26.2-5.5,45.3-23.7,45.3-52.4c0-16.7-4.4-31.5-18.4-41.8c-4.8-3.5-10.5-5.8-15.8-8.7
				c0.2-0.1,0.6-0.6,1.1-0.9c18.6-9.4,25.6-24.9,24-45.1c-1.5-17.9-10.1-30.6-27.2-37c-11.7-4.3-24-5.2-36.3-5.2
				c-21.5-0.1-43,0-64.5,0C134.3,160.4,126.2,160.4,117.7,160.4z M433.3,293.4c-0.9-9.6-1.1-18.6-2.8-27.4
				c-6.5-33.1-30.8-55.9-64.7-56c-25.3-0.1-45.9,9.2-60.5,30.2c-11.5,16.5-14.4,35.2-12.2,54.8c2.1,19.4,9.6,36.4,25.5,48.6
				c23.5,18.1,61.7,19.5,86.7,3.3c13-8.5,20-21.3,24.5-36c-9.6,0-18.8,0.2-28-0.1c-3.7-0.1-6.3,0.5-7.9,4.4c-1,2.3-3.3,4.2-5.3,5.9
				c-8.8,7.7-19.3,9-30.5,7.6c-17.8-2.3-27.4-16.6-26.3-35.2C365.1,293.4,398.4,293.4,433.3,293.4z M401.5,173.7
				c-26.2,0-52,0-78.1,0c0,6.4,0,12.5,0,18.5c26.2,0,52.1,0,78.1,0C401.5,185.9,401.5,179.9,401.5,173.7z"/>
			<path class="st3" d="M160.4,268.7c18.3,0,36.4-1.2,54.3,0.4c15.8,1.4,22.4,10.9,22.3,26.7c-0.1,14.2-7.7,23.2-22.1,24.6
				c-10.3,1-20.7,0.8-31,1c-7.7,0.1-15.4,0-23.4,0C160.4,303.6,160.4,286.1,160.4,268.7z"/>
			<path class="st3" d="M160.1,238.7c0-14.7,0-28.8,0-42.8c0-0.7,0.1-1.4,0.3-2.6c8.4,0,16.7-0.2,24.9,0.1
				c9.1,0.3,18.4,0.1,27.4,1.6c11.5,2,16.9,9.8,16.6,21.2c-0.3,11.8-6.1,19.1-17.3,21.4c-3.7,0.8-7.6,1-11.5,1
				C187.2,238.8,173.9,238.7,160.1,238.7z"/>
			<path class="st3" d="M393.4,268.9c-20.8,0-41.3,0-61.9,0c-0.1-13.7,9.7-29.5,31.4-29.8C380.5,238.8,392.6,250.2,393.4,268.9z"/>
		</g>
	</g>
</g>
<g id="Capa_2">
	<path class="st3" d="M80.5,26.5c126.7,0,253.4,0,380.1,0c0.7,0.3,1.3,0.7,2,0.8c10.9,2.2,19.8,7.7,27,16.3
		c5.5,6.5,8.2,14.3,10.4,22.4c0,126.7,0,253.4,0,380.1c-0.3,0.5-0.6,1-0.8,1.5c-4.9,23-23,37.9-46.6,37.9c-121.4,0-242.9,0-364.3,0
		c-4.1,0-8.4-0.4-12.4-1.4C54.8,478.7,41,460.3,41,437.7c0-121.1,0-242.3,0-363.4c0-1.3,0-2.7,0.1-4c0.8-12.9,6.2-23.5,15.6-32.1
		C63.5,31.9,71.8,28.9,80.5,26.5z M293.5,416.4c0-2.3,0-4.1,0-5.9c0-37,0-74.1,0-111.1c0-2.8,0.1-5.7,0.4-8.5
		c1.8-19.9,24-34.7,43-28.8c16,5,25.3,17.9,25.4,35.4c0.1,37.8,0,75.6,0,113.4c0,1.8,0,3.5,0,5.4c23.2,0,45.8,0,68.6,0
		c0.1-1.3,0.2-2.3,0.2-3.3c0-42.3,0.1-84.5,0-126.8c-0.1-24.8-9.8-45.4-28.7-61.2c-31-26.1-72.3-26.9-102.6,4.6
		c-2,2.1-3.7,4.3-6.5,7.6c0-9.9,0-18.3,0-26.7c-23.1,0-45.8,0-68.3,0c0,68.8,0,137.3,0,205.9C247.9,416.4,270.4,416.4,293.5,416.4z
		 M178.4,416.4c0-69,0-137.4,0-205.9c-23,0-45.6,0-68.2,0c0,68.8,0,137.3,0,205.9C133.1,416.4,155.6,416.4,178.4,416.4z
		 M185.5,129.8c0-22.8-18.6-41.4-41.2-41.3c-22.7,0.1-41.5,19-41.2,41.5c0.2,22.7,18.5,40.9,41.1,41
		C167,171.1,185.4,152.7,185.5,129.8z"/>
</g>
</svg>
