<?xml version="1.0" encoding="utf-8"?>
<!-- Generator: Adobe Illustrator 23.0.3, SVG Export Plug-In . SVG Version: 6.00 Build 0)  -->
<svg version="1.1" xmlns="http://www.w3.org/2000/svg" xmlns:xlink="http://www.w3.org/1999/xlink" x="0px" y="0px"
	 viewBox="0 0 88 87" style="enable-background:new 0 0 88 87;" xml:space="preserve">
<style type="text/css">
	.st0{fill:#F0F0F0;}
	.st1{fill:#F03A28;}
	.st2{display:none;}
	.st3{display:inline;}
</style>
<g id="Capa_1">
	<g>
		<polygon class="st0" points="209.14,-25.76 209.14,-177 236.79,-177 307.88,-70.48 307.88,-177 335.53,-177 335.53,-25.76 
			307.88,-25.76 236.79,-132.06 236.79,-25.76 		"/>
		<path class="st0" d="M363.34-25.76V-177h51.63c17.72,0,32.3,3.13,43.75,9.4c11.45,6.26,19.95,15.06,25.5,26.37
			c5.54,11.31,8.32,24.59,8.32,39.86c0,15.27-2.78,28.56-8.32,39.86c-5.55,11.31-14.05,20.09-25.5,26.36
			c-11.45,6.27-26.04,9.4-43.75,9.4H363.34z M390.99-49.52h22.69c12.68,0,22.68-2.05,30.04-6.16c7.34-4.1,12.6-10.01,15.77-17.72
			c3.17-7.7,4.75-17.03,4.75-27.97c0-10.8-1.58-20.1-4.75-27.87c-3.17-7.78-8.43-13.75-15.77-17.94
			c-7.35-4.17-17.36-6.26-30.04-6.26h-22.69V-49.52z"/>
		<path class="st0" d="M173.22-140.35c-6.06-11.15-14.49-19.97-25.07-26.23c-10.6-6.25-22.86-9.41-36.45-9.41
			c-16.9,0-31,4.46-41.9,13.25c-10.87,8.74-18.34,19.91-22.2,33.2l-0.79,2.71H74.4l0.52-1.35c2.82-7.22,7.38-13.03,13.54-17.26
			c6.17-4.23,13.99-6.37,23.24-6.37c7.08,0,13.88,1.71,20.19,5.08c6.28,3.36,11.59,8.45,15.77,15.13
			c3.87,6.18,6.21,14.01,6.97,23.28H43.87v2.12c0,2.53-0.05,4.86-0.14,6.92c-0.09,2.09-0.14,4.18-0.14,6.28
			c0,11.7,2.73,22.81,8.11,33c5.4,10.21,13.26,18.56,23.36,24.82c10.13,6.25,22.26,9.43,36.07,9.43c13.98,0,26.48-3.16,37.16-9.4
			c10.67-6.26,19.11-15.14,25.08-26.39c5.94-11.21,8.95-24.44,8.95-39.33C182.32-115.96,179.26-129.24,173.22-140.35 M154.23-85.83
			c-1.58,11.29-6.27,20.08-13.94,26.11c-8.29,6.5-17.91,9.8-28.58,9.8c-11.21,0-20.75-3.41-28.35-10.14
			C76.25-66.34,72.2-75,71.28-85.83H154.23z"/>
		<rect x="500.82" y="-52.51" class="st1" width="26.46" height="26.46"/>
	</g>
</g>
<g id="Capa_3">
	<rect x="25" y="24" class="st1" width="37" height="37"/>
</g>
<g id="Capa_2" class="st2">
	<g id="Logo_oficial" class="st3">
		<polygon class="st0" points="206.14,198.24 206.14,47 233.79,47 304.88,153.52 304.88,47 332.53,47 332.53,198.24 304.88,198.24 
			233.79,91.94 233.79,198.24 		"/>
		<path class="st0" d="M360.34,198.24V47h51.63c17.72,0,32.3,3.13,43.75,9.4c11.45,6.26,19.95,15.06,25.5,26.37
			c5.54,11.31,8.32,24.59,8.32,39.86c0,15.27-2.78,28.56-8.32,39.86c-5.55,11.31-14.05,20.09-25.5,26.36
			c-11.45,6.27-26.04,9.4-43.75,9.4H360.34z M387.99,174.48h22.69c12.68,0,22.68-2.05,30.04-6.16c7.34-4.1,12.6-10.01,15.77-17.72
			c3.17-7.7,4.75-17.03,4.75-27.97c0-10.8-1.58-20.1-4.75-27.87c-3.17-7.78-8.43-13.75-15.77-17.94
			c-7.35-4.17-17.36-6.26-30.04-6.26h-22.69V174.48z"/>
		<path class="st0" d="M170.22,83.65c-6.06-11.15-14.49-19.97-25.07-26.23C134.55,51.17,122.29,48,108.7,48
			c-16.9,0-31,4.46-41.9,13.25c-10.87,8.74-18.34,19.91-22.2,33.2l-0.79,2.71H71.4l0.52-1.35c2.82-7.22,7.38-13.03,13.54-17.26
			c6.17-4.23,13.99-6.37,23.24-6.37c7.08,0,13.88,1.71,20.19,5.08c6.28,3.36,11.59,8.45,15.77,15.13
			c3.87,6.18,6.21,14.01,6.97,23.28H40.87v2.12c0,2.53-0.05,4.86-0.14,6.92c-0.09,2.09-0.14,4.18-0.14,6.28
			c0,11.7,2.73,22.81,8.11,33c5.4,10.21,13.26,18.56,23.36,24.82c10.13,6.25,22.26,9.43,36.07,9.43c13.98,0,26.48-3.16,37.16-9.4
			c10.67-6.26,19.11-15.14,25.08-26.39c5.94-11.21,8.95-24.44,8.95-39.33C179.32,108.04,176.26,94.76,170.22,83.65 M151.23,138.17
			c-1.58,11.29-6.27,20.08-13.94,26.11c-8.29,6.5-17.91,9.8-28.58,9.8c-11.21,0-20.75-3.41-28.35-10.14
			c-7.09-6.27-11.14-14.93-12.06-25.76H151.23z"/>
		<rect x="497.82" y="171.49" class="st1" width="26.46" height="26.46"/>
		<path class="st0" d="M553.1,57.31c2.31,0,4.36,0.51,6.15,1.54c1.79,1.03,3.19,2.46,4.2,4.3c1.01,1.83,1.52,3.97,1.52,6.41
			c0,2.47-0.5,4.64-1.5,6.5c-1,1.87-2.39,3.32-4.18,4.37c-1.79,1.04-3.87,1.57-6.24,1.57c-2.31,0-4.32-0.51-6.03-1.54
			c-1.71-1.03-3.04-2.4-3.99-4.11s-1.42-3.59-1.42-5.65c0-0.32,0.01-0.66,0.02-1.02c0.02-0.36,0.04-0.77,0.07-1.21h18.32
			c-0.16-2.28-0.91-4.01-2.25-5.2c-1.35-1.19-2.9-1.78-4.68-1.78c-1.42,0-2.62,0.33-3.58,0.97c-0.97,0.65-1.69,1.53-2.16,2.63h-5.03
			c0.63-2.22,1.89-4.07,3.77-5.55C547.98,58.05,550.32,57.31,553.1,57.31 M553.1,77.86c1.68,0,3.17-0.5,4.46-1.5
			c1.3-1,2.09-2.49,2.37-4.49h-13.29c0.09,1.84,0.74,3.29,1.94,4.37C549.8,77.32,551.3,77.86,553.1,77.86"/>
		<polygon class="st0" points="575.84,81.42 567.01,57.87 572.28,57.87 578.83,76.63 585.38,57.87 590.6,57.87 581.82,81.42 		"/>
		<path class="st0" d="M604.56,81.99c-2.25,0-4.27-0.52-6.05-1.54c-1.79-1.03-3.2-2.47-4.25-4.32c-1.04-1.85-1.57-4.01-1.57-6.48
			c0-2.47,0.53-4.63,1.59-6.48c1.06-1.85,2.49-3.29,4.3-4.32c1.8-1.03,3.81-1.54,6.03-1.54c2.25,0,4.26,0.51,6.05,1.54
			c1.79,1.03,3.21,2.47,4.27,4.32c1.06,1.85,1.59,4.01,1.59,6.48c0,2.47-0.53,4.63-1.59,6.48c-1.06,1.85-2.49,3.29-4.29,4.32
			C608.83,81.47,606.81,81.99,604.56,81.99 M604.56,77.67c1.2,0,2.32-0.3,3.35-0.9c1.03-0.6,1.86-1.5,2.49-2.68
			c0.63-1.19,0.95-2.67,0.95-4.44c0-1.77-0.31-3.25-0.92-4.44c-0.62-1.19-1.44-2.08-2.47-2.68c-1.03-0.6-2.14-0.9-3.35-0.9
			c-1.2,0-2.32,0.3-3.34,0.9c-1.03,0.6-1.86,1.5-2.49,2.68c-0.63,1.19-0.95,2.67-0.95,4.44c0,1.77,0.32,3.25,0.95,4.44
			c0.63,1.19,1.46,2.08,2.47,2.68C602.25,77.37,603.36,77.67,604.56,77.67"/>
		<rect x="621.98" y="47.24" class="st0" width="5.03" height="34.18"/>
		<polygon class="st0" points="639.97,81.42 631.14,57.87 636.41,57.87 642.96,76.63 649.51,57.87 654.74,57.87 645.95,81.42 		"/>
		<path class="st0" d="M659.2,57.87h5.03v23.55h-5.03V57.87z M664.38,48.49h-4.98v4.98h4.98V48.49z"/>
		<path class="st0" d="M670.87,81.42V57.87h4.46l0.38,4.13c0.73-1.46,1.8-2.6,3.2-3.44c1.41-0.84,3.03-1.26,4.87-1.26
			c2.85,0,5.09,0.89,6.72,2.66c1.63,1.77,2.45,4.41,2.45,7.93v13.53h-4.99V68.41c0-4.56-1.87-6.84-5.6-6.84
			c-1.87,0-3.41,0.66-4.63,1.99c-1.22,1.33-1.83,3.23-1.83,5.7v12.15H670.87z"/>
		<path class="st0" d="M708.52,74.2c-1.23,0-2.37-0.14-3.42-0.43l-2.04,1.99c0.35,0.22,0.78,0.41,1.28,0.57
			c0.51,0.16,1.22,0.3,2.14,0.43c0.92,0.13,2.17,0.25,3.75,0.38c3.13,0.28,5.39,1.04,6.79,2.25c1.39,1.22,2.09,2.84,2.09,4.87
			c0,1.39-0.37,2.71-1.12,3.96c-0.74,1.25-1.9,2.26-3.47,3.04c-1.57,0.77-3.57,1.16-6.01,1.16c-3.29,0-5.96-0.62-8-1.87
			c-2.04-1.25-3.06-3.14-3.06-5.67c0-0.98,0.26-1.95,0.78-2.92c0.52-0.97,1.35-1.87,2.49-2.73c-0.66-0.29-1.24-0.59-1.73-0.93
			c-0.49-0.33-0.92-0.67-1.3-1.02v-1.14l4.08-4.18c-1.84-1.58-2.75-3.66-2.75-6.22c0-1.55,0.37-2.97,1.11-4.25
			c0.74-1.28,1.83-2.3,3.25-3.06c1.42-0.76,3.13-1.14,5.13-1.14c1.33,0,2.56,0.19,3.7,0.57H721v3.32l-4.18,0.24
			c0.76,1.3,1.14,2.74,1.14,4.32c0,1.58-0.37,3.01-1.12,4.27c-0.74,1.27-1.82,2.28-3.23,3.04C712.21,73.82,710.51,74.2,708.52,74.2
			 M702.2,84.41c0,1.36,0.6,2.38,1.8,3.06c1.2,0.68,2.71,1.02,4.51,1.02c1.74,0,3.15-0.37,4.23-1.12c1.07-0.74,1.61-1.73,1.61-2.97
			c0-0.92-0.36-1.7-1.09-2.35c-0.73-0.65-2.11-1.05-4.13-1.21c-1.52-0.1-2.87-0.24-4.03-0.43c-1.11,0.6-1.87,1.25-2.28,1.95
			C702.41,83.06,702.2,83.75,702.2,84.41 M708.52,70.26c1.46,0,2.64-0.39,3.54-1.16c0.9-0.77,1.35-1.87,1.35-3.3
			c0-1.46-0.45-2.56-1.35-3.32c-0.9-0.76-2.08-1.14-3.54-1.14c-1.49,0-2.68,0.38-3.58,1.14c-0.9,0.76-1.35,1.87-1.35,3.32
			c0,1.42,0.45,2.52,1.35,3.3C705.83,69.88,707.03,70.26,708.52,70.26"/>
		<path class="st0" d="M541.32,116.68V93.13h4.46l0.38,4.13c0.73-1.46,1.8-2.6,3.2-3.44c1.41-0.84,3.03-1.26,4.87-1.26
			c2.85,0,5.09,0.89,6.72,2.66c1.63,1.77,2.45,4.41,2.45,7.93v13.53h-4.99v-13.01c0-4.56-1.87-6.84-5.6-6.84
			c-1.87,0-3.41,0.66-4.63,1.99c-1.22,1.33-1.83,3.23-1.83,5.7v12.15H541.32z"/>
		<path class="st0" d="M579.96,92.56c2.31,0,4.36,0.51,6.15,1.54c1.79,1.03,3.19,2.46,4.2,4.3c1.01,1.83,1.52,3.97,1.52,6.41
			c0,2.47-0.5,4.64-1.5,6.5c-1,1.87-2.39,3.32-4.18,4.37c-1.79,1.04-3.87,1.57-6.24,1.57c-2.31,0-4.32-0.51-6.03-1.54
			c-1.71-1.03-3.04-2.4-3.99-4.11c-0.95-1.71-1.42-3.59-1.42-5.65c0-0.32,0.01-0.66,0.02-1.02c0.02-0.36,0.04-0.77,0.07-1.21h18.32
			c-0.16-2.28-0.91-4.01-2.25-5.2c-1.34-1.19-2.9-1.78-4.68-1.78c-1.42,0-2.62,0.33-3.58,0.97c-0.96,0.65-1.68,1.53-2.16,2.63h-5.03
			c0.63-2.22,1.89-4.07,3.77-5.55C574.84,93.3,577.18,92.56,579.96,92.56 M579.96,113.12c1.68,0,3.17-0.5,4.46-1.5
			c1.3-1,2.09-2.49,2.37-4.49H573.5c0.09,1.83,0.74,3.29,1.95,4.37C576.65,112.58,578.16,113.12,579.96,113.12"/>
		<polygon class="st0" points="600.8,116.68 593.87,93.13 598.9,93.13 603.46,110.88 608.58,93.13 614.19,93.13 619.31,110.88 
			623.87,93.13 628.9,93.13 621.97,116.68 616.8,116.68 611.39,98.16 605.97,116.68 		"/>
		<path class="st0" d="M553.2,159.97c-2.28,0-4.29-0.54-6.03-1.61c-1.74-1.08-3.1-2.55-4.08-4.42c-0.98-1.87-1.47-3.99-1.47-6.36
			c0-2.37,0.49-4.49,1.47-6.34c0.98-1.85,2.35-3.31,4.11-4.37c1.76-1.06,3.77-1.59,6.05-1.59c1.87,0,3.5,0.36,4.91,1.09
			c1.41,0.73,2.51,1.76,3.3,3.09v-14.24h5.03v34.18h-4.51l-0.52-3.65c-0.76,1.11-1.8,2.09-3.13,2.94
			C556.99,159.54,555.29,159.97,553.2,159.97 M554.1,155.6c2.15,0,3.92-0.74,5.29-2.23c1.38-1.49,2.06-3.4,2.06-5.74
			c0-2.37-0.69-4.3-2.06-5.77c-1.38-1.47-3.14-2.21-5.29-2.21c-2.15,0-3.92,0.74-5.32,2.21c-1.39,1.47-2.09,3.39-2.09,5.77
			c0,1.55,0.32,2.93,0.95,4.13c0.63,1.2,1.51,2.14,2.63,2.82C551.4,155.26,552.67,155.6,554.1,155.6"/>
		<path class="st0" d="M583.48,135.28c2.31,0,4.36,0.51,6.15,1.54c1.79,1.03,3.19,2.46,4.2,4.3c1.01,1.84,1.52,3.97,1.52,6.41
			c0,2.47-0.5,4.64-1.5,6.5c-1,1.87-2.39,3.32-4.18,4.37c-1.79,1.04-3.87,1.57-6.24,1.57c-2.31,0-4.32-0.52-6.03-1.54
			c-1.71-1.03-3.04-2.4-3.99-4.11c-0.95-1.71-1.42-3.59-1.42-5.65c0-0.32,0.01-0.66,0.02-1.02c0.02-0.36,0.04-0.77,0.07-1.21h18.32
			c-0.16-2.28-0.91-4.01-2.25-5.2c-1.35-1.19-2.9-1.78-4.68-1.78c-1.43,0-2.62,0.33-3.58,0.97c-0.97,0.65-1.69,1.53-2.16,2.63h-5.03
			c0.63-2.22,1.89-4.07,3.77-5.55C578.37,136.02,580.7,135.28,583.48,135.28 M583.48,155.84c1.68,0,3.16-0.5,4.46-1.5
			c1.3-1,2.09-2.49,2.37-4.49h-13.29c0.09,1.84,0.74,3.29,1.95,4.37C580.18,155.3,581.68,155.84,583.48,155.84"/>
		<path class="st0" d="M609.97,159.97c-2.97,0-5.43-0.73-7.36-2.18c-1.93-1.45-3.04-3.39-3.32-5.79h5.08c0.26,1.07,0.85,2,1.8,2.78
			c0.95,0.78,2.2,1.16,3.75,1.16c1.52,0,2.63-0.32,3.32-0.95c0.7-0.63,1.05-1.36,1.05-2.18c0-1.2-0.48-2.02-1.45-2.45
			c-0.97-0.43-2.3-0.81-4.01-1.16c-1.33-0.29-2.65-0.67-3.96-1.14c-1.31-0.48-2.4-1.15-3.27-2.02c-0.87-0.87-1.31-2.05-1.31-3.54
			c0-2.06,0.79-3.77,2.37-5.15c1.58-1.38,3.8-2.06,6.64-2.06c2.63,0,4.76,0.63,6.39,1.9c1.63,1.27,2.59,3.05,2.87,5.36h-4.84
			c-0.16-1.01-0.63-1.8-1.4-2.37c-0.78-0.57-1.81-0.85-3.11-0.85c-1.27,0-2.25,0.26-2.94,0.78c-0.7,0.52-1.04,1.2-1.04,2.02
			c0,0.82,0.48,1.47,1.45,1.95c0.96,0.48,2.24,0.9,3.82,1.28c1.58,0.35,3.05,0.75,4.39,1.21c1.35,0.46,2.43,1.13,3.25,2.02
			c0.82,0.89,1.23,2.18,1.23,3.89c0.03,2.15-0.8,3.94-2.49,5.36C615.19,159.25,612.88,159.97,609.97,159.97"/>
		<path class="st0" d="M625.21,135.85h5.03v23.55h-5.03V135.85z M630.79,125.62h-4.98v4.98h4.98V125.62z"/>
		<path class="st0" d="M646.52,152.18c-1.23,0-2.37-0.14-3.42-0.43l-2.04,1.99c0.35,0.22,0.77,0.41,1.28,0.57
			c0.5,0.16,1.22,0.3,2.14,0.43c0.92,0.12,2.17,0.25,3.75,0.38c3.13,0.29,5.39,1.04,6.79,2.25c1.39,1.22,2.09,2.84,2.09,4.87
			c0,1.39-0.37,2.71-1.12,3.96c-0.74,1.25-1.9,2.26-3.47,3.04c-1.57,0.78-3.57,1.16-6,1.16c-3.29,0-5.96-0.62-8-1.87
			c-2.04-1.25-3.06-3.14-3.06-5.67c0-0.98,0.26-1.95,0.78-2.92c0.52-0.97,1.35-1.87,2.49-2.73c-0.66-0.29-1.24-0.59-1.73-0.93
			c-0.49-0.33-0.92-0.67-1.31-1.02v-1.14l4.08-4.18c-1.83-1.58-2.75-3.66-2.75-6.22c0-1.55,0.37-2.97,1.12-4.25
			c0.74-1.28,1.83-2.3,3.25-3.06c1.42-0.76,3.13-1.14,5.13-1.14c1.33,0,2.56,0.19,3.7,0.57h8.78v3.32l-4.18,0.24
			c0.76,1.3,1.14,2.74,1.14,4.32c0,1.58-0.37,3.01-1.12,4.27c-0.74,1.27-1.82,2.28-3.23,3.04
			C650.22,151.8,648.52,152.18,646.52,152.18 M640.21,162.39c0,1.36,0.6,2.38,1.8,3.06c1.2,0.68,2.71,1.02,4.51,1.02
			c1.74,0,3.15-0.37,4.23-1.12c1.07-0.74,1.61-1.73,1.61-2.97c0-0.92-0.36-1.7-1.09-2.35c-0.73-0.65-2.1-1.05-4.13-1.21
			c-1.52-0.1-2.86-0.24-4.03-0.43c-1.11,0.6-1.87,1.25-2.28,1.95C640.41,161.04,640.21,161.72,640.21,162.39 M646.52,148.24
			c1.45,0,2.63-0.39,3.54-1.16c0.9-0.78,1.35-1.88,1.35-3.3c0-1.46-0.45-2.56-1.35-3.32c-0.9-0.76-2.08-1.14-3.54-1.14
			c-1.49,0-2.68,0.38-3.58,1.14c-0.9,0.76-1.35,1.87-1.35,3.32c0,1.42,0.45,2.52,1.35,3.3
			C643.84,147.86,645.03,148.24,646.52,148.24"/>
		<path class="st0" d="M663.52,159.4v-23.55h4.46l0.38,4.13c0.73-1.46,1.8-2.6,3.2-3.44c1.41-0.84,3.03-1.26,4.87-1.26
			c2.85,0,5.09,0.89,6.72,2.66c1.63,1.77,2.44,4.42,2.44,7.93v13.53h-4.98v-13.01c0-4.56-1.87-6.84-5.6-6.84
			c-1.87,0-3.41,0.66-4.63,1.99c-1.22,1.33-1.83,3.23-1.83,5.7v12.15H663.52z"/>
	</g>
</g>
</svg>
