<?xml version="1.0" encoding="utf-8"?>
<!-- Generator: Adobe Illustrator 23.0.3, SVG Export Plug-In . SVG Version: 6.00 Build 0)  -->
<svg version="1.1" xmlns="http://www.w3.org/2000/svg" xmlns:xlink="http://www.w3.org/1999/xlink" x="0px" y="0px"
	 viewBox="0 0 665 235" style="enable-background:new 0 0 665 235;" xml:space="preserve">
<style type="text/css">
	.st0{fill:#000033;}
	.st1{fill:#F03A28;}
</style>
<g id="Capa_1">
</g>
<g id="Capa_2">
</g>
<g id="Capa_3">
	<g>
		<polygon class="st0" points="230.3,214.36 230.3,19.12 266,19.12 357.77,156.63 357.77,19.12 393.47,19.12 393.47,214.36 
			357.77,214.36 266,77.13 266,214.36 		"/>
		<path class="st0" d="M429.36,214.36V19.12h66.66c22.87,0,41.7,4.04,56.48,12.13c14.78,8.09,25.75,19.44,32.92,34.04
			c7.15,14.6,10.74,31.75,10.74,51.46c0,19.71-3.58,36.87-10.74,51.46c-7.17,14.6-18.13,25.94-32.92,34.02
			c-14.78,8.09-33.61,12.13-56.48,12.13H429.36z M465.06,183.68h29.28c16.36,0,29.28-2.65,38.77-7.96
			c9.48-5.29,16.27-12.92,20.36-22.87c4.09-9.94,6.13-21.99,6.13-36.11c0-13.95-2.04-25.95-6.13-35.98
			c-4.09-10.04-10.88-17.75-20.36-23.15c-9.49-5.39-22.41-8.08-38.77-8.08h-29.28V183.68z"/>
		<path class="st0" d="M183.93,66.43c-7.82-14.4-18.71-25.78-32.36-33.86c-13.68-8.06-29.52-12.15-47.06-12.15
			c-21.82,0-40.02,5.76-54.09,17.11C36.39,48.8,26.75,63.22,21.77,80.38l-1.02,3.5h35.62l0.67-1.75
			c3.65-9.33,9.52-16.82,17.48-22.28c7.96-5.46,18.06-8.22,29.99-8.22c9.14,0,17.91,2.2,26.06,6.56
			c8.11,4.34,14.96,10.91,20.36,19.53c4.99,7.98,8.02,18.08,9,30.06H16.96v2.74c0,3.27-0.06,6.27-0.18,8.93
			c-0.12,2.7-0.19,5.39-0.19,8.11c0,15.11,3.52,29.44,10.47,42.6c6.97,13.18,17.12,23.96,30.16,32.04
			c13.07,8.07,28.74,12.17,46.57,12.17c18.05,0,34.19-4.08,47.97-12.14c13.78-8.08,24.68-19.54,32.38-34.07
			c7.67-14.47,11.55-31.54,11.55-50.77C195.68,97.92,191.73,80.78,183.93,66.43 M159.41,136.81c-2.05,14.58-8.1,25.92-18,33.7
			c-10.7,8.39-23.11,12.65-36.9,12.65c-14.47,0-26.79-4.41-36.6-13.09c-9.15-8.09-14.39-19.28-15.57-33.26H159.41z"/>
		<rect x="606.84" y="179.83" class="st1" width="34.16" height="34.16"/>
	</g>
</g>
</svg>
