<?xml version="1.0" encoding="utf-8"?>
<!-- Generator: Adobe Illustrator 23.0.3, SVG Export Plug-In . SVG Version: 6.00 Build 0)  -->
<svg version="1.1" xmlns="http://www.w3.org/2000/svg" xmlns:xlink="http://www.w3.org/1999/xlink" x="0px" y="0px"
	 viewBox="0 0 759 235" style="enable-background:new 0 0 759 235;" xml:space="preserve">
<style type="text/css">
	.st0{fill:#000033;}
	.st1{fill:#F03A28;}
</style>
<g id="Capa_1">
</g>
<g id="Capa_2">
	<g id="Logo_fondo_blanco_3_">
		<polygon class="st0" points="201.61,195.92 201.61,37.18 230.63,37.18 305.24,148.98 305.24,37.18 334.27,37.18 334.27,195.92 
			305.24,195.92 230.63,84.34 230.63,195.92 		"/>
		<path class="st0" d="M363.45,195.92V37.18h54.2c18.59,0,33.9,3.29,45.92,9.86c12.02,6.58,20.93,15.81,26.76,27.67
			c5.82,11.87,8.73,25.81,8.73,41.84c0,16.03-2.91,29.97-8.73,41.84c-5.83,11.87-14.74,21.09-26.76,27.66
			c-12.02,6.58-27.33,9.86-45.92,9.86H363.45z M392.48,170.97h23.81c13.3,0,23.81-2.16,31.53-6.47c7.7-4.3,13.23-10.5,16.55-18.6
			c3.33-8.08,4.98-17.88,4.98-29.36c0-11.34-1.66-21.1-4.98-29.25c-3.33-8.17-8.85-14.44-16.55-18.83
			c-7.72-4.38-18.22-6.57-31.53-6.57h-23.81V170.97z"/>
		<path class="st0" d="M163.9,75.64c-6.36-11.7-15.21-20.96-26.31-27.53c-11.13-6.56-24-9.88-38.26-9.88
			c-17.74,0-32.54,4.68-43.98,13.91c-11.41,9.17-19.25,20.9-23.3,34.84l-0.83,2.85h28.96l0.54-1.42
			c2.96-7.58,7.74-13.68,14.21-18.12c6.47-4.44,14.68-6.68,24.39-6.68c7.43,0,14.56,1.79,21.19,5.33
			c6.59,3.53,12.16,8.87,16.56,15.88c4.06,6.49,6.52,14.7,7.32,24.44H28.15v2.23c0,2.66-0.05,5.1-0.15,7.26
			c-0.1,2.2-0.15,4.39-0.15,6.59c0,12.28,2.86,23.94,8.51,34.64c5.67,10.71,13.92,19.48,24.52,26.05c10.63,6.56,23.37,9.9,37.86,9.9
			c14.67,0,27.79-3.32,39-9.87c11.2-6.57,20.06-15.89,26.33-27.7c6.23-11.76,9.39-25.65,9.39-41.28
			C173.46,101.25,170.24,87.31,163.9,75.64 M143.97,132.86c-1.66,11.85-6.58,21.07-14.64,27.4c-8.7,6.82-18.79,10.28-30,10.28
			c-11.77,0-21.78-3.58-29.76-10.64c-7.44-6.58-11.7-15.67-12.66-27.04H143.97z"/>
		<rect x="507.75" y="167.84" class="st1" width="27.77" height="27.77"/>
		<path class="st0" d="M565.77,47.99c2.43,0,4.58,0.54,6.45,1.62c1.88,1.08,3.35,2.58,4.41,4.51c1.06,1.93,1.59,4.17,1.59,6.73
			c0,2.59-0.52,4.87-1.57,6.82c-1.05,1.96-2.51,3.49-4.38,4.59c-1.88,1.1-4.06,1.64-6.55,1.64c-2.43,0-4.53-0.54-6.33-1.62
			c-1.79-1.08-3.19-2.51-4.18-4.31c-1-1.79-1.49-3.77-1.49-5.93c0-0.33,0.01-0.69,0.02-1.07c0.02-0.38,0.04-0.81,0.08-1.27h19.23
			c-0.16-2.39-0.95-4.21-2.37-5.46c-1.41-1.25-3.05-1.87-4.91-1.87c-1.49,0-2.75,0.34-3.76,1.02c-1.01,0.68-1.77,1.6-2.27,2.77
			h-5.28c0.66-2.33,1.98-4.27,3.96-5.83C560.4,48.77,562.85,47.99,565.77,47.99 M565.77,69.57c1.76,0,3.32-0.52,4.68-1.57
			c1.36-1.05,2.19-2.62,2.49-4.71H559c0.1,1.93,0.78,3.45,2.04,4.58C562.3,69,563.88,69.57,565.77,69.57"/>
		<polygon class="st0" points="589.64,73.3 580.37,48.59 585.9,48.59 592.78,68.27 599.66,48.59 605.14,48.59 595.92,73.3 		"/>
		<path class="st0" d="M619.78,73.9c-2.36,0-4.48-0.54-6.35-1.62c-1.88-1.08-3.36-2.59-4.46-4.53c-1.1-1.94-1.64-4.21-1.64-6.8
			c0-2.59,0.56-4.86,1.67-6.8c1.11-1.94,2.61-3.45,4.51-4.53c1.89-1.08,4-1.62,6.33-1.62c2.36,0,4.48,0.54,6.35,1.62
			c1.88,1.08,3.37,2.59,4.48,4.53c1.11,1.94,1.67,4.21,1.67,6.8c0,2.59-0.56,4.86-1.67,6.8c-1.11,1.94-2.61,3.46-4.51,4.53
			C624.27,73.36,622.14,73.9,619.78,73.9 M619.78,69.37c1.26,0,2.43-0.32,3.51-0.95c1.08-0.63,1.95-1.57,2.61-2.82
			c0.66-1.25,1-2.8,1-4.66c0-1.86-0.32-3.41-0.97-4.66c-0.65-1.25-1.51-2.18-2.59-2.82c-1.08-0.63-2.25-0.95-3.51-0.95
			c-1.26,0-2.43,0.32-3.51,0.95c-1.08,0.63-1.95,1.57-2.62,2.82c-0.66,1.25-1,2.8-1,4.66c0,1.86,0.33,3.41,1,4.66
			c0.66,1.25,1.53,2.18,2.59,2.82C617.36,69.05,618.52,69.37,619.78,69.37"/>
		<rect x="638.07" y="37.43" class="st0" width="5.28" height="35.87"/>
		<polygon class="st0" points="656.95,73.3 647.68,48.59 653.22,48.59 660.09,68.27 666.97,48.59 672.45,48.59 663.23,73.3 		"/>
		<path class="st0" d="M677.13,48.59h5.28V73.3h-5.28V48.59z M682.57,38.73h-5.22v5.22h5.22V38.73z"/>
		<path class="st0" d="M689.39,73.3V48.59h4.68l0.4,4.34c0.76-1.53,1.88-2.73,3.36-3.61c1.48-0.88,3.18-1.32,5.11-1.32
			c2.99,0,5.34,0.93,7.05,2.79c1.71,1.86,2.57,4.63,2.57,8.32v14.2h-5.23V59.65c0-4.78-1.96-7.17-5.88-7.17
			c-1.96,0-3.58,0.7-4.86,2.09c-1.28,1.39-1.92,3.39-1.92,5.98V73.3H689.39z"/>
		<path class="st0" d="M728.9,65.73c-1.29,0-2.49-0.15-3.59-0.45l-2.14,2.09c0.37,0.23,0.81,0.43,1.35,0.6
			c0.53,0.17,1.28,0.32,2.24,0.45c0.96,0.13,2.28,0.27,3.94,0.4c3.29,0.3,5.66,1.09,7.12,2.36c1.46,1.28,2.19,2.98,2.19,5.11
			c0,1.46-0.39,2.85-1.17,4.16c-0.78,1.31-1.99,2.38-3.64,3.19c-1.64,0.81-3.75,1.22-6.3,1.22c-3.45,0-6.25-0.65-8.39-1.97
			c-2.14-1.31-3.22-3.3-3.22-5.95c0-1.03,0.27-2.05,0.82-3.06c0.55-1.01,1.42-1.97,2.62-2.87c-0.7-0.3-1.3-0.62-1.82-0.97
			c-0.52-0.35-0.97-0.7-1.37-1.07v-1.2l4.28-4.38c-1.93-1.66-2.89-3.84-2.89-6.53c0-1.63,0.39-3.11,1.17-4.46
			c0.78-1.35,1.92-2.42,3.41-3.21c1.49-0.8,3.29-1.2,5.38-1.2c1.4,0,2.69,0.2,3.89,0.6H742v3.49l-4.38,0.25
			c0.8,1.36,1.2,2.87,1.2,4.53c0,1.66-0.39,3.16-1.17,4.48c-0.78,1.33-1.91,2.39-3.39,3.19C732.77,65.33,730.99,65.73,728.9,65.73
			 M722.27,76.44c0,1.43,0.63,2.5,1.89,3.21c1.26,0.71,2.84,1.07,4.73,1.07c1.83,0,3.31-0.39,4.44-1.17
			c1.13-0.78,1.69-1.82,1.69-3.11c0-0.96-0.38-1.79-1.14-2.47c-0.77-0.68-2.21-1.1-4.34-1.27c-1.59-0.1-3.01-0.25-4.23-0.45
			c-1.16,0.63-1.96,1.31-2.39,2.04C722.49,75.03,722.27,75.74,722.27,76.44 M728.9,61.59c1.53,0,2.77-0.41,3.71-1.22
			c0.95-0.81,1.42-1.97,1.42-3.46c0-1.53-0.47-2.69-1.42-3.49c-0.95-0.8-2.18-1.2-3.71-1.2c-1.56,0-2.82,0.4-3.76,1.2
			c-0.95,0.8-1.42,1.96-1.42,3.49c0,1.49,0.47,2.65,1.42,3.46C726.08,61.19,727.33,61.59,728.9,61.59"/>
		<path class="st0" d="M553.41,110.31V85.59h4.68l0.4,4.33c0.76-1.53,1.88-2.73,3.36-3.61c1.48-0.88,3.18-1.32,5.11-1.32
			c2.99,0,5.34,0.93,7.05,2.79c1.71,1.86,2.57,4.63,2.57,8.32v14.2h-5.23V96.65c0-4.78-1.96-7.17-5.88-7.17
			c-1.96,0-3.58,0.7-4.86,2.09c-1.28,1.39-1.92,3.39-1.92,5.98v12.75H553.41z"/>
		<path class="st0" d="M593.96,85c2.43,0,4.58,0.54,6.45,1.62c1.88,1.08,3.35,2.58,4.41,4.51c1.06,1.93,1.59,4.17,1.59,6.73
			c0,2.59-0.53,4.87-1.57,6.83c-1.05,1.96-2.51,3.49-4.38,4.58c-1.88,1.1-4.06,1.64-6.55,1.64c-2.43,0-4.53-0.54-6.33-1.62
			c-1.79-1.08-3.19-2.51-4.19-4.31c-0.99-1.79-1.49-3.77-1.49-5.93c0-0.33,0.01-0.69,0.03-1.07c0.02-0.38,0.04-0.81,0.08-1.27h19.23
			c-0.17-2.39-0.95-4.21-2.37-5.46c-1.41-1.25-3.05-1.87-4.91-1.87c-1.49,0-2.75,0.34-3.76,1.02c-1.01,0.68-1.77,1.6-2.27,2.77
			h-5.28c0.66-2.33,1.98-4.27,3.96-5.83C588.59,85.78,591.04,85,593.96,85 M593.96,106.57c1.76,0,3.32-0.52,4.68-1.57
			c1.36-1.05,2.19-2.62,2.49-4.71h-13.95c0.1,1.93,0.78,3.45,2.04,4.58C590.49,106,592.07,106.57,593.96,106.57"/>
		<polygon class="st0" points="615.84,110.31 608.56,85.59 613.84,85.59 618.63,104.23 624.01,85.59 629.89,85.59 635.27,104.23 
			640.05,85.59 645.33,85.59 638.06,110.31 632.63,110.31 626.95,90.88 621.27,110.31 		"/>
		<path class="st0" d="M565.87,155.74c-2.39,0-4.5-0.57-6.33-1.69c-1.83-1.13-3.26-2.67-4.28-4.63c-1.03-1.96-1.54-4.18-1.54-6.68
			s0.51-4.71,1.54-6.65c1.03-1.94,2.46-3.47,4.31-4.58c1.84-1.11,3.96-1.67,6.35-1.67c1.96,0,3.68,0.38,5.16,1.15
			c1.48,0.76,2.63,1.84,3.46,3.24v-14.95h5.28v35.87h-4.73l-0.55-3.84c-0.8,1.16-1.89,2.19-3.29,3.09
			C569.86,155.3,568.07,155.74,565.87,155.74 M566.82,151.16c2.26,0,4.11-0.78,5.55-2.34c1.45-1.56,2.17-3.57,2.17-6.03
			c0-2.49-0.72-4.51-2.17-6.05c-1.44-1.54-3.3-2.32-5.55-2.32c-2.26,0-4.12,0.77-5.58,2.32c-1.46,1.54-2.19,3.56-2.19,6.05
			c0,1.63,0.33,3.07,1,4.33c0.66,1.26,1.59,2.25,2.76,2.96C563.99,150.8,565.33,151.16,566.82,151.16"/>
		<path class="st0" d="M597.66,129.84c2.42,0,4.58,0.54,6.45,1.62c1.88,1.08,3.35,2.58,4.41,4.51c1.06,1.93,1.59,4.17,1.59,6.73
			c0,2.59-0.52,4.87-1.57,6.83c-1.05,1.96-2.51,3.49-4.38,4.58c-1.88,1.1-4.06,1.64-6.55,1.64c-2.43,0-4.53-0.54-6.33-1.62
			c-1.79-1.08-3.19-2.52-4.18-4.31c-1-1.79-1.49-3.77-1.49-5.93c0-0.33,0.01-0.69,0.02-1.07c0.02-0.38,0.04-0.81,0.07-1.27h19.23
			c-0.16-2.39-0.95-4.21-2.36-5.46c-1.41-1.25-3.05-1.87-4.91-1.87c-1.5,0-2.75,0.34-3.76,1.02c-1.01,0.68-1.77,1.6-2.27,2.77h-5.28
			c0.66-2.33,1.98-4.27,3.96-5.83C592.29,130.61,594.74,129.84,597.66,129.84 M597.66,151.41c1.76,0,3.32-0.52,4.68-1.57
			c1.36-1.05,2.19-2.62,2.49-4.71h-13.95c0.1,1.93,0.78,3.45,2.04,4.58C594.19,150.84,595.77,151.41,597.66,151.41"/>
		<path class="st0" d="M625.46,155.74c-3.12,0-5.7-0.76-7.72-2.29c-2.03-1.53-3.19-3.55-3.49-6.08h5.33c0.27,1.13,0.9,2.1,1.89,2.91
			c1,0.81,2.31,1.22,3.94,1.22c1.59,0,2.76-0.33,3.49-1c0.73-0.66,1.1-1.43,1.1-2.29c0-1.26-0.51-2.12-1.52-2.57
			c-1.01-0.45-2.42-0.85-4.21-1.22c-1.4-0.3-2.78-0.7-4.16-1.2c-1.38-0.5-2.52-1.2-3.44-2.12c-0.91-0.91-1.37-2.15-1.37-3.71
			c0-2.16,0.83-3.96,2.49-5.41c1.66-1.44,3.99-2.17,6.97-2.17c2.76,0,4.99,0.66,6.7,1.99c1.71,1.33,2.72,3.21,3.02,5.63h-5.08
			c-0.17-1.06-0.66-1.89-1.47-2.49c-0.81-0.6-1.9-0.9-3.26-0.9c-1.33,0-2.36,0.27-3.09,0.82c-0.73,0.55-1.1,1.25-1.1,2.12
			c0,0.86,0.51,1.54,1.52,2.04c1.01,0.5,2.35,0.95,4.01,1.34c1.66,0.37,3.2,0.79,4.61,1.27c1.41,0.48,2.55,1.19,3.41,2.12
			c0.86,0.93,1.3,2.29,1.3,4.09c0.03,2.26-0.84,4.14-2.61,5.63C630.94,155,628.52,155.74,625.46,155.74"/>
		<path class="st0" d="M641.46,130.43h5.28v24.71h-5.28V130.43z M647.32,119.7h-5.22v5.22h5.22V119.7z"/>
		<path class="st0" d="M663.83,147.57c-1.3,0-2.49-0.15-3.59-0.45l-2.14,2.09c0.37,0.23,0.81,0.43,1.35,0.6
			c0.53,0.17,1.28,0.32,2.24,0.45c0.96,0.13,2.27,0.26,3.94,0.4c3.29,0.3,5.66,1.09,7.12,2.37c1.46,1.28,2.19,2.98,2.19,5.11
			c0,1.46-0.39,2.85-1.17,4.16c-0.78,1.31-1.99,2.38-3.64,3.19c-1.64,0.81-3.74,1.22-6.3,1.22c-3.45,0-6.25-0.66-8.4-1.97
			c-2.14-1.31-3.21-3.3-3.21-5.95c0-1.03,0.27-2.05,0.82-3.07c0.55-1.01,1.42-1.97,2.61-2.87c-0.7-0.3-1.3-0.62-1.82-0.97
			c-0.52-0.35-0.97-0.7-1.37-1.07v-1.2l4.28-4.38c-1.93-1.66-2.89-3.84-2.89-6.53c0-1.63,0.39-3.11,1.17-4.46
			c0.78-1.34,1.92-2.42,3.41-3.21c1.49-0.8,3.29-1.2,5.38-1.2c1.4,0,2.69,0.2,3.89,0.6h9.22v3.49l-4.38,0.25
			c0.8,1.36,1.2,2.87,1.2,4.53c0,1.66-0.39,3.16-1.17,4.48c-0.78,1.33-1.91,2.39-3.39,3.19
			C667.71,147.17,665.92,147.57,663.83,147.57 M657.2,158.29c0,1.43,0.63,2.5,1.89,3.21c1.26,0.71,2.84,1.07,4.73,1.07
			c1.83,0,3.3-0.39,4.44-1.17c1.13-0.78,1.69-1.82,1.69-3.11c0-0.96-0.38-1.79-1.15-2.47c-0.76-0.68-2.21-1.1-4.34-1.27
			c-1.59-0.1-3.01-0.25-4.23-0.45c-1.16,0.63-1.96,1.31-2.39,2.04C657.42,156.87,657.2,157.59,657.2,158.29 M663.83,143.44
			c1.53,0,2.76-0.4,3.71-1.22c0.95-0.81,1.42-1.97,1.42-3.46c0-1.53-0.47-2.69-1.42-3.49c-0.95-0.8-2.19-1.19-3.71-1.19
			c-1.56,0-2.82,0.4-3.76,1.19c-0.95,0.8-1.42,1.96-1.42,3.49c0,1.49,0.47,2.65,1.42,3.46
			C661.01,143.03,662.27,143.44,663.83,143.44"/>
		<path class="st0" d="M681.66,155.15v-24.71h4.68l0.4,4.34c0.76-1.53,1.88-2.73,3.36-3.61c1.48-0.88,3.18-1.32,5.11-1.32
			c2.99,0,5.34,0.93,7.05,2.79c1.71,1.86,2.57,4.63,2.57,8.32v14.2h-5.23V141.5c0-4.78-1.96-7.18-5.88-7.18
			c-1.96,0-3.58,0.7-4.86,2.09c-1.28,1.39-1.92,3.39-1.92,5.98v12.75H681.66z"/>
	</g>
</g>
</svg>
