<?xml version="1.0" encoding="utf-8"?>
<!-- Generator: Adobe Illustrator 23.0.3, SVG Export Plug-In . SVG Version: 6.00 Build 0)  -->
<svg version="1.1" xmlns="http://www.w3.org/2000/svg" xmlns:xlink="http://www.w3.org/1999/xlink" x="0px" y="0px"
	 viewBox="0 0 422.35 415.01" style="enable-background:new 0 0 422.35 415.01;" xml:space="preserve">
<style type="text/css">
	.st0{display:none;}
	.st1{display:inline;fill:#000033;}
	.st2{display:inline;fill:#F33A28;}
	.st3{display:inline;opacity:0.63;}
	.st4{clip-path:url(#SVGID_2_);fill:#000033;}
	.st5{clip-path:url(#SVGID_4_);fill:#707070;}
	.st6{opacity:0.63;fill:#000033;}
	.st7{opacity:0.63;fill:#F33A28;}
	.st8{opacity:0.63;fill:none;}
</style>
<g id="Capa_1" class="st0">
	<path class="st1" d="M444.4,526.22c-2.3,0.37-4.43,0.18-6.37-0.55c-1.95-0.74-3.57-1.94-4.87-3.61c-1.3-1.67-2.15-3.71-2.54-6.14
		c-0.4-2.46-0.24-4.7,0.45-6.72c0.7-2.02,1.85-3.69,3.46-5.02c1.61-1.33,3.61-2.18,5.97-2.56c2.3-0.37,4.39-0.18,6.26,0.57
		c1.87,0.75,3.41,1.9,4.63,3.45c1.22,1.55,1.99,3.35,2.32,5.4c0.05,0.32,0.1,0.66,0.14,1.02c0.04,0.36,0.08,0.77,0.12,1.22
		l-18.26,2.93c0.52,2.25,1.55,3.85,3.08,4.82c1.53,0.97,3.18,1.31,4.95,1.03c1.42-0.23,2.56-0.74,3.42-1.54
		c0.86-0.8,1.43-1.79,1.73-2.97l5.01-0.81c-0.28,2.31-1.23,4.36-2.87,6.14C449.39,524.66,447.18,525.77,444.4,526.22 M441.12,505.73
		c-1.67,0.27-3.08,1-4.21,2.2c-1.13,1.2-1.68,2.82-1.65,4.85l13.25-2.12c-0.39-1.82-1.27-3.16-2.64-4.04
		C444.5,505.74,442.91,505.45,441.12,505.73"/>
	<polygon class="st1" points="467.43,523.58 458.9,499.67 464.22,499.76 470.53,518.79 477.44,499.97 482.71,500.06 473.47,523.68 	
		"/>
	<path class="st1" d="M496.79,526.36c-2.24-0.37-4.16-1.21-5.78-2.53c-1.61-1.32-2.79-2.98-3.53-5c-0.74-2.01-0.9-4.25-0.5-6.71
		c0.4-2.46,1.28-4.52,2.64-6.19c1.36-1.67,3.02-2.87,4.98-3.6c1.96-0.73,4.05-0.91,6.26-0.55c2.24,0.37,4.16,1.21,5.78,2.53
		c1.61,1.32,2.8,2.98,3.55,5c0.75,2.02,0.93,4.26,0.53,6.71c-0.4,2.46-1.29,4.52-2.64,6.2c-1.36,1.67-3.02,2.87-4.98,3.6
		C501.13,526.55,499.03,526.73,496.79,526.36 M497.49,522.06c1.2,0.2,2.36,0.08,3.48-0.35c1.12-0.43,2.1-1.18,2.92-2.26
		c0.83-1.08,1.38-2.5,1.67-4.27c0.29-1.76,0.23-3.29-0.2-4.57c-0.42-1.28-1.09-2.31-2.02-3.08c-0.93-0.77-1.99-1.25-3.19-1.45
		s-2.36-0.08-3.48,0.35c-1.12,0.43-2.1,1.18-2.92,2.26c-0.82,1.08-1.38,2.5-1.67,4.26c-0.29,1.77-0.22,3.29,0.22,4.58
		c0.44,1.29,1.11,2.31,2.02,3.08C495.24,521.38,496.3,521.86,497.49,522.06"/>
	
		<rect x="504.99" y="511.44" transform="matrix(0.287 -0.9579 0.9579 0.287 -119.9878 866.7571)" class="st1" width="34.5" height="5.08"/>
	<polygon class="st1" points="532.9,536.03 534.23,510.68 539.1,512.81 537.6,532.8 551.22,518.1 556.06,520.2 538.43,538.44 	"/>
	<path class="st1" d="M551.15,544.98l12.07-20.47l4.37,2.58l-12.07,20.47L551.15,544.98z M567.7,521.91
		c-0.83-0.49-1.36-1.14-1.59-1.97c-0.24-0.82-0.13-1.62,0.33-2.39c0.46-0.77,1.1-1.25,1.94-1.44c0.84-0.19,1.67-0.05,2.49,0.44
		c0.82,0.49,1.36,1.14,1.59,1.97c0.24,0.83,0.13,1.62-0.33,2.39c-0.45,0.77-1.1,1.25-1.94,1.45
		C569.36,522.55,568.53,522.4,567.7,521.91"/>
	<path class="st1" d="M562.08,551.36l14.59-18.76l3.56,2.77l-2.26,3.53c1.48-0.71,3.04-0.96,4.68-0.76c1.64,0.21,3.2,0.88,4.66,2.01
		c2.27,1.76,3.5,3.86,3.71,6.28c0.2,2.42-0.79,5.03-2.96,7.83l-8.38,10.78l-3.97-3.09l8.06-10.36c2.82-3.63,2.75-6.61-0.23-8.92
		c-1.49-1.16-3.13-1.58-4.92-1.28c-1.8,0.3-3.46,1.44-4.99,3.41l-7.53,9.68L562.08,551.36z"/>
	<path class="st1" d="M596.36,571.84c-0.84-0.92-1.51-1.87-2.01-2.84l-2.88-0.17c0.07,0.41,0.22,0.86,0.45,1.34
		c0.23,0.48,0.6,1.11,1.14,1.88c0.53,0.77,1.29,1.79,2.27,3.05c1.92,2.53,2.9,4.73,2.94,6.6c0.04,1.87-0.7,3.49-2.21,4.87
		c-1.04,0.95-2.28,1.57-3.71,1.86c-1.44,0.3-2.98,0.12-4.62-0.52c-1.64-0.64-3.29-1.87-4.95-3.69c-2.24-2.46-3.59-4.87-4.04-7.24
		c-0.46-2.37,0.26-4.42,2.15-6.14c0.73-0.67,1.63-1.14,2.71-1.4c1.07-0.27,2.32-0.27,3.73,0c-0.24-0.69-0.4-1.33-0.49-1.92
		c-0.09-0.59-0.13-1.15-0.13-1.67l0.85-0.77l5.89,0.2c-0.07-2.45,0.85-4.54,2.76-6.28c1.16-1.06,2.46-1.74,3.93-2.06
		c1.46-0.32,2.96-0.2,4.49,0.34s2.98,1.56,4.34,3.05c0.9,0.99,1.6,2.04,2.09,3.15l5.97,6.55l-2.48,2.26l-3.02-2.95
		c-0.45,1.45-1.27,2.71-2.45,3.79c-1.18,1.08-2.5,1.77-3.94,2.07c-1.45,0.31-2.94,0.19-4.46-0.34
		C599.16,574.33,597.72,573.32,596.36,571.84 M584.45,574.07c-1.01,0.93-1.37,2.07-1.05,3.43c0.31,1.36,1.08,2.71,2.31,4.06
		c1.18,1.3,2.42,2.09,3.7,2.39c1.29,0.3,2.39,0.02,3.31-0.81c0.68-0.63,1.02-1.43,1.01-2.41c-0.01-0.98-0.65-2.29-1.91-3.9
		c-0.96-1.2-1.77-2.3-2.42-3.3c-1.2-0.42-2.2-0.54-3-0.37C585.6,573.31,584.95,573.62,584.45,574.07 M599.3,569.16
		c0.99,1.09,2.08,1.7,3.27,1.85c1.19,0.15,2.32-0.27,3.38-1.24c1.08-0.99,1.6-2.08,1.56-3.27c-0.05-1.19-0.57-2.33-1.56-3.41
		c-1.01-1.11-2.11-1.74-3.29-1.9c-1.18-0.16-2.31,0.26-3.4,1.25c-1.06,0.97-1.58,2.05-1.54,3.25
		C597.76,566.89,598.28,568.05,599.3,569.16"/>
	<path class="st1" d="M610,601.26l21-11.13l2.11,3.98l-3.5,2.29c1.64-0.04,3.17,0.37,4.58,1.23c1.41,0.86,2.55,2.11,3.42,3.74
		c1.35,2.54,1.61,4.96,0.8,7.25c-0.81,2.29-2.78,4.27-5.91,5.93l-12.07,6.4l-2.36-4.45l11.6-6.15c4.06-2.16,5.21-4.9,3.45-8.23
		c-0.88-1.67-2.2-2.73-3.97-3.18c-1.76-0.46-3.74-0.1-5.94,1.06l-10.84,5.74L610,601.26z"/>
	<path class="st1" d="M625.79,637.71c-0.72-2.22-0.86-4.35-0.42-6.38s1.38-3.83,2.83-5.37c1.45-1.54,3.34-2.69,5.69-3.44
		c2.37-0.77,4.61-0.96,6.71-0.58c2.1,0.38,3.93,1.27,5.49,2.66c1.56,1.39,2.7,3.23,3.44,5.51c0.72,2.22,0.84,4.31,0.39,6.27
		c-0.46,1.96-1.36,3.66-2.71,5.1c-1.35,1.44-3.01,2.48-4.98,3.12c-0.31,0.1-0.64,0.2-0.99,0.29c-0.36,0.1-0.75,0.2-1.18,0.31
		l-5.68-17.6c-2.14,0.86-3.57,2.12-4.3,3.78c-0.72,1.66-0.81,3.34-0.26,5.04c0.44,1.37,1.12,2.42,2.04,3.14
		c0.92,0.73,1.99,1.15,3.2,1.26l1.56,4.83c-2.32,0.08-4.49-0.56-6.51-1.91C628.09,642.39,626.65,640.38,625.79,637.71
		 M645.54,631.34c-0.52-1.61-1.46-2.89-2.82-3.82c-1.36-0.94-3.04-1.23-5.04-0.89l4.12,12.77c1.73-0.66,2.93-1.73,3.59-3.22
		C646.04,634.68,646.09,633.07,645.54,631.34"/>
	<polygon class="st1" points="631.77,657.79 654.57,648.09 655.16,653.14 637.89,659.78 656.29,662.85 656.94,668.46 639.74,675.68 
		658.07,678.17 658.66,683.22 634.24,679.02 633.64,673.83 651.57,666.24 632.38,662.98 	"/>
	<path class="st1" d="M631.36,714.39c0.39-2.27,1.27-4.17,2.64-5.72c1.37-1.55,3.07-2.65,5.09-3.3c2.03-0.65,4.22-0.78,6.58-0.37
		c2.36,0.41,4.38,1.26,6.05,2.56c1.67,1.29,2.88,2.91,3.64,4.84c0.75,1.93,0.93,4.03,0.54,6.29c-0.32,1.86-0.96,3.42-1.93,4.7
		c-0.97,1.28-2.18,2.19-3.64,2.75l14.16,2.45l-0.87,5l-33.99-5.89l0.78-4.48l3.73,0.11c-0.97-0.95-1.77-2.15-2.39-3.62
		C631.13,718.24,631,716.46,631.36,714.39 M635.55,716.04c-0.37,2.14,0.06,4.02,1.31,5.65c1.24,1.63,3.03,2.64,5.36,3.04
		c2.36,0.41,4.39,0.06,6.09-1.06c1.7-1.11,2.74-2.74,3.11-4.88c0.37-2.14-0.05-4.03-1.28-5.67c-1.23-1.64-3.02-2.66-5.38-3.07
		c-1.54-0.27-2.97-0.19-4.27,0.23c-1.3,0.42-2.39,1.13-3.26,2.13C636.35,713.41,635.79,714.62,635.55,716.04"/>
	<path class="st1" d="M623.34,744.55c0.81-2.19,2.01-3.95,3.61-5.28c1.6-1.33,3.45-2.16,5.54-2.47c2.09-0.32,4.29-0.05,6.6,0.8
		c2.34,0.86,4.21,2.09,5.63,3.69c1.42,1.6,2.31,3.42,2.67,5.48c0.36,2.06,0.13,4.21-0.7,6.46c-0.81,2.19-2,3.91-3.57,5.17
		c-1.57,1.26-3.33,2.04-5.28,2.34c-1.95,0.3-3.9,0.09-5.85-0.63c-0.3-0.11-0.62-0.24-0.96-0.38c-0.34-0.14-0.71-0.31-1.12-0.49
		l6.41-17.35c-2.21-0.65-4.12-0.54-5.71,0.32c-1.59,0.86-2.7,2.13-3.32,3.8c-0.5,1.35-0.61,2.59-0.33,3.73
		c0.28,1.14,0.86,2.13,1.74,2.97l-1.76,4.76c-1.88-1.38-3.19-3.21-3.94-5.52C622.25,749.66,622.37,747.19,623.34,744.55
		 M642.8,751.74c0.59-1.59,0.64-3.17,0.15-4.75c-0.49-1.58-1.63-2.85-3.42-3.82l-4.65,12.59c1.77,0.55,3.38,0.45,4.82-0.32
		C641.13,754.68,642.17,753.45,642.8,751.74"/>
	<path class="st1" d="M611.96,768.81c1.49-2.61,3.35-4.39,5.59-5.36c2.24-0.97,4.49-0.97,6.74-0.02l-2.54,4.45
		c-1.07-0.32-2.18-0.25-3.34,0.19c-1.16,0.44-2.12,1.35-2.9,2.71c-0.76,1.33-1.04,2.46-0.83,3.39s0.67,1.6,1.39,2.01
		c1.06,0.6,2.01,0.59,2.87-0.05c0.86-0.63,1.86-1.61,3.03-2.93c0.92-1.02,1.91-1.99,2.98-2.91s2.21-1.53,3.41-1.86
		c1.2-0.33,2.45-0.12,3.75,0.62c1.8,1.03,2.91,2.58,3.33,4.66c0.42,2.08-0.09,4.36-1.51,6.86c-1.31,2.3-2.93,3.85-4.86,4.65
		c-1.93,0.8-3.97,0.74-6.14-0.16l2.42-4.25c0.97,0.37,1.9,0.36,2.78-0.04c0.89-0.4,1.66-1.16,2.3-2.3c0.63-1.11,0.9-2.1,0.79-2.97
		c-0.11-0.87-0.53-1.51-1.25-1.92c-0.72-0.41-1.53-0.31-2.43,0.3c-0.9,0.61-1.91,1.51-3.03,2.71c-1.1,1.21-2.18,2.29-3.26,3.24
		c-1.07,0.95-2.21,1.56-3.4,1.84c-1.19,0.28-2.53-0.01-4.03-0.86c-1.9-1.05-3.05-2.67-3.46-4.87
		C609.98,773.74,610.5,771.36,611.96,768.81"/>
	<path class="st1" d="M603.65,782.85l19.12,14.12l-3.02,4.09l-19.12-14.11L603.65,782.85z M624.88,801.68
		c0.57-0.77,1.27-1.23,2.12-1.38c0.85-0.15,1.63,0.04,2.35,0.57c0.72,0.53,1.13,1.22,1.24,2.08c0.11,0.85-0.13,1.66-0.69,2.43
		c-0.57,0.77-1.28,1.23-2.12,1.38c-0.84,0.15-1.63-0.04-2.35-0.57c-0.72-0.53-1.13-1.22-1.24-2.08
		C624.08,803.26,624.31,802.45,624.88,801.68"/>
	<path class="st1" d="M594.68,805.14c0.86-0.91,1.75-1.64,2.69-2.21l-0.04-2.88c-0.4,0.1-0.84,0.28-1.31,0.54
		c-0.47,0.26-1.07,0.68-1.8,1.27c-0.73,0.58-1.69,1.41-2.89,2.48c-2.39,2.1-4.51,3.23-6.37,3.4c-1.86,0.17-3.53-0.45-5.01-1.85
		c-1.02-0.97-1.73-2.16-2.13-3.57c-0.4-1.41-0.34-2.96,0.18-4.65c0.52-1.69,1.63-3.42,3.32-5.2c2.29-2.41,4.6-3.93,6.93-4.55
		c2.33-0.62,4.43-0.06,6.28,1.7c0.72,0.68,1.25,1.55,1.59,2.6c0.34,1.05,0.43,2.29,0.27,3.72c0.67-0.29,1.3-0.5,1.88-0.63
		c0.58-0.13,1.13-0.21,1.65-0.25l0.83,0.79l0.22,5.89c2.43-0.24,4.59,0.53,6.46,2.31c1.14,1.08,1.91,2.33,2.33,3.77
		c0.42,1.43,0.42,2.94-0.02,4.51c-0.44,1.57-1.35,3.08-2.73,4.54c-0.92,0.97-1.92,1.74-2.99,2.31l-6.1,6.43l-2.43-2.31l2.73-3.22
		c-1.48-0.35-2.79-1.07-3.95-2.17c-1.16-1.1-1.94-2.36-2.35-3.79c-0.41-1.42-0.4-2.92,0.02-4.47
		C592.39,808.11,593.3,806.6,594.68,805.14 M591.6,793.42c-0.99-0.95-2.16-1.22-3.49-0.81c-1.33,0.41-2.63,1.27-3.88,2.59
		c-1.21,1.27-1.92,2.56-2.12,3.87c-0.2,1.3,0.15,2.38,1.05,3.24c0.67,0.64,1.5,0.92,2.48,0.83c0.98-0.08,2.23-0.81,3.76-2.18
		c1.13-1.05,2.16-1.93,3.12-2.66c0.33-1.23,0.38-2.24,0.16-3.02C592.44,794.51,592.09,793.89,591.6,793.42 M597.57,807.88
		c-1.01,1.07-1.55,2.2-1.61,3.4c-0.06,1.2,0.43,2.29,1.47,3.28c1.06,1.01,2.19,1.45,3.37,1.32c1.18-0.13,2.28-0.73,3.29-1.8
		c1.03-1.09,1.59-2.23,1.66-3.41c0.07-1.19-0.43-2.29-1.49-3.3c-1.04-0.99-2.16-1.42-3.35-1.3
		C599.71,806.19,598.6,806.79,597.57,807.88"/>
	<path class="st1" d="M576.82,812.59l14.2,19.05l-3.61,2.69l-2.8-3.11c0.29,1.62,0.12,3.19-0.52,4.72
		c-0.63,1.53-1.69,2.85-3.18,3.95c-2.31,1.72-4.65,2.35-7.04,1.9c-2.39-0.45-4.64-2.1-6.76-4.94l-8.16-10.95l4.03-3.01l7.85,10.52
		c2.75,3.69,5.64,4.4,8.66,2.15c1.51-1.13,2.36-2.6,2.54-4.41c0.18-1.81-0.47-3.72-1.96-5.71l-7.33-9.83L576.82,812.59z"/>
	<path class="st1" d="M492.71,849.43c2.31-0.32,4.43-0.1,6.36,0.68c1.93,0.78,3.53,2.01,4.8,3.71c1.27,1.69,2.08,3.76,2.42,6.19
		c0.35,2.47,0.15,4.7-0.58,6.71c-0.73,2.01-1.92,3.66-3.56,4.95c-1.64,1.29-3.65,2.11-6.02,2.44c-2.31,0.32-4.39,0.09-6.24-0.7
		c-1.85-0.79-3.37-1.97-4.56-3.55c-1.19-1.58-1.93-3.39-2.22-5.45c-0.04-0.32-0.08-0.66-0.12-1.02c-0.03-0.37-0.07-0.77-0.1-1.22
		l18.32-2.57c-0.48-2.26-1.47-3.88-2.98-4.88c-1.51-1-3.15-1.37-4.92-1.13c-1.42,0.2-2.57,0.69-3.45,1.47
		c-0.87,0.78-1.47,1.76-1.79,2.94l-5.03,0.71c0.32-2.3,1.32-4.33,2.99-6.08C487.69,850.89,489.92,849.82,492.71,849.43
		 M495.59,869.98c1.68-0.23,3.09-0.94,4.25-2.12c1.16-1.18,1.74-2.78,1.74-4.82l-13.29,1.86c0.35,1.82,1.2,3.18,2.56,4.09
		C492.21,869.9,493.78,870.23,495.59,869.98"/>
	<polygon class="st1" points="469.71,851.58 478.13,875.52 472.82,875.41 466.59,856.35 459.59,875.14 454.32,875.03 463.68,851.45 
			"/>
	<path class="st1" d="M440.38,848.27c2.23,0.41,4.14,1.29,5.73,2.64c1.59,1.35,2.73,3.04,3.43,5.07c0.7,2.03,0.82,4.27,0.37,6.72
		c-0.45,2.45-1.37,4.5-2.76,6.14c-1.39,1.65-3.08,2.81-5.05,3.5c-1.98,0.69-4.07,0.83-6.27,0.43c-2.23-0.41-4.14-1.29-5.73-2.64
		c-1.59-1.35-2.74-3.04-3.45-5.07c-0.71-2.03-0.84-4.27-0.39-6.72c0.45-2.45,1.37-4.5,2.76-6.14c1.39-1.64,3.08-2.81,5.05-3.5
		C436.04,847.99,438.15,847.86,440.38,848.27 M439.59,852.55c-1.19-0.22-2.36-0.13-3.49,0.28c-1.13,0.41-2.12,1.14-2.97,2.21
		c-0.84,1.06-1.43,2.47-1.76,4.23c-0.32,1.76-0.29,3.28,0.11,4.57c0.4,1.29,1.05,2.33,1.96,3.11c0.91,0.78,1.96,1.29,3.16,1.51
		c1.19,0.22,2.36,0.13,3.49-0.28c1.13-0.41,2.12-1.14,2.97-2.21s1.43-2.47,1.75-4.23c0.32-1.76,0.28-3.29-0.13-4.58
		c-0.41-1.29-1.06-2.33-1.96-3.11C441.83,853.28,440.78,852.77,439.59,852.55"/>
	
		<rect x="397.4" y="857.59" transform="matrix(0.306 -0.952 0.952 0.306 -531.1075 991.6836)" class="st1" width="34.5" height="5.08"/>
	<polygon class="st1" points="404.44,837.88 402.6,863.19 397.77,860.97 399.67,841.01 385.76,855.44 380.97,853.24 398.95,835.35 	
		"/>
	<path class="st1" d="M369.39,851.32c0.82,0.5,1.33,1.17,1.55,2c0.22,0.83,0.09,1.63-0.37,2.39c-0.47,0.76-1.12,1.23-1.96,1.41
		c-0.84,0.18-1.67,0.01-2.48-0.49c-0.82-0.5-1.33-1.17-1.55-2c-0.22-0.83-0.1-1.63,0.37-2.39c0.47-0.76,1.13-1.23,1.96-1.41
		C367.74,850.65,368.57,850.81,369.39,851.32 M386.38,828.58l-12.47,20.23l-4.32-2.66l12.47-20.23L386.38,828.58z"/>
	<path class="st1" d="M375.55,821.96l-14.96,18.47l-3.5-2.83l2.33-3.48c-1.49,0.68-3.06,0.9-4.7,0.66c-1.64-0.24-3.17-0.94-4.62-2.1
		c-2.23-1.81-3.43-3.93-3.58-6.35c-0.15-2.42,0.89-5.02,3.12-7.77l8.59-10.61l3.91,3.17l-8.26,10.2c-2.9,3.57-2.88,6.55,0.05,8.92
		c1.47,1.19,3.1,1.64,4.9,1.38c1.8-0.27,3.49-1.37,5.05-3.31l7.72-9.53L375.55,821.96z"/>
	<path class="st1" d="M341.68,800.81c0.82,0.94,1.47,1.9,1.95,2.88l2.87,0.22c-0.06-0.41-0.2-0.86-0.42-1.35
		c-0.22-0.49-0.58-1.13-1.1-1.9c-0.51-0.78-1.25-1.82-2.21-3.1c-1.87-2.57-2.8-4.79-2.8-6.65c0-1.87,0.77-3.47,2.3-4.82
		c1.06-0.93,2.31-1.52,3.75-1.79c1.44-0.27,2.98-0.06,4.61,0.61c1.63,0.67,3.26,1.93,4.88,3.78c2.19,2.5,3.49,4.94,3.9,7.32
		c0.41,2.38-0.35,4.41-2.27,6.1c-0.74,0.65-1.66,1.1-2.74,1.35c-1.08,0.25-2.32,0.22-3.73-0.08c0.23,0.69,0.38,1.34,0.45,1.93
		c0.07,0.59,0.11,1.15,0.09,1.67l-0.86,0.76l-5.89-0.32c0.02,2.45-0.94,4.52-2.89,6.23c-1.18,1.03-2.5,1.69-3.97,1.98
		c-1.47,0.29-2.96,0.14-4.49-0.43c-1.52-0.58-2.95-1.62-4.28-3.13c-0.88-1.01-1.56-2.07-2.03-3.19l-5.84-6.66l2.52-2.21l2.96,3.01
		c0.48-1.44,1.32-2.68,2.52-3.74c1.2-1.05,2.53-1.72,3.98-2c1.46-0.28,2.94-0.13,4.45,0.43
		C338.93,798.26,340.35,799.3,341.68,800.81 M338.69,803.43c-0.97-1.1-2.05-1.74-3.24-1.91c-1.19-0.17-2.32,0.22-3.41,1.17
		c-1.1,0.97-1.65,2.05-1.62,3.24c0.03,1.19,0.52,2.34,1.49,3.44c0.99,1.13,2.07,1.78,3.25,1.96c1.18,0.18,2.32-0.21,3.42-1.18
		c1.08-0.95,1.62-2.02,1.6-3.22C340.18,805.72,339.68,804.56,338.69,803.43 M353.63,798.81c1.03-0.91,1.41-2.04,1.12-3.41
		c-0.28-1.36-1.03-2.73-2.23-4.1c-1.16-1.32-2.38-2.14-3.66-2.47c-1.28-0.32-2.39-0.07-3.33,0.75c-0.7,0.61-1.05,1.41-1.06,2.39
		c-0.01,0.98,0.6,2.3,1.83,3.94c0.94,1.22,1.73,2.33,2.36,3.35c1.19,0.44,2.19,0.59,2.99,0.43
		C352.47,799.55,353.12,799.25,353.63,798.81"/>
	<path class="st1" d="M328.64,771.15l-21.21,10.71l-2.03-4.02l3.55-2.22c-1.64,0.01-3.16-0.43-4.56-1.32
		c-1.4-0.89-2.51-2.16-3.35-3.81c-1.3-2.57-1.52-4.99-0.66-7.26c0.86-2.27,2.87-4.21,6.03-5.81l12.19-6.16l2.27,4.49l-11.72,5.92
		c-4.11,2.07-5.31,4.79-3.61,8.16c0.85,1.68,2.15,2.77,3.9,3.26c1.75,0.49,3.74,0.18,5.96-0.95l10.95-5.53L328.64,771.15z"/>
	<path class="st1" d="M313.58,734.41c0.67,2.23,0.77,4.36,0.3,6.39c-0.47,2.03-1.45,3.8-2.93,5.31c-1.48,1.51-3.4,2.62-5.75,3.33
		c-2.39,0.72-4.63,0.87-6.72,0.45c-2.09-0.42-3.91-1.34-5.44-2.77c-1.53-1.42-2.64-3.28-3.33-5.58c-0.67-2.23-0.76-4.33-0.26-6.28
		c0.5-1.95,1.43-3.63,2.81-5.05c1.38-1.41,3.06-2.42,5.04-3.02c0.31-0.09,0.64-0.18,0.99-0.27c0.36-0.09,0.75-0.18,1.19-0.28
		l5.33,17.71c2.16-0.82,3.61-2.05,4.37-3.69c0.76-1.64,0.88-3.32,0.36-5.04c-0.41-1.38-1.08-2.44-1.98-3.18
		c-0.91-0.74-1.97-1.19-3.17-1.32l-1.46-4.86c2.33-0.03,4.48,0.65,6.47,2.03C311.37,729.68,312.77,731.72,313.58,734.41
		 M293.71,740.39c0.49,1.62,1.4,2.91,2.74,3.88c1.34,0.97,3.02,1.29,5.03,0.99l-3.86-12.85c-1.75,0.63-2.97,1.67-3.66,3.15
		C293.27,737.04,293.19,738.65,293.71,740.39"/>
	<polygon class="st1" points="308,714.21 285.02,723.46 284.53,718.41 301.92,712.1 283.58,708.68 283.04,703.05 300.38,696.17 
		282.1,693.32 281.61,688.27 305.94,692.94 306.44,698.14 288.37,705.38 307.49,709.01 	"/>
	<path class="st1" d="M309.51,657.61c-0.44,2.26-1.36,4.15-2.76,5.66c-1.4,1.52-3.12,2.59-5.16,3.2c-2.04,0.61-4.23,0.69-6.59,0.24
		c-2.35-0.45-4.35-1.35-6-2.67c-1.65-1.33-2.83-2.96-3.54-4.91c-0.71-1.94-0.85-4.04-0.41-6.3c0.36-1.85,1.03-3.4,2.03-4.66
		c0.99-1.26,2.22-2.15,3.69-2.68l-14.11-2.73l0.97-4.99l33.87,6.56l-0.87,4.47l-3.72-0.18c0.95,0.97,1.72,2.19,2.32,3.67
		C309.81,653.77,309.91,655.55,309.51,657.61 M305.35,655.88c0.41-2.13,0.01-4.02-1.2-5.67c-1.21-1.65-2.98-2.7-5.3-3.15
		c-2.35-0.45-4.39-0.14-6.11,0.94c-1.72,1.08-2.79,2.69-3.2,4.82c-0.41,2.13-0.02,4.03,1.17,5.69c1.19,1.66,2.96,2.72,5.32,3.18
		c1.54,0.3,2.96,0.25,4.28-0.15c1.31-0.4,2.41-1.09,3.3-2.07C304.5,658.49,305.08,657.29,305.35,655.88"/>
	<path class="st1" d="M318.14,627.6c-0.85,2.17-2.09,3.91-3.72,5.21c-1.63,1.3-3.49,2.09-5.59,2.36c-2.1,0.28-4.29-0.04-6.58-0.94
		c-2.32-0.91-4.17-2.18-5.56-3.8c-1.39-1.63-2.24-3.47-2.56-5.53c-0.32-2.06-0.04-4.21,0.83-6.44c0.85-2.17,2.08-3.87,3.67-5.1
		c1.6-1.23,3.37-1.97,5.33-2.23c1.96-0.26,3.9-0.01,5.83,0.75c0.3,0.12,0.61,0.25,0.95,0.4c0.34,0.15,0.71,0.32,1.11,0.51L305.1,630
		c2.2,0.69,4.1,0.63,5.72-0.2c1.61-0.83,2.74-2.07,3.4-3.74c0.53-1.34,0.66-2.58,0.41-3.73c-0.25-1.15-0.81-2.15-1.68-3l1.86-4.73
		c1.85,1.41,3.12,3.28,3.83,5.59S319.16,624.98,318.14,627.6 M298.82,620.02c-0.62,1.58-0.7,3.16-0.24,4.75
		c0.46,1.59,1.57,2.88,3.34,3.88l4.9-12.49c-1.76-0.59-3.37-0.52-4.82,0.22C300.55,617.11,299.49,618.32,298.82,620.02"/>
	<path class="st1" d="M329.98,603.61c-1.54,2.58-3.44,4.33-5.7,5.25c-2.26,0.92-4.51,0.88-6.74-0.12l2.63-4.4
		c1.06,0.34,2.18,0.3,3.34-0.13c1.16-0.42,2.15-1.31,2.95-2.65c0.79-1.32,1.08-2.44,0.9-3.37c-0.19-0.93-0.64-1.61-1.35-2.04
		c-1.04-0.62-2-0.63-2.87-0.01c-0.87,0.62-1.9,1.57-3.08,2.88c-0.93,1-1.95,1.95-3.04,2.85c-1.09,0.89-2.24,1.49-3.44,1.79
		c-1.2,0.3-2.45,0.07-3.74-0.7c-1.78-1.06-2.86-2.64-3.24-4.72c-0.38-2.08,0.17-4.36,1.65-6.83c1.36-2.28,3.01-3.79,4.95-4.55
		c1.94-0.76,3.99-0.66,6.14,0.29l-2.5,4.2c-0.96-0.39-1.89-0.39-2.78-0.01c-0.9,0.38-1.68,1.13-2.35,2.25
		c-0.66,1.1-0.94,2.08-0.84,2.96c0.09,0.87,0.49,1.52,1.21,1.95c0.71,0.43,1.53,0.34,2.44-0.25c0.91-0.59,1.94-1.47,3.09-2.65
		c1.12-1.19,2.23-2.25,3.32-3.18c1.09-0.93,2.24-1.52,3.43-1.77c1.19-0.26,2.53,0.06,4.01,0.94c1.88,1.09,3,2.73,3.36,4.93
		C332.06,598.72,331.49,601.08,329.98,603.61"/>
	<path class="st1" d="M317.72,570.47c-0.58,0.76-1.3,1.21-2.15,1.34c-0.85,0.13-1.63-0.07-2.34-0.62c-0.71-0.54-1.11-1.25-1.2-2.1
		c-0.09-0.85,0.16-1.66,0.74-2.42c0.58-0.76,1.3-1.21,2.15-1.34c0.85-0.13,1.63,0.07,2.34,0.62c0.71,0.55,1.11,1.24,1.2,2.1
		C318.55,568.9,318.3,569.71,317.72,570.47 M338.58,589.72l-18.84-14.49l3.1-4.03l18.84,14.49L338.58,589.72z"/>
	<path class="st1" d="M347.99,567.59c-0.88,0.89-1.79,1.6-2.73,2.15l-0.02,2.88c0.41-0.09,0.85-0.26,1.32-0.52
		c0.47-0.25,1.08-0.66,1.82-1.23c0.74-0.57,1.72-1.38,2.93-2.42c2.43-2.05,4.57-3.14,6.43-3.28c1.86-0.13,3.52,0.52,4.97,1.95
		c1,0.99,1.68,2.19,2.05,3.61c0.37,1.42,0.28,2.97-0.28,4.64c-0.55,1.68-1.7,3.39-3.42,5.14c-2.34,2.36-4.68,3.83-7.02,4.41
		c-2.35,0.58-4.43-0.03-6.25-1.83c-0.7-0.7-1.22-1.57-1.54-2.63c-0.32-1.06-0.39-2.3-0.19-3.73c-0.68,0.28-1.31,0.47-1.89,0.59
		c-0.59,0.12-1.14,0.19-1.66,0.21l-0.82-0.81l-0.1-5.9c-2.44,0.2-4.58-0.62-6.42-2.43c-1.11-1.1-1.87-2.37-2.26-3.82
		c-0.39-1.44-0.36-2.95,0.11-4.51c0.46-1.56,1.4-3.06,2.82-4.49c0.94-0.95,1.95-1.71,3.04-2.25l6.23-6.3l2.39,2.36l-2.79,3.17
		c1.47,0.38,2.77,1.12,3.91,2.25c1.14,1.12,1.89,2.4,2.28,3.83c0.38,1.43,0.34,2.92-0.11,4.47
		C350.34,564.66,349.41,566.15,347.99,567.59 M345.16,564.79c1.03-1.04,1.59-2.17,1.67-3.37c0.08-1.2-0.39-2.3-1.41-3.31
		c-1.04-1.03-2.16-1.49-3.34-1.39c-1.18,0.11-2.29,0.69-3.33,1.73c-1.06,1.07-1.63,2.2-1.72,3.38c-0.1,1.19,0.38,2.3,1.43,3.33
		c1.02,1.01,2.13,1.47,3.33,1.37C342.98,566.44,344.11,565.86,345.16,564.79 M350.84,579.36c0.98,0.97,2.14,1.26,3.48,0.88
		c1.34-0.38,2.65-1.22,3.93-2.51c1.23-1.25,1.97-2.53,2.2-3.83c0.23-1.3-0.1-2.39-0.98-3.27c-0.66-0.65-1.48-0.95-2.46-0.88
		c-0.98,0.06-2.25,0.76-3.8,2.11c-1.15,1.02-2.2,1.89-3.17,2.59c-0.35,1.22-0.43,2.23-0.22,3.02
		C350.02,578.26,350.36,578.89,350.84,579.36"/>
	<path class="st1" d="M365.96,560.52l-13.83-19.33l3.66-2.62l2.74,3.17c-0.26-1.62-0.05-3.19,0.61-4.71
		c0.66-1.52,1.75-2.81,3.26-3.89c2.34-1.67,4.7-2.26,7.07-1.76c2.38,0.5,4.6,2.19,6.66,5.07l7.95,11.1l-4.09,2.93l-7.64-10.68
		c-2.68-3.74-5.55-4.51-8.61-2.32c-1.53,1.1-2.41,2.55-2.63,4.35c-0.22,1.81,0.4,3.72,1.84,5.75l7.14,9.98L365.96,560.52z"/>
	<rect x="429.99" y="647.42" class="st2" width="81.98" height="81.98"/>
	<g class="st3">
		<g>
			<defs>
				<rect id="SVGID_1_" x="603.25" y="20.4" width="387.84" height="380.6"/>
			</defs>
			<clipPath id="SVGID_2_">
				<use xlink:href="#SVGID_1_"  style="overflow:visible;"/>
			</clipPath>
			<path class="st4" d="M770.99,49.89c-2.3,0.37-4.43,0.18-6.37-0.55c-1.95-0.74-3.57-1.94-4.87-3.61c-1.3-1.67-2.15-3.72-2.54-6.15
				c-0.4-2.46-0.24-4.7,0.45-6.72c0.7-2.02,1.85-3.69,3.46-5.02c1.61-1.33,3.61-2.18,5.97-2.56c2.3-0.37,4.39-0.18,6.26,0.57
				c1.87,0.75,3.41,1.9,4.63,3.46s1.99,3.35,2.32,5.4c0.05,0.32,0.1,0.66,0.14,1.02c0.04,0.37,0.08,0.77,0.12,1.22l-18.26,2.93
				c0.52,2.24,1.55,3.85,3.08,4.82c1.53,0.97,3.18,1.31,4.94,1.03c1.42-0.23,2.56-0.74,3.42-1.54c0.86-0.8,1.44-1.79,1.73-2.97
				l5.01-0.81c-0.28,2.31-1.23,4.36-2.87,6.14C775.98,48.33,773.77,49.44,770.99,49.89 M767.71,29.4c-1.67,0.27-3.08,1-4.21,2.2
				c-1.13,1.2-1.68,2.82-1.65,4.85l13.25-2.13c-0.39-1.81-1.27-3.16-2.64-4.04C771.09,29.41,769.51,29.11,767.71,29.4"/>
			<polygon class="st4" points="794.02,47.25 785.49,23.34 790.81,23.43 797.12,42.46 804.03,23.64 809.3,23.73 800.06,47.34 			"/>
			<path class="st4" d="M823.38,50.03c-2.24-0.37-4.16-1.21-5.78-2.52c-1.61-1.32-2.79-2.98-3.53-5c-0.74-2.01-0.9-4.25-0.5-6.71
				c0.4-2.46,1.28-4.52,2.64-6.2c1.36-1.67,3.02-2.87,4.98-3.6c1.96-0.73,4.05-0.91,6.26-0.55c2.24,0.37,4.16,1.21,5.77,2.53
				c1.61,1.32,2.8,2.98,3.55,5c0.75,2.02,0.93,4.26,0.53,6.71c-0.4,2.46-1.29,4.52-2.64,6.2c-1.36,1.67-3.02,2.87-4.98,3.6
				C827.72,50.21,825.62,50.4,823.38,50.03 M824.09,45.73c1.2,0.2,2.36,0.08,3.48-0.35c1.12-0.43,2.09-1.18,2.92-2.26
				c0.83-1.08,1.38-2.5,1.67-4.27c0.29-1.76,0.23-3.29-0.2-4.57c-0.42-1.28-1.1-2.31-2.02-3.08c-0.93-0.77-1.99-1.25-3.19-1.45
				c-1.2-0.2-2.36-0.08-3.48,0.35c-1.12,0.43-2.1,1.19-2.92,2.27c-0.82,1.08-1.38,2.5-1.67,4.27c-0.29,1.77-0.22,3.29,0.22,4.58
				c0.44,1.29,1.11,2.31,2.02,3.08C821.83,45.05,822.89,45.53,824.09,45.73"/>
			
				<rect x="831.58" y="35.11" transform="matrix(0.287 -0.9579 0.9579 0.287 569.1617 839.963)" class="st4" width="34.5" height="5.08"/>
			<polygon class="st4" points="859.49,59.7 860.82,34.35 865.69,36.48 864.19,56.47 877.82,41.76 882.65,43.87 865.02,62.11 			"/>
			<path class="st4" d="M877.74,68.64l12.07-20.47l4.38,2.58l-12.07,20.47L877.74,68.64z M894.29,45.58
				c-0.83-0.49-1.36-1.14-1.59-1.97c-0.24-0.83-0.13-1.62,0.33-2.39c0.46-0.77,1.1-1.25,1.94-1.44c0.84-0.19,1.67-0.05,2.49,0.44
				s1.36,1.14,1.59,1.97c0.24,0.83,0.13,1.62-0.33,2.39c-0.45,0.77-1.1,1.25-1.94,1.45C895.95,46.22,895.12,46.07,894.29,45.58"/>
			<path class="st4" d="M888.67,75.03l14.59-18.76l3.56,2.76l-2.26,3.53c1.48-0.71,3.04-0.96,4.68-0.76c1.64,0.2,3.2,0.88,4.66,2.01
				c2.27,1.77,3.5,3.86,3.71,6.28c0.2,2.42-0.79,5.03-2.96,7.83l-8.38,10.78l-3.97-3.09l8.06-10.36c2.82-3.63,2.75-6.6-0.23-8.92
				c-1.49-1.16-3.13-1.58-4.92-1.28c-1.8,0.31-3.46,1.44-4.99,3.41l-7.53,9.68L888.67,75.03z"/>
			<path class="st4" d="M922.95,95.5c-0.84-0.92-1.51-1.87-2.01-2.84l-2.87-0.16c0.07,0.41,0.22,0.86,0.45,1.34
				c0.23,0.49,0.6,1.11,1.14,1.88c0.53,0.77,1.29,1.79,2.27,3.05c1.92,2.53,2.9,4.73,2.94,6.6c0.04,1.87-0.7,3.49-2.21,4.87
				c-1.04,0.95-2.28,1.57-3.71,1.86c-1.44,0.29-2.98,0.12-4.62-0.52c-1.65-0.64-3.3-1.87-4.95-3.69c-2.24-2.46-3.59-4.87-4.04-7.24
				c-0.46-2.37,0.26-4.42,2.15-6.14c0.73-0.67,1.63-1.14,2.71-1.4c1.07-0.27,2.32-0.27,3.73,0c-0.24-0.69-0.4-1.33-0.49-1.92
				c-0.09-0.59-0.13-1.15-0.13-1.67l0.85-0.77l5.89,0.2c-0.07-2.45,0.85-4.54,2.76-6.28c1.16-1.05,2.46-1.74,3.93-2.06
				c1.46-0.32,2.96-0.2,4.5,0.34c1.53,0.54,2.98,1.56,4.34,3.05c0.91,0.99,1.6,2.04,2.09,3.15l5.97,6.55l-2.48,2.26l-3.02-2.95
				c-0.45,1.45-1.27,2.71-2.45,3.79c-1.18,1.08-2.49,1.77-3.94,2.07c-1.45,0.31-2.94,0.19-4.46-0.34
				C925.75,98,924.31,96.99,922.95,95.5 M911.04,97.74c-1.01,0.92-1.37,2.07-1.05,3.43c0.31,1.36,1.08,2.71,2.31,4.06
				c1.18,1.3,2.42,2.1,3.71,2.39c1.29,0.3,2.39,0.02,3.31-0.81c0.68-0.63,1.02-1.43,1.01-2.41c-0.01-0.98-0.65-2.28-1.91-3.9
				c-0.96-1.2-1.77-2.3-2.43-3.3c-1.2-0.42-2.2-0.54-3-0.37C912.19,96.98,911.54,97.29,911.04,97.74 M925.89,92.82
				c0.99,1.08,2.08,1.7,3.27,1.85c1.19,0.15,2.32-0.27,3.38-1.24c1.09-0.99,1.61-2.08,1.56-3.27c-0.05-1.19-0.56-2.33-1.56-3.41
				c-1.01-1.11-2.11-1.74-3.29-1.9s-2.31,0.26-3.4,1.25c-1.06,0.97-1.58,2.05-1.54,3.25C924.35,90.56,924.88,91.71,925.89,92.82"/>
			<path class="st4" d="M936.6,124.92l21-11.13l2.11,3.98l-3.5,2.29c1.64-0.04,3.17,0.37,4.58,1.23c1.41,0.86,2.55,2.11,3.42,3.74
				c1.35,2.54,1.61,4.96,0.8,7.25c-0.81,2.29-2.78,4.27-5.91,5.93l-12.07,6.4l-2.36-4.45l11.6-6.15c4.06-2.15,5.21-4.9,3.45-8.23
				c-0.88-1.67-2.2-2.73-3.97-3.18c-1.76-0.46-3.74-0.1-5.94,1.06l-10.84,5.74L936.6,124.92z"/>
			<path class="st4" d="M952.38,161.37c-0.72-2.22-0.86-4.35-0.42-6.38c0.43-2.04,1.38-3.83,2.83-5.37
				c1.45-1.54,3.34-2.69,5.69-3.45c2.37-0.77,4.61-0.96,6.71-0.58c2.1,0.38,3.93,1.27,5.49,2.66c1.56,1.39,2.7,3.23,3.44,5.51
				c0.72,2.22,0.84,4.31,0.39,6.27c-0.46,1.96-1.36,3.66-2.71,5.1c-1.35,1.44-3.01,2.48-4.98,3.12c-0.3,0.1-0.63,0.2-0.99,0.29
				c-0.36,0.1-0.75,0.2-1.18,0.31l-5.68-17.6c-2.14,0.86-3.57,2.12-4.29,3.78c-0.72,1.66-0.81,3.34-0.26,5.04
				c0.44,1.37,1.12,2.41,2.04,3.14c0.92,0.73,1.99,1.15,3.2,1.26l1.56,4.83c-2.32,0.08-4.49-0.56-6.51-1.9
				C954.68,166.06,953.24,164.05,952.38,161.37 M972.13,155.01c-0.52-1.61-1.46-2.89-2.82-3.82c-1.36-0.94-3.04-1.23-5.04-0.89
				l4.12,12.77c1.73-0.66,2.93-1.73,3.59-3.22C972.63,158.35,972.69,156.74,972.13,155.01"/>
			<polygon class="st4" points="958.36,181.46 981.16,171.76 981.75,176.81 964.48,183.45 982.88,186.52 983.53,192.13 
				966.33,199.35 984.66,201.84 985.25,206.89 960.84,202.69 960.23,197.5 978.16,189.91 958.97,186.65 			"/>
			<path class="st4" d="M957.95,238.05c0.39-2.27,1.27-4.17,2.64-5.72c1.37-1.55,3.07-2.65,5.09-3.3c2.03-0.65,4.22-0.78,6.58-0.37
				c2.36,0.41,4.38,1.26,6.05,2.55c1.67,1.29,2.88,2.91,3.64,4.84c0.75,1.93,0.93,4.03,0.54,6.29c-0.32,1.86-0.97,3.42-1.93,4.7
				c-0.97,1.28-2.18,2.19-3.64,2.75l14.16,2.45l-0.87,5l-33.99-5.89l0.78-4.48l3.73,0.11c-0.97-0.95-1.77-2.15-2.39-3.62
				C957.72,241.91,957.59,240.13,957.95,238.05 M962.14,239.7c-0.37,2.14,0.06,4.02,1.31,5.65c1.24,1.63,3.03,2.64,5.36,3.04
				c2.36,0.41,4.39,0.05,6.09-1.06c1.7-1.11,2.74-2.74,3.11-4.88c0.37-2.14-0.05-4.03-1.28-5.67c-1.22-1.64-3.02-2.66-5.38-3.07
				c-1.54-0.27-2.97-0.19-4.27,0.23c-1.3,0.42-2.39,1.13-3.26,2.13C962.94,237.08,962.39,238.29,962.14,239.7"/>
			<path class="st4" d="M949.93,268.22c0.81-2.19,2.01-3.95,3.61-5.28c1.6-1.33,3.45-2.16,5.54-2.47c2.09-0.32,4.29-0.05,6.6,0.8
				c2.34,0.86,4.21,2.09,5.63,3.69c1.42,1.6,2.31,3.43,2.67,5.48c0.36,2.06,0.13,4.21-0.7,6.46c-0.81,2.19-2,3.91-3.57,5.17
				c-1.57,1.26-3.33,2.04-5.28,2.34c-1.95,0.3-3.9,0.09-5.85-0.63c-0.3-0.11-0.62-0.24-0.96-0.38c-0.34-0.14-0.71-0.31-1.12-0.49
				l6.41-17.35c-2.21-0.65-4.11-0.54-5.71,0.32c-1.59,0.86-2.7,2.13-3.32,3.8c-0.5,1.35-0.61,2.59-0.33,3.73
				c0.28,1.14,0.86,2.13,1.74,2.97l-1.76,4.76c-1.88-1.38-3.19-3.21-3.94-5.52C948.84,273.32,948.96,270.85,949.93,268.22
				 M969.39,275.41c0.59-1.59,0.63-3.17,0.15-4.75c-0.49-1.58-1.63-2.85-3.42-3.82l-4.65,12.58c1.77,0.55,3.38,0.45,4.82-0.32
				C967.73,278.35,968.76,277.12,969.39,275.41"/>
			<path class="st4" d="M938.55,292.47c1.49-2.61,3.35-4.39,5.59-5.36c2.24-0.97,4.49-0.97,6.74-0.02l-2.54,4.45
				c-1.07-0.32-2.18-0.25-3.34,0.19c-1.16,0.44-2.12,1.35-2.9,2.71c-0.76,1.33-1.04,2.46-0.83,3.39c0.21,0.93,0.67,1.6,1.39,2.01
				c1.06,0.6,2.01,0.59,2.87-0.05c0.86-0.63,1.86-1.61,3.03-2.93c0.91-1.02,1.91-1.99,2.98-2.91c1.07-0.91,2.21-1.53,3.41-1.86
				c1.2-0.33,2.45-0.12,3.75,0.63c1.8,1.03,2.91,2.58,3.33,4.66c0.42,2.08-0.09,4.36-1.51,6.86c-1.32,2.3-2.94,3.85-4.86,4.65
				c-1.93,0.8-3.97,0.74-6.14-0.16l2.42-4.25c0.97,0.37,1.89,0.35,2.78-0.04c0.89-0.4,1.66-1.16,2.3-2.3
				c0.63-1.11,0.9-2.1,0.79-2.97c-0.11-0.87-0.53-1.51-1.25-1.92c-0.72-0.41-1.53-0.31-2.43,0.3c-0.9,0.61-1.91,1.51-3.04,2.71
				c-1.1,1.21-2.18,2.29-3.26,3.24c-1.07,0.95-2.21,1.56-3.4,1.84c-1.19,0.28-2.53-0.01-4.03-0.87c-1.9-1.05-3.05-2.67-3.46-4.87
				C936.57,297.4,937.09,295.03,938.55,292.47"/>
			<path class="st4" d="M930.24,306.52l19.12,14.12l-3.02,4.09l-19.12-14.12L930.24,306.52z M951.47,325.35
				c0.57-0.77,1.28-1.23,2.12-1.38c0.85-0.15,1.63,0.04,2.35,0.57c0.72,0.53,1.13,1.22,1.24,2.08c0.1,0.85-0.13,1.66-0.7,2.43
				c-0.57,0.77-1.28,1.23-2.12,1.38c-0.85,0.15-1.63-0.04-2.35-0.57c-0.72-0.53-1.13-1.22-1.24-2.07
				C950.67,326.93,950.9,326.12,951.47,325.35"/>
			<path class="st4" d="M921.27,328.81c0.86-0.9,1.75-1.64,2.69-2.21l-0.04-2.88c-0.4,0.1-0.84,0.28-1.31,0.54
				c-0.47,0.26-1.07,0.68-1.8,1.27c-0.73,0.58-1.69,1.41-2.89,2.48c-2.39,2.1-4.51,3.23-6.37,3.4c-1.86,0.17-3.53-0.45-5.01-1.85
				c-1.02-0.97-1.73-2.16-2.12-3.57c-0.4-1.41-0.34-2.96,0.18-4.65c0.52-1.68,1.63-3.42,3.32-5.2c2.29-2.41,4.6-3.93,6.93-4.55
				c2.33-0.63,4.43-0.06,6.28,1.7c0.72,0.68,1.25,1.55,1.59,2.6c0.34,1.05,0.43,2.29,0.27,3.72c0.67-0.29,1.3-0.5,1.88-0.62
				c0.58-0.13,1.14-0.21,1.65-0.25l0.83,0.79l0.22,5.89c2.43-0.24,4.59,0.53,6.46,2.31c1.13,1.08,1.91,2.33,2.33,3.77
				c0.42,1.43,0.41,2.94-0.02,4.51c-0.43,1.57-1.34,3.08-2.73,4.54c-0.92,0.97-1.92,1.74-2.99,2.31l-6.1,6.43l-2.43-2.31l2.73-3.22
				c-1.48-0.35-2.79-1.07-3.95-2.17c-1.16-1.1-1.94-2.36-2.35-3.79c-0.41-1.42-0.4-2.92,0.02-4.47
				C918.98,331.78,919.89,330.27,921.27,328.81 M918.19,317.09c-0.99-0.95-2.16-1.22-3.49-0.81c-1.33,0.41-2.63,1.27-3.88,2.59
				c-1.21,1.27-1.92,2.56-2.12,3.87c-0.2,1.3,0.15,2.39,1.05,3.24c0.67,0.64,1.5,0.92,2.48,0.83c0.98-0.08,2.23-0.81,3.76-2.18
				c1.13-1.04,2.16-1.93,3.12-2.66c0.33-1.23,0.38-2.24,0.16-3.02C919.04,318.18,918.68,317.55,918.19,317.09 M924.16,331.55
				c-1.01,1.06-1.55,2.2-1.61,3.4c-0.06,1.2,0.43,2.29,1.47,3.28c1.07,1.01,2.19,1.45,3.37,1.32c1.18-0.13,2.28-0.73,3.29-1.8
				c1.03-1.09,1.59-2.23,1.66-3.42c0.07-1.19-0.43-2.29-1.49-3.3c-1.04-0.99-2.16-1.42-3.35-1.3
				C926.3,329.85,925.19,330.46,924.16,331.55"/>
			<path class="st4" d="M903.41,336.26l14.2,19.05l-3.61,2.69l-2.8-3.11c0.29,1.62,0.12,3.19-0.52,4.72
				c-0.63,1.53-1.69,2.85-3.18,3.95c-2.31,1.72-4.65,2.35-7.04,1.9c-2.39-0.45-4.64-2.1-6.76-4.94l-8.16-10.95l4.03-3.01l7.85,10.52
				c2.75,3.69,5.64,4.41,8.66,2.15c1.51-1.13,2.36-2.6,2.54-4.41c0.18-1.81-0.47-3.72-1.96-5.71l-7.33-9.83L903.41,336.26z"/>
			<path class="st4" d="M819.3,373.1c2.31-0.32,4.43-0.1,6.36,0.68c1.93,0.78,3.53,2.01,4.8,3.71c1.27,1.69,2.07,3.76,2.42,6.19
				c0.35,2.47,0.15,4.7-0.58,6.71c-0.74,2.01-1.92,3.66-3.56,4.95c-1.64,1.29-3.65,2.11-6.02,2.44c-2.31,0.32-4.39,0.09-6.24-0.7
				c-1.85-0.79-3.37-1.97-4.56-3.54c-1.19-1.58-1.93-3.39-2.22-5.45c-0.04-0.32-0.08-0.66-0.12-1.02c-0.04-0.37-0.07-0.77-0.1-1.22
				l18.32-2.57c-0.48-2.26-1.47-3.88-2.98-4.88c-1.51-1-3.15-1.37-4.92-1.13c-1.42,0.2-2.57,0.69-3.45,1.47
				c-0.88,0.78-1.47,1.76-1.79,2.94l-5.03,0.71c0.32-2.3,1.32-4.33,2.99-6.08C814.29,374.56,816.52,373.49,819.3,373.1
				 M822.18,393.64c1.68-0.23,3.09-0.94,4.25-2.12c1.16-1.18,1.74-2.78,1.74-4.82l-13.28,1.86c0.35,1.82,1.2,3.19,2.56,4.09
				C818.8,393.57,820.37,393.9,822.18,393.64"/>
			<polygon class="st4" points="796.3,375.24 804.72,399.19 799.41,399.08 793.18,380.02 786.18,398.81 780.91,398.7 790.27,375.12 
							"/>
			<path class="st4" d="M766.97,371.93c2.23,0.41,4.14,1.29,5.73,2.64c1.59,1.35,2.73,3.04,3.43,5.07c0.7,2.03,0.82,4.27,0.37,6.72
				c-0.45,2.45-1.37,4.5-2.77,6.14s-3.08,2.81-5.06,3.5c-1.98,0.69-4.07,0.83-6.27,0.43c-2.23-0.41-4.14-1.29-5.73-2.64
				c-1.59-1.35-2.74-3.04-3.45-5.07c-0.71-2.03-0.85-4.27-0.39-6.72c0.45-2.45,1.37-4.5,2.76-6.14c1.39-1.64,3.08-2.81,5.06-3.5
				C762.63,371.66,764.74,371.52,766.97,371.93 M766.18,376.22c-1.19-0.22-2.36-0.13-3.49,0.28c-1.13,0.41-2.12,1.14-2.96,2.21
				c-0.85,1.06-1.43,2.47-1.76,4.23c-0.32,1.76-0.29,3.28,0.11,4.57c0.4,1.29,1.05,2.33,1.96,3.11c0.91,0.78,1.96,1.29,3.16,1.51
				c1.19,0.22,2.36,0.13,3.49-0.28c1.13-0.41,2.12-1.14,2.97-2.21c0.84-1.06,1.43-2.47,1.75-4.23c0.32-1.76,0.28-3.29-0.13-4.58
				c-0.41-1.29-1.06-2.33-1.96-3.11C768.42,376.94,767.37,376.44,766.18,376.22"/>
			
				<rect x="723.99" y="381.26" transform="matrix(0.306 -0.952 0.952 0.306 149.0205 972.0318)" class="st4" width="34.5" height="5.08"/>
			<polygon class="st4" points="731.03,361.54 729.2,386.86 724.36,384.64 726.27,364.68 712.35,379.11 707.56,376.91 
				725.55,359.02 			"/>
			<path class="st4" d="M695.98,374.98c0.82,0.5,1.33,1.17,1.56,2c0.22,0.83,0.09,1.63-0.37,2.39c-0.47,0.76-1.12,1.23-1.96,1.41
				c-0.84,0.18-1.67,0.01-2.48-0.49c-0.82-0.5-1.33-1.17-1.55-2c-0.22-0.83-0.1-1.63,0.37-2.39c0.47-0.76,1.13-1.23,1.96-1.41
				C694.33,374.32,695.16,374.48,695.98,374.98 M712.98,352.25l-12.47,20.23l-4.32-2.67l12.47-20.23L712.98,352.25z"/>
			<path class="st4" d="M702.14,345.62l-14.96,18.47l-3.5-2.84l2.32-3.48c-1.49,0.68-3.06,0.9-4.7,0.66
				c-1.64-0.24-3.18-0.94-4.62-2.1c-2.23-1.81-3.43-3.93-3.58-6.35c-0.15-2.42,0.89-5.02,3.12-7.77l8.59-10.61l3.91,3.17l-8.26,10.2
				c-2.89,3.58-2.88,6.55,0.05,8.92c1.47,1.19,3.1,1.65,4.9,1.38c1.8-0.27,3.49-1.37,5.05-3.31l7.72-9.53L702.14,345.62z"/>
			<path class="st4" d="M668.27,324.48c0.82,0.94,1.47,1.9,1.95,2.88l2.87,0.22c-0.06-0.41-0.2-0.86-0.42-1.35
				c-0.22-0.49-0.58-1.13-1.1-1.91c-0.51-0.78-1.25-1.81-2.21-3.1c-1.87-2.57-2.8-4.78-2.81-6.65c0-1.87,0.77-3.47,2.3-4.82
				c1.06-0.93,2.31-1.52,3.75-1.79c1.44-0.27,2.98-0.06,4.61,0.61c1.63,0.67,3.26,1.93,4.88,3.78c2.19,2.5,3.49,4.94,3.9,7.32
				c0.41,2.38-0.35,4.41-2.27,6.1c-0.75,0.65-1.66,1.1-2.74,1.35c-1.08,0.24-2.32,0.22-3.73-0.08c0.23,0.69,0.38,1.34,0.45,1.93
				s0.1,1.15,0.09,1.67l-0.87,0.76l-5.89-0.32c0.02,2.45-0.94,4.52-2.89,6.23c-1.18,1.03-2.5,1.69-3.97,1.98
				c-1.47,0.29-2.96,0.15-4.49-0.43c-1.52-0.58-2.95-1.62-4.28-3.13c-0.88-1.01-1.56-2.07-2.03-3.19l-5.84-6.67l2.52-2.21l2.96,3.01
				c0.48-1.44,1.32-2.69,2.52-3.74c1.2-1.05,2.53-1.72,3.98-2c1.46-0.28,2.94-0.14,4.45,0.43
				C665.53,321.93,666.94,322.96,668.27,324.48 M665.28,327.1c-0.97-1.1-2.05-1.74-3.24-1.91c-1.19-0.17-2.32,0.22-3.4,1.17
				c-1.1,0.97-1.65,2.05-1.62,3.24c0.02,1.19,0.52,2.34,1.49,3.44c0.99,1.13,2.07,1.78,3.25,1.96c1.18,0.18,2.32-0.22,3.42-1.18
				c1.08-0.95,1.61-2.02,1.6-3.22C666.77,329.39,666.27,328.23,665.28,327.1 M680.22,322.48c1.03-0.9,1.41-2.04,1.12-3.41
				c-0.28-1.37-1.03-2.73-2.23-4.1c-1.16-1.32-2.38-2.14-3.66-2.46c-1.28-0.32-2.39-0.07-3.32,0.75c-0.7,0.61-1.05,1.41-1.06,2.39
				c-0.01,0.98,0.6,2.3,1.83,3.94c0.94,1.22,1.72,2.33,2.36,3.35c1.19,0.44,2.19,0.59,2.99,0.43
				C679.06,323.22,679.71,322.92,680.22,322.48"/>
			<path class="st4" d="M655.23,294.82l-21.21,10.71l-2.03-4.02l3.55-2.22c-1.64,0.01-3.16-0.43-4.56-1.32
				c-1.4-0.89-2.51-2.16-3.35-3.81c-1.3-2.57-1.52-4.99-0.66-7.26c0.86-2.27,2.87-4.21,6.03-5.81l12.19-6.16l2.27,4.49l-11.72,5.92
				c-4.11,2.07-5.31,4.79-3.61,8.16c0.85,1.68,2.15,2.77,3.9,3.26c1.75,0.49,3.74,0.18,5.96-0.95l10.95-5.53L655.23,294.82z"/>
			<path class="st4" d="M640.17,258.08c0.67,2.23,0.77,4.36,0.3,6.39c-0.47,2.03-1.45,3.8-2.93,5.31c-1.48,1.51-3.4,2.62-5.75,3.33
				c-2.39,0.72-4.63,0.87-6.72,0.45c-2.09-0.42-3.91-1.34-5.44-2.77c-1.53-1.42-2.64-3.28-3.33-5.58c-0.67-2.23-0.76-4.33-0.26-6.28
				c0.5-1.95,1.43-3.63,2.81-5.05c1.38-1.41,3.06-2.42,5.05-3.02c0.31-0.09,0.64-0.18,0.99-0.27c0.36-0.09,0.75-0.18,1.19-0.28
				l5.33,17.71c2.16-0.82,3.61-2.04,4.37-3.69c0.76-1.65,0.88-3.32,0.36-5.04c-0.41-1.38-1.08-2.44-1.98-3.18
				c-0.91-0.74-1.97-1.18-3.18-1.32l-1.46-4.86c2.32-0.03,4.48,0.65,6.46,2.03C637.96,253.35,639.36,255.39,640.17,258.08
				 M620.3,264.06c0.49,1.62,1.4,2.91,2.74,3.88c1.34,0.96,3.02,1.29,5.03,0.99l-3.87-12.85c-1.75,0.63-2.96,1.67-3.66,3.15
				C619.86,260.7,619.78,262.31,620.3,264.06"/>
			<polygon class="st4" points="634.59,237.88 611.61,247.13 611.12,242.08 628.51,235.77 610.17,232.35 609.63,226.72 
				626.97,219.84 608.69,216.99 608.2,211.93 632.53,216.61 633.03,221.81 614.96,229.04 634.08,232.68 			"/>
			<path class="st4" d="M636.1,181.28c-0.44,2.26-1.36,4.15-2.76,5.66c-1.4,1.52-3.12,2.59-5.16,3.2c-2.04,0.61-4.23,0.69-6.59,0.24
				c-2.35-0.46-4.35-1.35-6-2.67c-1.65-1.33-2.82-2.96-3.54-4.91c-0.71-1.94-0.85-4.04-0.41-6.3c0.36-1.85,1.03-3.4,2.03-4.66
				c0.99-1.26,2.22-2.15,3.69-2.68l-14.11-2.73l0.97-4.99l33.87,6.56l-0.87,4.47l-3.72-0.18c0.95,0.97,1.72,2.19,2.31,3.67
				C636.41,177.44,636.5,179.21,636.1,181.28 M631.95,179.55c0.41-2.13,0.01-4.02-1.2-5.67c-1.21-1.65-2.97-2.7-5.3-3.15
				c-2.35-0.46-4.39-0.14-6.11,0.94c-1.72,1.08-2.79,2.69-3.2,4.82c-0.41,2.13-0.02,4.03,1.17,5.69c1.19,1.66,2.96,2.72,5.31,3.18
				c1.54,0.3,2.96,0.25,4.27-0.15c1.31-0.4,2.42-1.09,3.31-2.07C631.09,182.16,631.67,180.96,631.95,179.55"/>
			<path class="st4" d="M644.73,151.27c-0.85,2.17-2.09,3.91-3.71,5.21c-1.63,1.3-3.49,2.09-5.59,2.36
				c-2.1,0.28-4.29-0.04-6.58-0.94c-2.32-0.91-4.17-2.18-5.56-3.8c-1.39-1.63-2.24-3.47-2.56-5.54c-0.32-2.06-0.04-4.21,0.83-6.44
				c0.85-2.17,2.08-3.87,3.67-5.1c1.6-1.23,3.37-1.97,5.33-2.23c1.96-0.26,3.9-0.01,5.83,0.75c0.3,0.12,0.61,0.25,0.95,0.4
				c0.34,0.15,0.71,0.32,1.11,0.51l-6.76,17.22c2.2,0.69,4.1,0.63,5.72-0.2c1.61-0.83,2.74-2.07,3.4-3.74
				c0.52-1.34,0.66-2.58,0.41-3.73c-0.25-1.15-0.81-2.15-1.68-3l1.86-4.73c1.85,1.41,3.12,3.28,3.83,5.59
				C645.92,146.18,645.75,148.65,644.73,151.27 M625.41,143.68c-0.62,1.58-0.7,3.16-0.24,4.74c0.46,1.59,1.57,2.88,3.34,3.88
				l4.9-12.49c-1.76-0.59-3.37-0.52-4.82,0.22C627.14,140.78,626.08,141.99,625.41,143.68"/>
			<path class="st4" d="M656.57,127.27c-1.54,2.58-3.44,4.33-5.7,5.25c-2.26,0.92-4.51,0.88-6.74-0.12l2.63-4.4
				c1.06,0.34,2.18,0.3,3.34-0.13c1.16-0.42,2.15-1.3,2.95-2.65c0.79-1.32,1.08-2.44,0.9-3.37c-0.19-0.93-0.64-1.61-1.35-2.03
				c-1.04-0.62-2-0.63-2.87-0.01c-0.87,0.62-1.9,1.58-3.08,2.88c-0.93,1-1.95,1.95-3.04,2.85c-1.09,0.89-2.24,1.49-3.44,1.8
				c-1.2,0.3-2.45,0.07-3.74-0.7c-1.78-1.06-2.86-2.64-3.24-4.72c-0.38-2.08,0.18-4.36,1.65-6.83c1.36-2.28,3.01-3.79,4.95-4.55
				c1.94-0.76,3.98-0.66,6.14,0.29l-2.51,4.2c-0.96-0.39-1.89-0.39-2.78-0.01c-0.9,0.38-1.68,1.13-2.35,2.25
				c-0.65,1.1-0.94,2.08-0.84,2.96c0.09,0.87,0.49,1.52,1.21,1.95c0.71,0.43,1.53,0.34,2.44-0.25c0.91-0.59,1.94-1.47,3.09-2.65
				c1.12-1.19,2.23-2.25,3.32-3.18c1.09-0.93,2.24-1.52,3.43-1.78c1.19-0.26,2.53,0.06,4.01,0.94c1.88,1.09,3,2.73,3.36,4.93
				C658.65,122.39,658.08,124.75,656.57,127.27"/>
			<path class="st4" d="M644.31,94.14c-0.58,0.76-1.3,1.21-2.15,1.34c-0.85,0.13-1.63-0.07-2.34-0.62c-0.71-0.54-1.11-1.24-1.2-2.1
				c-0.09-0.85,0.16-1.66,0.74-2.42c0.58-0.76,1.3-1.21,2.15-1.34c0.85-0.13,1.63,0.07,2.34,0.62c0.71,0.55,1.11,1.25,1.2,2.1
				C645.14,92.57,644.89,93.38,644.31,94.14 M665.17,113.38L646.33,98.9l3.1-4.03l18.84,14.49L665.17,113.38z"/>
			<path class="st4" d="M674.58,91.25c-0.88,0.89-1.79,1.6-2.73,2.15l-0.02,2.88c0.41-0.09,0.85-0.26,1.32-0.52s1.08-0.66,1.82-1.23
				c0.74-0.57,1.72-1.38,2.93-2.42c2.43-2.05,4.57-3.14,6.43-3.28c1.86-0.13,3.52,0.52,4.98,1.95c1,0.99,1.68,2.19,2.05,3.61
				c0.37,1.42,0.28,2.97-0.28,4.64c-0.56,1.67-1.7,3.39-3.43,5.14c-2.33,2.36-4.67,3.83-7.02,4.41c-2.35,0.58-4.43-0.03-6.25-1.83
				c-0.7-0.7-1.22-1.57-1.54-2.63c-0.32-1.06-0.39-2.3-0.19-3.73c-0.68,0.28-1.31,0.47-1.89,0.59c-0.59,0.12-1.14,0.19-1.66,0.21
				l-0.82-0.81l-0.1-5.89c-2.44,0.2-4.58-0.62-6.42-2.43c-1.11-1.1-1.87-2.37-2.26-3.82c-0.39-1.44-0.36-2.95,0.11-4.51
				c0.46-1.56,1.4-3.06,2.82-4.49c0.94-0.95,1.95-1.71,3.04-2.26l6.23-6.3l2.39,2.36l-2.79,3.17c1.47,0.38,2.77,1.12,3.91,2.25
				c1.14,1.12,1.9,2.4,2.28,3.83c0.38,1.43,0.34,2.92-0.11,4.47C676.93,88.33,676,89.82,674.58,91.25 M671.75,88.46
				c1.03-1.04,1.59-2.17,1.67-3.36c0.08-1.2-0.39-2.3-1.41-3.31c-1.04-1.03-2.16-1.49-3.35-1.39c-1.18,0.11-2.29,0.69-3.33,1.73
				c-1.05,1.07-1.63,2.19-1.72,3.38c-0.09,1.19,0.38,2.3,1.43,3.33c1.02,1.01,2.13,1.47,3.33,1.37
				C669.57,90.11,670.7,89.53,671.75,88.46 M677.43,103.03c0.98,0.97,2.14,1.26,3.48,0.88c1.34-0.38,2.65-1.22,3.93-2.51
				c1.23-1.25,1.97-2.53,2.2-3.83c0.23-1.3-0.1-2.39-0.98-3.26c-0.66-0.65-1.48-0.95-2.46-0.88c-0.98,0.06-2.25,0.77-3.8,2.11
				c-1.15,1.02-2.2,1.89-3.17,2.59c-0.35,1.22-0.43,2.23-0.22,3.02C676.61,101.92,676.95,102.56,677.43,103.03"/>
			<path class="st4" d="M692.55,84.19l-13.83-19.33l3.66-2.62l2.74,3.17c-0.26-1.62-0.05-3.19,0.61-4.71
				c0.66-1.52,1.75-2.81,3.26-3.89c2.34-1.67,4.7-2.26,7.07-1.76c2.38,0.5,4.6,2.19,6.66,5.07l7.95,11.11l-4.09,2.93l-7.64-10.68
				c-2.68-3.74-5.55-4.51-8.61-2.32c-1.53,1.1-2.41,2.55-2.63,4.35c-0.22,1.81,0.4,3.72,1.85,5.75l7.14,9.97L692.55,84.19z"/>
		</g>
	</g>
	<g class="st3">
		<g>
			<defs>
				<rect id="SVGID_3_" x="756.58" y="171.09" width="81.98" height="81.98"/>
			</defs>
			<clipPath id="SVGID_4_">
				<use xlink:href="#SVGID_3_"  style="overflow:visible;"/>
			</clipPath>
			<rect x="756.58" y="171.09" class="st5" width="81.98" height="81.98"/>
		</g>
	</g>
</g>
<g id="Capa_2">
	<path class="st6" d="M187.55,49.89c-2.3,0.37-4.43,0.18-6.37-0.55c-1.95-0.74-3.57-1.94-4.87-3.61c-1.3-1.67-2.15-3.72-2.54-6.15
		c-0.4-2.46-0.24-4.7,0.45-6.72s1.85-3.69,3.46-5.02c1.61-1.33,3.61-2.18,5.97-2.56c2.3-0.37,4.39-0.18,6.26,0.57
		c1.87,0.75,3.41,1.9,4.63,3.46c1.22,1.55,1.99,3.35,2.32,5.4c0.05,0.32,0.1,0.66,0.14,1.02c0.04,0.37,0.08,0.77,0.12,1.22
		l-18.26,2.93c0.52,2.24,1.55,3.85,3.08,4.82c1.53,0.97,3.18,1.31,4.95,1.03c1.42-0.23,2.56-0.74,3.42-1.54
		c0.86-0.8,1.43-1.79,1.73-2.97l5.01-0.81c-0.28,2.31-1.23,4.36-2.87,6.14C192.53,48.33,190.32,49.44,187.55,49.89 M184.26,29.4
		c-1.67,0.27-3.08,1-4.21,2.2c-1.13,1.2-1.68,2.82-1.65,4.85l13.25-2.13c-0.39-1.81-1.27-3.16-2.64-4.04
		C187.64,29.41,186.06,29.11,184.26,29.4"/>
	<polygon class="st6" points="210.58,47.25 202.05,23.34 207.37,23.43 213.67,42.46 220.59,23.64 225.86,23.73 216.61,47.34 	"/>
	<path class="st6" d="M239.93,50.03c-2.24-0.37-4.16-1.21-5.78-2.52c-1.61-1.32-2.79-2.98-3.53-5c-0.74-2.01-0.9-4.25-0.5-6.71
		c0.4-2.46,1.28-4.52,2.64-6.2c1.36-1.67,3.02-2.87,4.98-3.6c1.96-0.73,4.05-0.91,6.26-0.55c2.24,0.37,4.16,1.21,5.78,2.53
		c1.61,1.32,2.8,2.98,3.55,5c0.75,2.02,0.93,4.26,0.53,6.71c-0.4,2.46-1.29,4.52-2.64,6.2c-1.36,1.67-3.02,2.87-4.98,3.6
		C244.27,50.21,242.17,50.4,239.93,50.03 M240.64,45.73c1.2,0.2,2.36,0.08,3.48-0.35c1.12-0.43,2.1-1.18,2.92-2.26
		c0.82-1.08,1.38-2.5,1.67-4.27c0.29-1.76,0.22-3.29-0.2-4.57c-0.42-1.28-1.09-2.31-2.02-3.08c-0.93-0.77-1.99-1.25-3.19-1.45
		c-1.2-0.2-2.36-0.08-3.48,0.35c-1.12,0.43-2.1,1.19-2.92,2.27c-0.82,1.08-1.38,2.5-1.67,4.27c-0.29,1.77-0.22,3.29,0.22,4.58
		c0.44,1.29,1.11,2.31,2.02,3.08C238.39,45.05,239.44,45.53,240.64,45.73"/>
	
		<rect x="248.13" y="35.11" transform="matrix(0.287 -0.9579 0.9579 0.287 153.1589 281.0617)" class="st6" width="34.5" height="5.08"/>
	<polygon class="st6" points="276.04,59.7 277.37,34.35 282.25,36.48 280.74,56.47 294.37,41.76 299.2,43.87 281.58,62.11 	"/>
	<path class="st6" d="M294.3,68.64l12.07-20.47l4.37,2.58l-12.07,20.47L294.3,68.64z M310.85,45.58c-0.83-0.49-1.36-1.14-1.59-1.97
		c-0.24-0.83-0.13-1.62,0.33-2.39c0.46-0.77,1.1-1.25,1.94-1.44c0.84-0.19,1.67-0.05,2.49,0.44c0.83,0.49,1.36,1.14,1.59,1.97
		c0.24,0.83,0.13,1.62-0.33,2.39c-0.46,0.77-1.1,1.25-1.94,1.45C312.51,46.22,311.67,46.07,310.85,45.58"/>
	<path class="st6" d="M305.23,75.03l14.59-18.76l3.56,2.76l-2.26,3.53c1.48-0.71,3.04-0.96,4.68-0.76c1.64,0.2,3.19,0.88,4.66,2.01
		c2.27,1.77,3.5,3.86,3.71,6.28c0.2,2.42-0.79,5.03-2.96,7.83l-8.38,10.78l-3.97-3.09l8.06-10.36c2.82-3.63,2.75-6.6-0.23-8.92
		c-1.49-1.16-3.13-1.58-4.92-1.28c-1.8,0.31-3.46,1.44-4.99,3.41l-7.53,9.68L305.23,75.03z"/>
	<path class="st6" d="M339.51,95.5c-0.84-0.92-1.51-1.87-2.01-2.84l-2.88-0.16c0.07,0.41,0.22,0.86,0.45,1.34
		c0.23,0.49,0.6,1.11,1.14,1.88c0.53,0.77,1.29,1.79,2.27,3.05c1.92,2.53,2.9,4.73,2.94,6.6c0.04,1.87-0.7,3.49-2.21,4.87
		c-1.04,0.95-2.28,1.57-3.71,1.86c-1.44,0.29-2.98,0.12-4.62-0.52c-1.64-0.64-3.29-1.87-4.95-3.69c-2.24-2.46-3.59-4.87-4.04-7.24
		c-0.46-2.37,0.26-4.42,2.15-6.14c0.73-0.67,1.63-1.14,2.71-1.4c1.07-0.27,2.32-0.27,3.73,0c-0.24-0.69-0.4-1.33-0.49-1.92
		s-0.13-1.15-0.13-1.67l0.85-0.77l5.89,0.2c-0.07-2.45,0.85-4.54,2.76-6.28c1.16-1.05,2.46-1.74,3.93-2.06
		c1.46-0.32,2.96-0.2,4.49,0.34c1.53,0.54,2.98,1.56,4.34,3.05c0.91,0.99,1.6,2.04,2.09,3.15l5.97,6.55l-2.48,2.26l-3.02-2.95
		c-0.45,1.45-1.27,2.71-2.45,3.79c-1.18,1.08-2.5,1.77-3.94,2.07c-1.45,0.31-2.94,0.19-4.46-0.34C342.3,98,340.86,96.99,339.51,95.5
		 M327.6,97.74c-1.01,0.92-1.37,2.07-1.06,3.43c0.31,1.36,1.08,2.71,2.31,4.06c1.18,1.3,2.42,2.1,3.71,2.39
		c1.29,0.3,2.39,0.02,3.31-0.81c0.68-0.63,1.02-1.43,1.01-2.41c-0.01-0.98-0.65-2.28-1.91-3.9c-0.96-1.2-1.77-2.3-2.43-3.3
		c-1.2-0.42-2.2-0.54-3-0.37C328.74,96.98,328.1,97.29,327.6,97.74 M342.44,92.82c0.99,1.08,2.08,1.7,3.27,1.85
		c1.19,0.15,2.32-0.27,3.38-1.24c1.09-0.99,1.61-2.08,1.56-3.27c-0.05-1.19-0.57-2.33-1.56-3.41c-1.01-1.11-2.11-1.74-3.29-1.9
		c-1.18-0.16-2.31,0.26-3.4,1.25c-1.06,0.97-1.58,2.05-1.54,3.25C340.91,90.56,341.43,91.71,342.44,92.82"/>
	<path class="st6" d="M353.15,124.92l21-11.13l2.11,3.98l-3.5,2.29c1.64-0.04,3.17,0.37,4.58,1.23c1.41,0.86,2.55,2.11,3.42,3.74
		c1.35,2.54,1.61,4.96,0.8,7.25c-0.81,2.29-2.78,4.27-5.91,5.93l-12.07,6.4l-2.36-4.45l11.6-6.15c4.06-2.15,5.21-4.9,3.45-8.23
		c-0.88-1.67-2.2-2.73-3.97-3.18c-1.76-0.46-3.74-0.1-5.94,1.06l-10.84,5.74L353.15,124.92z"/>
	<path class="st6" d="M368.94,161.37c-0.72-2.22-0.86-4.35-0.42-6.38c0.43-2.04,1.38-3.83,2.83-5.37c1.45-1.54,3.34-2.69,5.69-3.45
		c2.37-0.77,4.61-0.96,6.71-0.58c2.1,0.38,3.93,1.27,5.49,2.66s2.7,3.23,3.44,5.51c0.72,2.22,0.84,4.31,0.39,6.27
		c-0.46,1.96-1.36,3.66-2.71,5.1c-1.35,1.44-3.01,2.48-4.99,3.12c-0.3,0.1-0.63,0.2-0.99,0.29c-0.36,0.1-0.75,0.2-1.19,0.31
		l-5.68-17.6c-2.14,0.86-3.57,2.12-4.29,3.78c-0.72,1.66-0.81,3.34-0.26,5.04c0.44,1.37,1.12,2.41,2.04,3.14
		c0.92,0.73,1.99,1.15,3.2,1.26l1.56,4.83c-2.33,0.08-4.49-0.56-6.51-1.9C371.24,166.06,369.8,164.05,368.94,161.37 M388.68,155.01
		c-0.52-1.61-1.46-2.89-2.82-3.82c-1.36-0.94-3.04-1.23-5.04-0.89l4.12,12.77c1.73-0.66,2.93-1.73,3.59-3.22
		C389.19,158.35,389.24,156.74,388.68,155.01"/>
	<polygon class="st6" points="374.92,181.46 397.71,171.76 398.3,176.81 381.03,183.45 399.43,186.52 400.09,192.13 382.89,199.35 
		401.22,201.84 401.81,206.89 377.39,202.69 376.79,197.5 394.72,189.91 375.52,186.65 	"/>
	<path class="st6" d="M374.51,238.05c0.39-2.27,1.28-4.17,2.64-5.72c1.37-1.55,3.07-2.65,5.09-3.3c2.03-0.65,4.22-0.78,6.58-0.37
		c2.36,0.41,4.38,1.26,6.05,2.55c1.67,1.29,2.88,2.91,3.64,4.84s0.93,4.03,0.54,6.29c-0.32,1.86-0.97,3.42-1.93,4.7
		c-0.97,1.28-2.18,2.19-3.64,2.75l14.16,2.45l-0.87,5l-33.99-5.89l0.78-4.48l3.72,0.11c-0.97-0.95-1.77-2.15-2.39-3.62
		C374.28,241.91,374.15,240.13,374.51,238.05 M378.7,239.7c-0.37,2.14,0.06,4.02,1.31,5.65c1.24,1.63,3.03,2.64,5.36,3.04
		c2.36,0.41,4.39,0.05,6.09-1.06c1.7-1.11,2.74-2.74,3.11-4.88c0.37-2.14-0.05-4.03-1.28-5.67c-1.22-1.64-3.02-2.66-5.38-3.07
		c-1.54-0.27-2.97-0.19-4.27,0.23c-1.31,0.42-2.39,1.13-3.26,2.13C379.5,237.08,378.94,238.29,378.7,239.7"/>
	<path class="st6" d="M366.49,268.22c0.81-2.19,2.01-3.95,3.61-5.28c1.6-1.33,3.45-2.16,5.54-2.47c2.09-0.32,4.29-0.05,6.6,0.8
		c2.34,0.86,4.21,2.09,5.63,3.69c1.42,1.6,2.31,3.43,2.67,5.48c0.36,2.06,0.13,4.21-0.7,6.46c-0.81,2.19-2,3.91-3.57,5.17
		c-1.57,1.26-3.33,2.04-5.28,2.34c-1.95,0.3-3.9,0.09-5.85-0.63c-0.3-0.11-0.62-0.24-0.96-0.38c-0.34-0.14-0.71-0.31-1.12-0.49
		l6.41-17.35c-2.21-0.65-4.11-0.54-5.71,0.32c-1.59,0.86-2.7,2.13-3.32,3.8c-0.5,1.35-0.61,2.59-0.33,3.73
		c0.28,1.14,0.85,2.13,1.74,2.97l-1.76,4.76c-1.88-1.38-3.19-3.21-3.94-5.52C365.4,273.32,365.51,270.85,366.49,268.22
		 M385.95,275.41c0.59-1.59,0.64-3.17,0.15-4.75c-0.49-1.58-1.63-2.85-3.42-3.82l-4.65,12.58c1.77,0.55,3.38,0.45,4.82-0.32
		C384.28,278.35,385.32,277.12,385.95,275.41"/>
	<path class="st6" d="M355.11,292.47c1.49-2.61,3.35-4.39,5.59-5.36c2.24-0.97,4.49-0.97,6.74-0.02l-2.54,4.45
		c-1.07-0.32-2.18-0.25-3.34,0.19c-1.16,0.44-2.12,1.35-2.9,2.71c-0.76,1.33-1.04,2.46-0.83,3.39c0.21,0.93,0.67,1.6,1.39,2.01
		c1.05,0.6,2.01,0.59,2.87-0.05c0.86-0.63,1.87-1.61,3.03-2.93c0.91-1.02,1.91-1.99,2.98-2.91c1.07-0.91,2.21-1.53,3.41-1.86
		s2.45-0.12,3.75,0.63c1.8,1.03,2.91,2.58,3.33,4.66c0.41,2.08-0.09,4.36-1.51,6.86c-1.31,2.3-2.93,3.85-4.86,4.65
		c-1.92,0.8-3.97,0.74-6.14-0.16l2.42-4.25c0.97,0.37,1.89,0.35,2.78-0.04c0.89-0.4,1.66-1.16,2.3-2.3c0.63-1.11,0.9-2.1,0.79-2.97
		c-0.11-0.87-0.52-1.51-1.25-1.92c-0.72-0.41-1.53-0.31-2.43,0.3c-0.9,0.61-1.91,1.51-3.03,2.71c-1.1,1.21-2.18,2.29-3.26,3.24
		c-1.08,0.95-2.21,1.56-3.4,1.84c-1.19,0.28-2.53-0.01-4.03-0.87c-1.9-1.05-3.06-2.67-3.46-4.87
		C353.12,297.4,353.65,295.03,355.11,292.47"/>
	<path class="st6" d="M346.79,306.52l19.12,14.12l-3.02,4.09l-19.12-14.12L346.79,306.52z M368.03,325.35
		c0.57-0.77,1.28-1.23,2.12-1.38c0.85-0.15,1.63,0.04,2.35,0.57c0.72,0.53,1.13,1.22,1.24,2.08c0.1,0.85-0.13,1.66-0.7,2.43
		c-0.57,0.77-1.28,1.23-2.12,1.38c-0.85,0.15-1.63-0.04-2.35-0.57c-0.72-0.53-1.13-1.22-1.24-2.07
		C367.23,326.93,367.46,326.12,368.03,325.35"/>
	<path class="st6" d="M337.83,328.81c0.86-0.9,1.75-1.64,2.69-2.21l-0.04-2.88c-0.4,0.1-0.84,0.28-1.31,0.54
		c-0.47,0.26-1.07,0.68-1.8,1.27c-0.73,0.58-1.69,1.41-2.89,2.48c-2.39,2.1-4.51,3.23-6.37,3.4c-1.86,0.17-3.53-0.45-5.01-1.85
		c-1.02-0.97-1.73-2.16-2.13-3.57c-0.4-1.41-0.34-2.96,0.18-4.65c0.52-1.68,1.63-3.42,3.32-5.2c2.29-2.41,4.6-3.93,6.93-4.55
		c2.33-0.63,4.43-0.06,6.28,1.7c0.72,0.68,1.25,1.55,1.59,2.6c0.34,1.05,0.43,2.29,0.26,3.72c0.67-0.29,1.3-0.5,1.88-0.62
		c0.58-0.13,1.14-0.21,1.65-0.25l0.83,0.79l0.22,5.89c2.43-0.24,4.59,0.53,6.46,2.31c1.13,1.08,1.91,2.33,2.33,3.77
		c0.42,1.43,0.41,2.94-0.02,4.51c-0.43,1.57-1.34,3.08-2.73,4.54c-0.92,0.97-1.92,1.74-2.99,2.31l-6.11,6.43l-2.43-2.31l2.73-3.22
		c-1.48-0.35-2.79-1.07-3.95-2.17c-1.16-1.1-1.94-2.36-2.35-3.79c-0.41-1.42-0.4-2.92,0.02-4.47
		C335.54,331.78,336.44,330.27,337.83,328.81 M334.75,317.09c-1-0.95-2.16-1.22-3.49-0.81c-1.33,0.41-2.63,1.27-3.88,2.59
		c-1.21,1.27-1.92,2.56-2.12,3.87c-0.2,1.3,0.15,2.39,1.05,3.24c0.67,0.64,1.5,0.92,2.48,0.83c0.98-0.08,2.23-0.81,3.76-2.18
		c1.13-1.04,2.16-1.93,3.12-2.66c0.33-1.23,0.38-2.24,0.16-3.02C335.59,318.18,335.23,317.55,334.75,317.09 M340.71,331.55
		c-1.01,1.06-1.55,2.2-1.61,3.4c-0.06,1.2,0.43,2.29,1.47,3.28c1.07,1.01,2.19,1.45,3.37,1.32c1.18-0.13,2.28-0.73,3.29-1.8
		c1.03-1.09,1.59-2.23,1.66-3.42c0.07-1.19-0.43-2.29-1.49-3.3c-1.04-0.99-2.16-1.42-3.35-1.3
		C342.86,329.85,341.75,330.46,340.71,331.55"/>
	<path class="st6" d="M319.97,336.26l14.2,19.05l-3.61,2.69l-2.8-3.11c0.29,1.62,0.12,3.19-0.52,4.72
		c-0.63,1.53-1.69,2.85-3.18,3.95c-2.3,1.72-4.65,2.35-7.04,1.9c-2.39-0.45-4.64-2.1-6.76-4.94l-8.16-10.95l4.03-3.01l7.85,10.52
		c2.75,3.69,5.64,4.41,8.66,2.15c1.51-1.13,2.36-2.6,2.54-4.41c0.18-1.81-0.47-3.72-1.96-5.71l-7.33-9.83L319.97,336.26z"/>
	<path class="st6" d="M235.85,373.1c2.31-0.32,4.43-0.1,6.36,0.68c1.93,0.78,3.53,2.01,4.8,3.71c1.27,1.69,2.08,3.76,2.42,6.19
		c0.35,2.47,0.15,4.7-0.58,6.71c-0.73,2.01-1.92,3.66-3.57,4.95c-1.64,1.29-3.65,2.11-6.02,2.44c-2.31,0.32-4.39,0.09-6.24-0.7
		c-1.85-0.79-3.37-1.97-4.56-3.54c-1.19-1.58-1.93-3.39-2.22-5.45c-0.04-0.32-0.08-0.66-0.12-1.02c-0.04-0.37-0.07-0.77-0.1-1.22
		l18.32-2.57c-0.48-2.26-1.47-3.88-2.98-4.88c-1.51-1-3.15-1.37-4.92-1.13c-1.42,0.2-2.57,0.69-3.45,1.47
		c-0.87,0.78-1.47,1.76-1.79,2.94l-5.03,0.71c0.32-2.3,1.32-4.33,2.99-6.08C230.84,374.56,233.07,373.49,235.85,373.1
		 M238.73,393.64c1.68-0.23,3.09-0.94,4.25-2.12c1.16-1.18,1.74-2.78,1.74-4.82l-13.29,1.86c0.35,1.82,1.2,3.19,2.56,4.09
		C235.35,393.57,236.93,393.9,238.73,393.64"/>
	<polygon class="st6" points="212.86,375.24 221.28,399.19 215.96,399.08 209.74,380.02 202.74,398.81 197.47,398.7 206.82,375.12 	
		"/>
	<path class="st6" d="M183.53,371.93c2.23,0.41,4.14,1.29,5.73,2.64c1.59,1.35,2.73,3.04,3.43,5.07c0.7,2.03,0.82,4.27,0.37,6.72
		c-0.45,2.45-1.37,4.5-2.76,6.14s-3.08,2.81-5.05,3.5c-1.98,0.69-4.07,0.83-6.27,0.43c-2.23-0.41-4.14-1.29-5.73-2.64
		c-1.59-1.35-2.74-3.04-3.45-5.07c-0.71-2.03-0.84-4.27-0.39-6.72c0.45-2.45,1.37-4.5,2.76-6.14c1.39-1.64,3.08-2.81,5.05-3.5
		C179.19,371.66,181.3,371.52,183.53,371.93 M182.74,376.22c-1.19-0.22-2.36-0.13-3.49,0.28c-1.13,0.41-2.12,1.14-2.97,2.21
		c-0.84,1.06-1.43,2.47-1.76,4.23c-0.32,1.76-0.29,3.28,0.11,4.57c0.4,1.29,1.05,2.33,1.96,3.11c0.91,0.78,1.96,1.29,3.16,1.51
		c1.19,0.22,2.36,0.13,3.49-0.28c1.13-0.41,2.12-1.14,2.97-2.21c0.84-1.06,1.43-2.47,1.75-4.23c0.32-1.76,0.28-3.29-0.13-4.58
		c-0.41-1.29-1.06-2.33-1.96-3.11C184.97,376.94,183.93,376.44,182.74,376.22"/>
	
		<rect x="140.55" y="381.26" transform="matrix(0.306 -0.952 0.952 0.306 -255.8795 416.5778)" class="st6" width="34.5" height="5.08"/>
	<polygon class="st6" points="147.59,361.54 145.75,386.86 140.92,384.64 142.82,364.68 128.9,379.11 124.12,376.91 142.1,359.02 	
		"/>
	<path class="st6" d="M112.53,374.98c0.82,0.5,1.33,1.17,1.55,2c0.22,0.83,0.09,1.63-0.37,2.39c-0.47,0.76-1.12,1.23-1.96,1.41
		c-0.84,0.18-1.67,0.01-2.48-0.49c-0.82-0.5-1.33-1.17-1.55-2c-0.22-0.83-0.1-1.63,0.37-2.39c0.47-0.76,1.13-1.23,1.96-1.41
		C110.89,374.32,111.72,374.48,112.53,374.98 M129.53,352.25l-12.47,20.23l-4.32-2.67l12.47-20.23L129.53,352.25z"/>
	<path class="st6" d="M118.69,345.62l-14.96,18.47l-3.5-2.84l2.33-3.48c-1.49,0.68-3.06,0.9-4.7,0.66c-1.64-0.24-3.17-0.94-4.62-2.1
		c-2.23-1.81-3.43-3.93-3.58-6.35c-0.15-2.42,0.89-5.02,3.12-7.77l8.59-10.61l3.91,3.17l-8.26,10.2c-2.9,3.58-2.88,6.55,0.05,8.92
		c1.47,1.19,3.1,1.65,4.9,1.38c1.8-0.27,3.49-1.37,5.05-3.31l7.72-9.53L118.69,345.62z"/>
	<path class="st6" d="M84.83,324.48c0.82,0.94,1.47,1.9,1.95,2.88l2.87,0.22c-0.06-0.41-0.2-0.86-0.42-1.35
		c-0.22-0.49-0.58-1.13-1.1-1.91c-0.51-0.78-1.25-1.81-2.21-3.1c-1.87-2.57-2.8-4.78-2.8-6.65c0-1.87,0.77-3.47,2.3-4.82
		c1.06-0.93,2.31-1.52,3.75-1.79c1.44-0.27,2.98-0.06,4.61,0.61c1.63,0.67,3.26,1.93,4.88,3.78c2.19,2.5,3.49,4.94,3.9,7.32
		c0.41,2.38-0.35,4.41-2.27,6.1c-0.74,0.65-1.66,1.1-2.74,1.35c-1.08,0.24-2.32,0.22-3.73-0.08c0.23,0.69,0.38,1.34,0.45,1.93
		c0.07,0.59,0.11,1.15,0.09,1.67l-0.86,0.76l-5.89-0.32c0.02,2.45-0.94,4.52-2.89,6.23c-1.18,1.03-2.5,1.69-3.97,1.98
		c-1.47,0.29-2.96,0.15-4.49-0.43c-1.52-0.58-2.95-1.62-4.28-3.13c-0.88-1.01-1.56-2.07-2.03-3.19l-5.84-6.67l2.52-2.21l2.96,3.01
		c0.48-1.44,1.32-2.69,2.52-3.74c1.2-1.05,2.53-1.72,3.98-2c1.46-0.28,2.94-0.14,4.45,0.43C82.08,321.93,83.5,322.96,84.83,324.48
		 M81.84,327.1c-0.97-1.1-2.05-1.74-3.24-1.91c-1.19-0.17-2.32,0.22-3.41,1.17c-1.1,0.97-1.65,2.05-1.62,3.24
		c0.03,1.19,0.52,2.34,1.49,3.44c0.99,1.13,2.07,1.78,3.25,1.96c1.18,0.18,2.32-0.22,3.42-1.18c1.08-0.95,1.62-2.02,1.6-3.22
		C83.33,329.39,82.83,328.23,81.84,327.1 M96.78,322.48c1.03-0.9,1.41-2.04,1.12-3.41c-0.28-1.37-1.03-2.73-2.23-4.1
		c-1.16-1.32-2.38-2.14-3.66-2.46c-1.28-0.32-2.39-0.07-3.33,0.75c-0.7,0.61-1.05,1.41-1.06,2.39c-0.01,0.98,0.6,2.3,1.83,3.94
		c0.94,1.22,1.73,2.33,2.36,3.35c1.19,0.44,2.19,0.59,2.99,0.43C95.62,323.22,96.27,322.92,96.78,322.48"/>
	<path class="st6" d="M71.78,294.82l-21.21,10.71l-2.03-4.02l3.55-2.22c-1.64,0.01-3.16-0.43-4.56-1.32
		c-1.4-0.89-2.51-2.16-3.35-3.81c-1.3-2.57-1.51-4.99-0.66-7.26c0.86-2.27,2.87-4.21,6.03-5.81l12.19-6.16l2.27,4.49l-11.72,5.92
		c-4.11,2.07-5.31,4.79-3.61,8.16c0.85,1.68,2.15,2.77,3.9,3.26c1.75,0.49,3.74,0.18,5.96-0.95l10.95-5.53L71.78,294.82z"/>
	<path class="st6" d="M56.73,258.08c0.67,2.23,0.77,4.36,0.3,6.39c-0.47,2.03-1.45,3.8-2.93,5.31c-1.48,1.51-3.4,2.62-5.75,3.33
		c-2.38,0.72-4.62,0.87-6.72,0.45c-2.09-0.42-3.91-1.34-5.44-2.77c-1.53-1.42-2.64-3.28-3.33-5.58c-0.67-2.23-0.76-4.33-0.26-6.28
		c0.5-1.95,1.43-3.63,2.81-5.05c1.38-1.41,3.06-2.42,5.04-3.02c0.31-0.09,0.64-0.18,0.99-0.27c0.36-0.09,0.75-0.18,1.19-0.28
		l5.33,17.71c2.16-0.82,3.61-2.04,4.37-3.69c0.76-1.65,0.88-3.32,0.36-5.04c-0.41-1.38-1.08-2.44-1.98-3.18
		c-0.91-0.74-1.96-1.18-3.17-1.32l-1.46-4.86c2.33-0.03,4.48,0.65,6.47,2.03C54.52,253.35,55.92,255.39,56.73,258.08 M36.86,264.06
		c0.49,1.62,1.4,2.91,2.74,3.88c1.34,0.96,3.02,1.29,5.03,0.99l-3.86-12.85c-1.75,0.63-2.96,1.67-3.65,3.15
		C36.42,260.7,36.33,262.31,36.86,264.06"/>
	<polygon class="st6" points="51.14,237.88 28.16,247.13 27.67,242.08 45.07,235.77 26.73,232.35 26.19,226.72 43.52,219.84 
		25.24,216.99 24.75,211.93 49.08,216.61 49.59,221.81 31.51,229.04 50.64,232.68 	"/>
	<path class="st6" d="M52.66,181.28c-0.44,2.26-1.36,4.15-2.76,5.66c-1.4,1.52-3.12,2.59-5.16,3.2c-2.04,0.61-4.24,0.69-6.59,0.24
		c-2.35-0.46-4.35-1.35-6-2.67c-1.65-1.33-2.83-2.96-3.54-4.91c-0.71-1.94-0.85-4.04-0.41-6.3c0.36-1.85,1.03-3.4,2.02-4.66
		c0.99-1.26,2.22-2.15,3.69-2.68l-14.11-2.73l0.97-4.99L54.64,168l-0.87,4.47l-3.72-0.18c0.95,0.97,1.72,2.19,2.32,3.67
		C52.96,177.44,53.06,179.21,52.66,181.28 M48.5,179.55c0.41-2.13,0.01-4.02-1.2-5.67c-1.21-1.65-2.98-2.7-5.3-3.15
		c-2.35-0.46-4.39-0.14-6.11,0.94c-1.72,1.08-2.79,2.69-3.2,4.82c-0.41,2.13-0.02,4.03,1.17,5.69c1.19,1.66,2.96,2.72,5.32,3.18
		c1.54,0.3,2.96,0.25,4.27-0.15c1.31-0.4,2.42-1.09,3.3-2.07C47.65,182.16,48.23,180.96,48.5,179.55"/>
	<path class="st6" d="M61.28,151.27c-0.85,2.17-2.09,3.91-3.72,5.21c-1.63,1.3-3.49,2.09-5.59,2.36c-2.1,0.28-4.29-0.04-6.58-0.94
		c-2.32-0.91-4.17-2.18-5.56-3.8c-1.39-1.63-2.24-3.47-2.56-5.54c-0.32-2.06-0.04-4.21,0.83-6.44c0.85-2.17,2.08-3.87,3.67-5.1
		c1.6-1.23,3.37-1.97,5.33-2.23c1.96-0.26,3.9-0.01,5.83,0.75c0.3,0.12,0.61,0.25,0.95,0.4c0.34,0.15,0.71,0.32,1.11,0.51
		l-6.76,17.22c2.2,0.69,4.1,0.63,5.72-0.2c1.61-0.83,2.74-2.07,3.4-3.74c0.53-1.34,0.66-2.58,0.41-3.73c-0.25-1.15-0.81-2.15-1.68-3
		l1.85-4.73c1.85,1.41,3.12,3.28,3.83,5.59C62.47,146.18,62.31,148.65,61.28,151.27 M41.97,143.68c-0.62,1.58-0.7,3.16-0.24,4.74
		c0.46,1.59,1.57,2.88,3.34,3.88l4.9-12.49c-1.76-0.59-3.37-0.52-4.82,0.22C43.7,140.78,42.63,141.99,41.97,143.68"/>
	<path class="st6" d="M73.13,127.27c-1.54,2.58-3.44,4.33-5.7,5.25c-2.26,0.92-4.51,0.88-6.74-0.12l2.63-4.4
		c1.06,0.34,2.18,0.3,3.34-0.13c1.16-0.42,2.15-1.3,2.95-2.65c0.79-1.32,1.08-2.44,0.9-3.37c-0.19-0.93-0.64-1.61-1.35-2.03
		c-1.04-0.62-2-0.63-2.87-0.01c-0.87,0.62-1.9,1.58-3.08,2.88c-0.93,1-1.95,1.95-3.04,2.85c-1.09,0.89-2.24,1.49-3.44,1.8
		c-1.2,0.3-2.45,0.07-3.74-0.7c-1.78-1.06-2.86-2.64-3.24-4.72c-0.38-2.08,0.17-4.36,1.65-6.83c1.36-2.28,3.01-3.79,4.95-4.55
		c1.94-0.76,3.99-0.66,6.14,0.29l-2.5,4.2c-0.96-0.39-1.89-0.39-2.78-0.01c-0.9,0.38-1.68,1.13-2.35,2.25
		c-0.66,1.1-0.94,2.08-0.84,2.96c0.09,0.87,0.49,1.52,1.21,1.95c0.71,0.43,1.53,0.34,2.44-0.25c0.91-0.59,1.94-1.47,3.09-2.65
		c1.12-1.19,2.23-2.25,3.32-3.18c1.09-0.93,2.24-1.52,3.43-1.78c1.19-0.26,2.53,0.06,4.01,0.94c1.88,1.09,3,2.73,3.36,4.93
		C75.21,122.39,74.63,124.75,73.13,127.27"/>
	<path class="st6" d="M60.86,94.14c-0.58,0.76-1.3,1.21-2.15,1.34c-0.85,0.13-1.63-0.07-2.34-0.62c-0.71-0.54-1.11-1.24-1.2-2.1
		c-0.09-0.85,0.16-1.66,0.74-2.42c0.58-0.76,1.3-1.21,2.15-1.34c0.85-0.13,1.63,0.07,2.34,0.62c0.71,0.55,1.11,1.25,1.2,2.1
		C61.69,92.57,61.45,93.38,60.86,94.14 M81.72,113.38L62.88,98.9l3.1-4.03l18.84,14.49L81.72,113.38z"/>
	<path class="st6" d="M91.14,91.25c-0.88,0.89-1.79,1.6-2.73,2.15l-0.02,2.88c0.41-0.09,0.85-0.26,1.32-0.52
		c0.47-0.25,1.08-0.66,1.82-1.23c0.74-0.57,1.72-1.38,2.93-2.42c2.43-2.05,4.57-3.14,6.43-3.28c1.86-0.13,3.52,0.52,4.97,1.95
		c1,0.99,1.68,2.19,2.05,3.61c0.37,1.42,0.28,2.97-0.28,4.64c-0.55,1.67-1.7,3.39-3.42,5.14c-2.34,2.36-4.68,3.83-7.02,4.41
		c-2.35,0.58-4.43-0.03-6.25-1.83c-0.7-0.7-1.22-1.57-1.54-2.63c-0.32-1.06-0.39-2.3-0.19-3.73c-0.68,0.28-1.31,0.47-1.89,0.59
		c-0.59,0.12-1.14,0.19-1.66,0.21l-0.82-0.81l-0.1-5.89c-2.44,0.2-4.58-0.62-6.42-2.43c-1.11-1.1-1.87-2.37-2.26-3.82
		c-0.39-1.44-0.36-2.95,0.11-4.51c0.46-1.56,1.4-3.06,2.82-4.49c0.94-0.95,1.95-1.71,3.04-2.26l6.23-6.3l2.39,2.36l-2.79,3.17
		c1.47,0.38,2.77,1.12,3.91,2.25c1.14,1.12,1.89,2.4,2.28,3.83c0.38,1.43,0.34,2.92-0.11,4.47C93.49,88.33,92.55,89.82,91.14,91.25
		 M88.31,88.46c1.03-1.04,1.59-2.17,1.67-3.36c0.08-1.2-0.39-2.3-1.41-3.31c-1.04-1.03-2.16-1.49-3.34-1.39
		c-1.18,0.11-2.29,0.69-3.33,1.73c-1.06,1.07-1.63,2.19-1.72,3.38c-0.1,1.19,0.38,2.3,1.43,3.33c1.02,1.01,2.13,1.47,3.33,1.37
		C86.13,90.11,87.25,89.53,88.31,88.46 M93.99,103.03c0.98,0.97,2.14,1.26,3.48,0.88c1.34-0.38,2.65-1.22,3.93-2.51
		c1.23-1.25,1.97-2.53,2.2-3.83c0.23-1.3-0.1-2.39-0.98-3.26c-0.66-0.65-1.48-0.95-2.46-0.88c-0.98,0.06-2.25,0.77-3.8,2.11
		c-1.15,1.02-2.2,1.89-3.17,2.59c-0.35,1.22-0.43,2.23-0.22,3.02C93.17,101.92,93.51,102.56,93.99,103.03"/>
	<path class="st6" d="M109.1,84.19L95.27,64.86l3.66-2.62l2.74,3.17c-0.26-1.62-0.05-3.19,0.61-4.71c0.66-1.52,1.75-2.81,3.26-3.89
		c2.34-1.67,4.7-2.26,7.07-1.76c2.38,0.5,4.6,2.19,6.66,5.07l7.95,11.11l-4.09,2.93l-7.64-10.68c-2.68-3.74-5.55-4.51-8.61-2.32
		c-1.53,1.1-2.41,2.55-2.63,4.35c-0.22,1.81,0.4,3.72,1.84,5.75l7.14,9.97L109.1,84.19z"/>
	<rect x="173.13" y="171.09" class="st7" width="81.98" height="81.98"/>
	<rect x="173.13" y="171.09" class="st8" width="81.98" height="81.98"/>
</g>
</svg>
