<?xml version="1.0" encoding="utf-8"?>
<!-- Generator: Adobe Illustrator 23.0.3, SVG Export Plug-In . SVG Version: 6.00 Build 0)  -->
<svg version="1.1" xmlns="http://www.w3.org/2000/svg" xmlns:xlink="http://www.w3.org/1999/xlink" x="0px" y="0px"
	 viewBox="0 0 176 181" style="enable-background:new 0 0 176 181;" xml:space="preserve">
<style type="text/css">
	.st0{display:none;}
	.st1{display:inline;fill:none;stroke:#F2F2F2;stroke-width:8;stroke-miterlimit:10;}
	.st2{fill:#F2F2F2;}
	.st3{fill:#F03A28;}
</style>
<g id="Capa_6" class="st0">
	<polyline class="st1" points="72.3,68.61 126.5,68.61 126.5,122.82 	"/>
	<line class="st1" x1="124.95" y1="70.05" x2="74.5" y2="120.5"/>
</g>
<g id="Capa_2">
	<g id="Sello">
		<path class="st2" d="M77.55,17.17c-1.03,0.17-1.98,0.08-2.85-0.25c-0.87-0.33-1.6-0.87-2.18-1.61c-0.58-0.74-0.96-1.66-1.13-2.74
			c-0.18-1.1-0.11-2.1,0.2-3c0.31-0.9,0.83-1.65,1.55-2.24c0.72-0.59,1.61-0.97,2.67-1.14c1.03-0.17,1.96-0.08,2.79,0.26
			c0.83,0.34,1.52,0.85,2.07,1.54c0.55,0.69,0.89,1.5,1.04,2.41c0.02,0.14,0.04,0.29,0.06,0.46c0.02,0.16,0.04,0.34,0.06,0.54
			l-8.16,1.31c0.23,1,0.69,1.72,1.37,2.15c0.68,0.43,1.42,0.58,2.21,0.46c0.63-0.1,1.14-0.33,1.53-0.69
			c0.38-0.36,0.64-0.8,0.77-1.33l2.24-0.36c-0.12,1.03-0.55,1.95-1.28,2.74C79.78,16.48,78.79,16.97,77.55,17.17 M76.09,8.02
			c-0.75,0.12-1.37,0.45-1.88,0.98c-0.51,0.54-0.75,1.26-0.74,2.17l5.92-0.95c-0.17-0.81-0.57-1.41-1.18-1.81
			C77.6,8.03,76.89,7.9,76.09,8.02"/>
		<polygon class="st2" points="87.84,15.99 84.03,5.32 86.41,5.35 89.22,13.85 92.31,5.45 94.67,5.49 90.54,16.04 		"/>
		<path class="st2" d="M100.95,17.24c-1-0.16-1.86-0.54-2.58-1.13c-0.72-0.59-1.24-1.33-1.57-2.23c-0.33-0.9-0.4-1.9-0.22-3
			c0.18-1.1,0.57-2.02,1.18-2.77c0.61-0.75,1.35-1.28,2.23-1.61c0.88-0.33,1.81-0.41,2.79-0.25c1,0.16,1.86,0.54,2.58,1.13
			c0.72,0.59,1.25,1.33,1.59,2.23c0.34,0.9,0.41,1.9,0.23,3c-0.18,1.1-0.57,2.02-1.18,2.77c-0.61,0.75-1.35,1.28-2.23,1.61
			C102.89,17.32,101.95,17.4,100.95,17.24 M101.27,15.32c0.53,0.09,1.05,0.04,1.55-0.16c0.5-0.19,0.94-0.53,1.3-1.01
			c0.37-0.48,0.62-1.12,0.75-1.91c0.13-0.79,0.1-1.47-0.09-2.04c-0.19-0.57-0.49-1.03-0.9-1.37c-0.41-0.34-0.89-0.56-1.42-0.65
			c-0.54-0.09-1.05-0.04-1.55,0.16c-0.5,0.19-0.94,0.53-1.3,1.01c-0.37,0.48-0.62,1.12-0.75,1.9c-0.13,0.79-0.1,1.47,0.1,2.04
			c0.19,0.57,0.5,1.03,0.9,1.37C100.26,15.01,100.73,15.23,101.27,15.32"/>
		
			<rect x="104.61" y="10.57" transform="matrix(0.287 -0.9579 0.9579 0.287 68.8732 115.9419)" class="st2" width="15.41" height="2.27"/>
		<polygon class="st2" points="117.08,21.56 117.68,10.23 119.85,11.18 119.18,20.11 125.27,13.55 127.42,14.49 119.55,22.63 		"/>
		<path class="st2" d="M125.24,25.55l5.39-9.14l1.95,1.15l-5.39,9.14L125.24,25.55z M132.63,15.25c-0.37-0.22-0.61-0.51-0.71-0.88
			c-0.11-0.37-0.06-0.72,0.15-1.07c0.2-0.34,0.49-0.56,0.87-0.64c0.37-0.09,0.74-0.02,1.11,0.2c0.37,0.22,0.61,0.51,0.71,0.88
			c0.1,0.37,0.06,0.73-0.15,1.07c-0.2,0.34-0.49,0.56-0.86,0.65C133.37,15.53,133,15.47,132.63,15.25"/>
		<path class="st2" d="M130.12,28.4l6.52-8.38l1.59,1.23l-1.01,1.58c0.66-0.32,1.36-0.43,2.09-0.34c0.73,0.09,1.43,0.39,2.08,0.9
			c1.01,0.79,1.57,1.72,1.66,2.8c0.09,1.08-0.35,2.25-1.32,3.5l-3.74,4.82l-1.77-1.38l3.6-4.63c1.26-1.62,1.23-2.95-0.1-3.98
			c-0.66-0.52-1.4-0.71-2.2-0.57c-0.8,0.14-1.54,0.64-2.23,1.52l-3.36,4.33L130.12,28.4z"/>
		<path class="st2" d="M145.43,37.55c-0.37-0.41-0.67-0.83-0.9-1.27l-1.28-0.07c0.03,0.18,0.1,0.38,0.2,0.6
			c0.1,0.22,0.27,0.5,0.51,0.84c0.24,0.34,0.57,0.8,1.01,1.36c0.86,1.13,1.29,2.11,1.31,2.95c0.02,0.83-0.31,1.56-0.99,2.17
			c-0.46,0.42-1.02,0.7-1.66,0.83c-0.64,0.13-1.33,0.06-2.06-0.23c-0.73-0.29-1.47-0.83-2.21-1.65c-1-1.1-1.6-2.17-1.81-3.23
			c-0.2-1.06,0.12-1.97,0.96-2.74c0.33-0.3,0.73-0.51,1.21-0.63c0.48-0.12,1.04-0.12,1.67,0c-0.11-0.31-0.18-0.59-0.22-0.86
			c-0.04-0.27-0.06-0.51-0.06-0.74l0.38-0.35l2.63,0.09c-0.03-1.09,0.38-2.03,1.23-2.81c0.52-0.47,1.1-0.78,1.75-0.92
			c0.65-0.14,1.32-0.09,2.01,0.15c0.69,0.24,1.33,0.7,1.94,1.36c0.4,0.44,0.72,0.91,0.94,1.41l2.67,2.93l-1.11,1.01l-1.35-1.32
			c-0.2,0.65-0.57,1.21-1.09,1.69c-0.53,0.48-1.11,0.79-1.76,0.93c-0.65,0.14-1.31,0.09-1.99-0.15
			C146.68,38.66,146.03,38.21,145.43,37.55 M140.11,38.55c-0.45,0.41-0.61,0.92-0.47,1.53c0.14,0.61,0.48,1.21,1.03,1.81
			c0.53,0.58,1.08,0.94,1.65,1.07c0.57,0.13,1.07,0.01,1.48-0.36c0.31-0.28,0.46-0.64,0.45-1.08c-0.01-0.44-0.29-1.02-0.85-1.74
			c-0.43-0.53-0.79-1.03-1.08-1.47c-0.54-0.19-0.98-0.24-1.34-0.17C140.62,38.21,140.33,38.35,140.11,38.55 M146.74,36.35
			c0.44,0.48,0.93,0.76,1.46,0.82c0.53,0.06,1.04-0.12,1.51-0.55c0.48-0.44,0.72-0.93,0.7-1.46c-0.02-0.53-0.25-1.04-0.7-1.52
			c-0.45-0.5-0.94-0.78-1.47-0.85c-0.53-0.07-1.03,0.12-1.52,0.56c-0.47,0.43-0.7,0.92-0.69,1.45
			C146.05,35.34,146.29,35.86,146.74,36.35"/>
		<path class="st2" d="M151.52,50.69l9.38-4.97l0.94,1.78l-1.56,1.02c0.73-0.02,1.42,0.17,2.05,0.55c0.63,0.38,1.14,0.94,1.53,1.67
			c0.6,1.13,0.72,2.21,0.36,3.24c-0.36,1.02-1.24,1.91-2.64,2.65l-5.39,2.86l-1.05-1.99l5.18-2.75c1.82-0.96,2.33-2.19,1.54-3.67
			c-0.39-0.74-0.99-1.22-1.77-1.42c-0.79-0.2-1.67-0.05-2.66,0.48l-4.84,2.57L151.52,50.69z"/>
		<path class="st2" d="M158.57,66.97c-0.32-0.99-0.38-1.94-0.19-2.85c0.19-0.91,0.61-1.71,1.26-2.4c0.65-0.69,1.49-1.2,2.54-1.54
			c1.06-0.34,2.06-0.43,3-0.26c0.94,0.17,1.76,0.57,2.45,1.19c0.7,0.62,1.21,1.44,1.54,2.46c0.32,0.99,0.38,1.93,0.17,2.8
			c-0.21,0.88-0.61,1.64-1.21,2.28c-0.6,0.64-1.34,1.11-2.23,1.39c-0.14,0.04-0.28,0.09-0.44,0.13c-0.16,0.04-0.33,0.09-0.53,0.14
			l-2.54-7.86c-0.96,0.38-1.6,0.95-1.92,1.69c-0.32,0.74-0.36,1.49-0.12,2.25c0.2,0.61,0.5,1.08,0.91,1.4
			c0.41,0.32,0.89,0.51,1.43,0.56l0.7,2.16c-1.04,0.03-2.01-0.25-2.91-0.85C159.6,69.06,158.96,68.16,158.57,66.97 M167.39,64.13
			c-0.23-0.72-0.65-1.29-1.26-1.71c-0.61-0.42-1.36-0.55-2.25-0.4l1.84,5.7c0.77-0.29,1.31-0.77,1.6-1.44
			C167.62,65.62,167.64,64.9,167.39,64.13"/>
		<polygon class="st2" points="161.24,75.94 171.43,71.61 171.69,73.86 163.98,76.83 172.19,78.2 172.49,80.71 164.8,83.93 
			172.99,85.04 173.25,87.3 162.35,85.42 162.08,83.11 170.09,79.72 161.51,78.26 		"/>
		<path class="st2" d="M161.06,101.22c0.17-1.01,0.57-1.86,1.18-2.55c0.61-0.69,1.37-1.18,2.28-1.47c0.9-0.29,1.88-0.35,2.94-0.16
			c1.05,0.18,1.95,0.56,2.7,1.14c0.75,0.58,1.29,1.3,1.62,2.16c0.34,0.86,0.42,1.8,0.24,2.81c-0.14,0.83-0.43,1.53-0.86,2.1
			c-0.43,0.57-0.97,0.98-1.62,1.23l6.33,1.1l-0.39,2.24l-15.18-2.63l0.35-2l1.66,0.05c-0.43-0.42-0.79-0.96-1.07-1.62
			C160.96,102.94,160.9,102.15,161.06,101.22 M162.93,101.96c-0.17,0.96,0.03,1.8,0.58,2.52c0.55,0.73,1.35,1.18,2.39,1.36
			c1.05,0.18,1.96,0.02,2.72-0.47c0.76-0.5,1.22-1.23,1.39-2.18c0.17-0.96-0.02-1.8-0.57-2.53c-0.55-0.73-1.35-1.19-2.4-1.37
			c-0.69-0.12-1.32-0.09-1.91,0.1c-0.58,0.19-1.07,0.51-1.46,0.95C163.29,100.78,163.04,101.32,162.93,101.96"/>
		<path class="st2" d="M157.48,114.69c0.36-0.98,0.9-1.76,1.61-2.36c0.71-0.6,1.54-0.96,2.47-1.11c0.93-0.14,1.92-0.02,2.95,0.36
			c1.04,0.39,1.88,0.94,2.52,1.65c0.63,0.71,1.03,1.53,1.19,2.45c0.16,0.92,0.06,1.88-0.31,2.88c-0.36,0.98-0.89,1.75-1.59,2.31
			c-0.7,0.56-1.49,0.91-2.36,1.04c-0.87,0.13-1.74,0.04-2.61-0.28c-0.13-0.05-0.28-0.11-0.43-0.17c-0.15-0.06-0.32-0.14-0.5-0.22
			l2.86-7.75c-0.99-0.29-1.84-0.24-2.55,0.14c-0.71,0.38-1.21,0.95-1.48,1.7c-0.22,0.6-0.27,1.16-0.15,1.67
			c0.12,0.51,0.38,0.95,0.78,1.33l-0.79,2.13c-0.84-0.61-1.42-1.44-1.76-2.46C156.99,116.97,157.04,115.87,157.48,114.69
			 M166.17,117.91c0.26-0.71,0.28-1.42,0.06-2.12c-0.22-0.7-0.73-1.27-1.53-1.7l-2.08,5.62c0.79,0.25,1.51,0.2,2.15-0.14
			C165.43,119.22,165.89,118.67,166.17,117.91"/>
		<path class="st2" d="M152.39,125.53c0.66-1.16,1.5-1.96,2.5-2.39c1-0.43,2-0.43,3.01-0.01l-1.13,1.99
			c-0.48-0.14-0.97-0.11-1.49,0.09c-0.52,0.2-0.95,0.6-1.29,1.21c-0.34,0.6-0.46,1.1-0.37,1.51c0.09,0.41,0.3,0.71,0.62,0.9
			c0.47,0.27,0.9,0.26,1.28-0.02c0.38-0.28,0.83-0.72,1.35-1.31c0.41-0.46,0.85-0.89,1.33-1.3c0.48-0.41,0.99-0.69,1.52-0.83
			c0.54-0.15,1.09-0.05,1.68,0.28c0.81,0.46,1.3,1.15,1.49,2.08c0.18,0.93-0.04,1.95-0.68,3.06c-0.59,1.03-1.31,1.72-2.17,2.08
			c-0.86,0.36-1.77,0.33-2.74-0.07l1.08-1.9c0.43,0.16,0.85,0.16,1.24-0.02c0.4-0.18,0.74-0.52,1.03-1.03
			c0.28-0.5,0.4-0.94,0.35-1.33c-0.05-0.39-0.23-0.68-0.56-0.86c-0.32-0.18-0.68-0.14-1.08,0.13c-0.4,0.27-0.85,0.67-1.36,1.21
			c-0.49,0.54-0.97,1.02-1.45,1.45c-0.48,0.42-0.99,0.7-1.52,0.82c-0.53,0.12-1.13,0-1.8-0.39c-0.85-0.47-1.36-1.19-1.54-2.17
			C151.51,127.73,151.74,126.67,152.39,125.53"/>
		<path class="st2" d="M148.68,131.8l8.54,6.3l-1.35,1.83l-8.54-6.3L148.68,131.8z M158.17,140.21c0.25-0.34,0.57-0.55,0.95-0.62
			c0.38-0.07,0.73,0.02,1.05,0.26c0.32,0.24,0.51,0.55,0.55,0.93c0.05,0.38-0.06,0.74-0.31,1.09c-0.25,0.34-0.57,0.55-0.95,0.62
			c-0.38,0.07-0.73-0.02-1.05-0.26c-0.32-0.24-0.51-0.55-0.55-0.93C157.81,140.92,157.91,140.56,158.17,140.21"/>
		<path class="st2" d="M144.68,141.76c0.38-0.4,0.78-0.73,1.2-0.98l-0.02-1.29c-0.18,0.04-0.38,0.13-0.58,0.24
			c-0.21,0.12-0.48,0.3-0.8,0.57c-0.33,0.26-0.76,0.63-1.29,1.11c-1.07,0.94-2.01,1.44-2.84,1.52c-0.83,0.08-1.58-0.2-2.24-0.83
			c-0.45-0.43-0.77-0.96-0.95-1.6c-0.18-0.63-0.15-1.32,0.08-2.08c0.23-0.75,0.73-1.53,1.48-2.32c1.02-1.08,2.06-1.75,3.1-2.03
			c1.04-0.28,1.98-0.03,2.8,0.76c0.32,0.3,0.56,0.69,0.71,1.16c0.15,0.47,0.19,1.02,0.12,1.66c0.3-0.13,0.58-0.22,0.84-0.28
			c0.26-0.06,0.51-0.09,0.74-0.11l0.37,0.35l0.1,2.63c1.09-0.11,2.05,0.24,2.89,1.03c0.51,0.48,0.85,1.04,1.04,1.68
			c0.19,0.64,0.18,1.31-0.01,2.01c-0.19,0.7-0.6,1.38-1.22,2.03c-0.41,0.43-0.86,0.78-1.34,1.03l-2.73,2.87l-1.09-1.03l1.22-1.44
			c-0.66-0.15-1.25-0.48-1.77-0.97c-0.52-0.49-0.87-1.06-1.05-1.69c-0.18-0.64-0.18-1.3,0.01-2
			C143.66,143.08,144.06,142.41,144.68,141.76 M143.3,136.52c-0.44-0.42-0.96-0.54-1.56-0.36c-0.6,0.18-1.17,0.57-1.73,1.16
			c-0.54,0.57-0.86,1.14-0.95,1.73c-0.09,0.58,0.07,1.06,0.47,1.45c0.3,0.28,0.67,0.41,1.11,0.37c0.44-0.04,1-0.36,1.68-0.97
			c0.5-0.47,0.97-0.86,1.39-1.19c0.15-0.55,0.17-1,0.07-1.35C143.68,137.01,143.52,136.73,143.3,136.52 M145.97,142.98
			c-0.45,0.48-0.69,0.98-0.72,1.52c-0.03,0.54,0.19,1.02,0.66,1.47c0.48,0.45,0.98,0.65,1.51,0.59c0.53-0.06,1.02-0.33,1.47-0.8
			c0.46-0.49,0.71-1,0.74-1.52c0.03-0.53-0.19-1.02-0.67-1.47c-0.47-0.44-0.97-0.64-1.5-0.58
			C146.92,142.22,146.43,142.49,145.97,142.98"/>
		<path class="st2" d="M136.7,145.08l6.34,8.51l-1.61,1.2l-1.25-1.39c0.13,0.72,0.05,1.42-0.23,2.11c-0.28,0.68-0.76,1.27-1.42,1.77
			c-1.03,0.77-2.08,1.05-3.14,0.85c-1.07-0.2-2.07-0.94-3.02-2.21l-3.65-4.89l1.8-1.34l3.51,4.7c1.23,1.65,2.52,1.97,3.87,0.96
			c0.67-0.5,1.05-1.16,1.14-1.97c0.08-0.81-0.21-1.66-0.88-2.55l-3.27-4.39L136.7,145.08z"/>
		<path class="st2" d="M99.13,161.54c1.03-0.14,1.98-0.04,2.84,0.3c0.86,0.35,1.58,0.9,2.14,1.65c0.57,0.76,0.93,1.68,1.08,2.77
			c0.15,1.1,0.07,2.1-0.26,3c-0.33,0.9-0.86,1.63-1.59,2.21c-0.73,0.58-1.63,0.94-2.69,1.09c-1.03,0.14-1.96,0.04-2.79-0.31
			c-0.83-0.35-1.51-0.88-2.04-1.58s-0.86-1.51-0.99-2.43c-0.02-0.14-0.04-0.29-0.05-0.46c-0.02-0.16-0.03-0.35-0.04-0.55l8.18-1.15
			c-0.21-1.01-0.66-1.73-1.33-2.18c-0.67-0.44-1.41-0.61-2.2-0.5c-0.64,0.09-1.15,0.31-1.54,0.66c-0.39,0.35-0.66,0.79-0.8,1.31
			l-2.25,0.31c0.14-1.03,0.59-1.93,1.34-2.72C96.89,162.19,97.89,161.71,99.13,161.54 M100.42,170.72c0.75-0.11,1.38-0.42,1.9-0.95
			c0.52-0.53,0.78-1.24,0.78-2.15l-5.93,0.83c0.16,0.81,0.54,1.42,1.14,1.83C98.91,170.68,99.61,170.83,100.42,170.72"/>
		<polygon class="st2" points="88.86,162.5 92.62,173.19 90.24,173.14 87.47,164.63 84.34,173.02 81.99,172.97 86.16,162.44 		"/>
		<path class="st2" d="M75.76,161.02c1,0.18,1.85,0.58,2.56,1.18c0.71,0.6,1.22,1.36,1.53,2.26c0.31,0.91,0.37,1.91,0.16,3
			c-0.2,1.09-0.61,2.01-1.23,2.74c-0.62,0.73-1.37,1.26-2.26,1.56c-0.88,0.31-1.82,0.37-2.8,0.19c-1-0.18-1.85-0.58-2.56-1.18
			c-0.71-0.6-1.22-1.36-1.54-2.26c-0.32-0.91-0.38-1.91-0.18-3c0.2-1.1,0.61-2.01,1.23-2.74c0.62-0.73,1.37-1.26,2.26-1.56
			C73.82,160.9,74.76,160.83,75.76,161.02 M75.4,162.93c-0.53-0.1-1.05-0.06-1.56,0.13c-0.5,0.18-0.95,0.51-1.32,0.99
			c-0.38,0.47-0.64,1.1-0.78,1.89c-0.14,0.79-0.13,1.47,0.05,2.04c0.18,0.58,0.47,1.04,0.88,1.39c0.41,0.35,0.88,0.58,1.41,0.67
			c0.53,0.1,1.05,0.06,1.56-0.13c0.51-0.18,0.95-0.51,1.32-0.99c0.38-0.47,0.64-1.1,0.78-1.89c0.15-0.79,0.13-1.47-0.06-2.05
			c-0.18-0.58-0.48-1.04-0.88-1.39C76.4,163.25,75.94,163.03,75.4,162.93"/>
		
			<rect x="56.56" y="165.18" transform="matrix(0.306 -0.952 0.952 0.306 -113.7403 176.6019)" class="st2" width="15.41" height="2.27"/>
		<polygon class="st2" points="59.7,156.38 58.89,167.68 56.73,166.69 57.58,157.78 51.36,164.22 49.22,163.24 57.25,155.25 		"/>
		<path class="st2" d="M44.05,162.38c0.36,0.22,0.6,0.52,0.69,0.89c0.1,0.37,0.04,0.73-0.17,1.07c-0.21,0.34-0.5,0.55-0.88,0.63
			c-0.38,0.08-0.74,0.01-1.11-0.22c-0.36-0.22-0.6-0.52-0.69-0.89c-0.1-0.37-0.04-0.73,0.17-1.07c0.21-0.34,0.5-0.55,0.88-0.63
			C43.31,162.08,43.68,162.16,44.05,162.38 M51.64,152.23l-5.57,9.04l-1.93-1.19l5.57-9.04L51.64,152.23z"/>
		<path class="st2" d="M46.8,149.27l-6.68,8.25l-1.56-1.27l1.04-1.55c-0.67,0.3-1.37,0.4-2.1,0.3c-0.73-0.11-1.42-0.42-2.06-0.94
			c-1-0.81-1.53-1.75-1.6-2.84c-0.07-1.08,0.4-2.24,1.39-3.47l3.84-4.74l1.75,1.41l-3.69,4.56c-1.29,1.6-1.28,2.93,0.02,3.99
			c0.65,0.53,1.38,0.73,2.19,0.61c0.8-0.12,1.56-0.61,2.26-1.48l3.45-4.26L46.8,149.27z"/>
		<path class="st2" d="M31.67,139.82c0.37,0.42,0.66,0.85,0.87,1.29l1.28,0.1c-0.03-0.18-0.09-0.39-0.19-0.6
			c-0.1-0.22-0.26-0.5-0.49-0.85c-0.23-0.35-0.56-0.81-0.99-1.38c-0.83-1.15-1.25-2.14-1.25-2.97c0-0.83,0.34-1.55,1.03-2.15
			c0.47-0.41,1.03-0.68,1.68-0.8c0.65-0.12,1.33-0.03,2.06,0.27c0.73,0.3,1.45,0.86,2.18,1.69c0.98,1.12,1.56,2.21,1.74,3.27
			c0.18,1.06-0.16,1.97-1.01,2.72c-0.33,0.29-0.74,0.49-1.22,0.6c-0.48,0.11-1.04,0.1-1.67-0.03c0.1,0.31,0.17,0.6,0.2,0.86
			c0.03,0.27,0.05,0.51,0.04,0.75l-0.39,0.34l-2.63-0.14c0.01,1.09-0.42,2.02-1.29,2.78c-0.53,0.46-1.12,0.76-1.77,0.88
			c-0.66,0.13-1.32,0.06-2-0.19c-0.68-0.26-1.32-0.72-1.91-1.4c-0.39-0.45-0.7-0.93-0.91-1.42l-2.61-2.98l1.13-0.99l1.32,1.35
			c0.21-0.64,0.59-1.2,1.13-1.67c0.54-0.47,1.13-0.77,1.78-0.89c0.65-0.12,1.31-0.06,1.99,0.19
			C30.45,138.68,31.08,139.15,31.67,139.82 M30.34,140.99c-0.43-0.49-0.91-0.78-1.45-0.85c-0.53-0.08-1.04,0.1-1.52,0.52
			c-0.49,0.43-0.73,0.91-0.72,1.45c0.01,0.53,0.23,1.04,0.67,1.54c0.44,0.5,0.93,0.8,1.45,0.88c0.53,0.08,1.04-0.1,1.53-0.53
			c0.48-0.42,0.72-0.9,0.72-1.44C31,142.02,30.78,141.5,30.34,140.99 M37.01,138.93c0.46-0.4,0.63-0.91,0.5-1.52
			c-0.13-0.61-0.46-1.22-1-1.83c-0.52-0.59-1.06-0.96-1.63-1.1c-0.57-0.14-1.07-0.03-1.49,0.33c-0.31,0.27-0.47,0.63-0.47,1.07
			c0,0.44,0.27,1.03,0.82,1.76c0.42,0.54,0.77,1.04,1.05,1.5c0.53,0.2,0.98,0.26,1.34,0.19C36.49,139.26,36.78,139.13,37.01,138.93"
			/>
		<path class="st2" d="M25.85,126.57l-9.48,4.79l-0.91-1.8l1.59-0.99c-0.73,0-1.41-0.19-2.04-0.59c-0.62-0.4-1.12-0.96-1.5-1.7
			c-0.58-1.15-0.68-2.23-0.3-3.24c0.38-1.02,1.28-1.88,2.69-2.6l5.44-2.75l1.01,2.01l-5.23,2.64c-1.83,0.93-2.37,2.14-1.61,3.64
			c0.38,0.75,0.96,1.24,1.74,1.46c0.78,0.22,1.67,0.08,2.66-0.42l4.89-2.47L25.85,126.57z"/>
		<path class="st2" d="M19.12,110.16c0.3,1,0.34,1.95,0.13,2.85c-0.21,0.91-0.65,1.7-1.31,2.37c-0.66,0.68-1.52,1.17-2.57,1.49
			c-1.07,0.32-2.07,0.39-3,0.2c-0.94-0.19-1.74-0.6-2.43-1.24c-0.68-0.64-1.18-1.47-1.49-2.49c-0.3-1-0.34-1.93-0.12-2.8
			c0.22-0.87,0.64-1.62,1.25-2.26c0.61-0.63,1.37-1.08,2.25-1.35c0.14-0.04,0.28-0.08,0.44-0.12c0.16-0.04,0.34-0.08,0.53-0.13
			l2.38,7.91c0.96-0.36,1.61-0.91,1.95-1.65c0.34-0.73,0.39-1.48,0.16-2.25c-0.18-0.61-0.48-1.09-0.89-1.42
			c-0.4-0.33-0.88-0.53-1.42-0.59l-0.65-2.17c1.04-0.01,2,0.29,2.89,0.91C18.14,108.05,18.76,108.96,19.12,110.16 M10.25,112.83
			c0.22,0.72,0.63,1.3,1.22,1.73c0.6,0.43,1.35,0.58,2.25,0.44l-1.73-5.74c-0.78,0.28-1.32,0.75-1.63,1.41
			C10.05,111.34,10.01,112.05,10.25,112.83"/>
		<polygon class="st2" points="16.63,101.14 6.36,105.27 6.14,103.02 13.91,100.2 5.72,98.67 5.48,96.16 13.22,93.08 5.06,91.81 
			4.84,89.55 15.71,91.64 15.93,93.96 7.86,97.19 16.4,98.82 		"/>
		<path class="st2" d="M17.3,75.86c-0.2,1.01-0.61,1.85-1.23,2.53c-0.63,0.68-1.39,1.15-2.3,1.43c-0.91,0.27-1.89,0.31-2.94,0.11
			c-1.05-0.2-1.94-0.6-2.68-1.19c-0.74-0.59-1.26-1.32-1.58-2.19c-0.32-0.87-0.38-1.81-0.19-2.82c0.16-0.83,0.46-1.52,0.9-2.08
			c0.44-0.56,0.99-0.96,1.65-1.2l-6.3-1.22L3.06,67l15.13,2.93l-0.39,2l-1.66-0.08c0.43,0.43,0.77,0.98,1.03,1.64
			C17.44,74.15,17.48,74.94,17.3,75.86 M15.45,75.09c0.18-0.95,0.01-1.8-0.53-2.53c-0.54-0.74-1.33-1.21-2.37-1.41
			c-1.05-0.2-1.96-0.06-2.73,0.42c-0.77,0.48-1.25,1.2-1.43,2.15c-0.18,0.95-0.01,1.8,0.52,2.54c0.53,0.74,1.32,1.22,2.37,1.42
			c0.69,0.13,1.32,0.11,1.91-0.07c0.59-0.18,1.08-0.49,1.48-0.92C15.07,76.25,15.33,75.72,15.45,75.09"/>
		<path class="st2" d="M21.16,62.46c-0.38,0.97-0.93,1.74-1.66,2.33c-0.73,0.58-1.56,0.93-2.5,1.06c-0.94,0.12-1.92-0.02-2.94-0.42
			c-1.04-0.41-1.86-0.97-2.48-1.7c-0.62-0.73-1-1.55-1.14-2.47c-0.14-0.92-0.02-1.88,0.37-2.88c0.38-0.97,0.93-1.73,1.64-2.28
			c0.71-0.55,1.51-0.88,2.38-1c0.87-0.12,1.74-0.01,2.61,0.33c0.13,0.05,0.27,0.11,0.42,0.18c0.15,0.07,0.32,0.14,0.5,0.23
			l-3.02,7.69c0.98,0.31,1.83,0.28,2.55-0.09c0.72-0.37,1.22-0.93,1.52-1.67c0.23-0.6,0.3-1.15,0.18-1.66
			c-0.11-0.51-0.36-0.96-0.75-1.34l0.83-2.11c0.83,0.63,1.4,1.46,1.71,2.5C21.69,60.18,21.61,61.29,21.16,62.46 M12.53,59.07
			c-0.28,0.7-0.31,1.41-0.11,2.12c0.2,0.71,0.7,1.29,1.49,1.73l2.19-5.58c-0.78-0.26-1.5-0.23-2.15,0.1
			C13.3,57.77,12.83,58.31,12.53,59.07"/>
		<path class="st2" d="M26.45,51.74c-0.69,1.15-1.54,1.93-2.55,2.34c-1.01,0.41-2.01,0.39-3.01-0.05l1.17-1.97
			c0.48,0.15,0.97,0.13,1.49-0.06c0.52-0.19,0.96-0.58,1.32-1.18c0.35-0.59,0.48-1.09,0.4-1.51c-0.08-0.42-0.29-0.72-0.6-0.91
			c-0.47-0.28-0.89-0.28-1.28,0c-0.39,0.28-0.85,0.7-1.38,1.28c-0.42,0.45-0.87,0.87-1.36,1.27c-0.49,0.4-1,0.67-1.54,0.8
			c-0.54,0.14-1.1,0.03-1.67-0.31c-0.8-0.48-1.28-1.18-1.44-2.11c-0.17-0.93,0.08-1.95,0.74-3.05c0.61-1.02,1.34-1.69,2.21-2.03
			c0.87-0.34,1.78-0.3,2.74,0.13l-1.12,1.88c-0.43-0.17-0.84-0.18-1.24-0.01c-0.4,0.17-0.75,0.5-1.05,1.01
			c-0.29,0.49-0.42,0.93-0.38,1.32c0.04,0.39,0.22,0.68,0.54,0.87c0.32,0.19,0.68,0.15,1.09-0.11c0.41-0.26,0.87-0.66,1.38-1.18
			c0.5-0.53,0.99-1.01,1.48-1.42c0.49-0.41,1-0.68,1.53-0.79c0.53-0.11,1.13,0.03,1.79,0.42c0.84,0.49,1.34,1.22,1.5,2.2
			C27.38,49.56,27.12,50.61,26.45,51.74"/>
		<path class="st2" d="M20.97,36.94c-0.26,0.34-0.58,0.54-0.96,0.6c-0.38,0.06-0.73-0.03-1.04-0.28c-0.32-0.24-0.5-0.56-0.53-0.94
			c-0.04-0.38,0.07-0.74,0.33-1.08c0.26-0.34,0.58-0.54,0.96-0.6c0.38-0.06,0.73,0.03,1.04,0.28c0.32,0.24,0.49,0.56,0.53,0.94
			C21.34,36.24,21.23,36.6,20.97,36.94 M30.29,45.53l-8.41-6.47l1.38-1.8l8.41,6.47L30.29,45.53z"/>
		<path class="st2" d="M34.49,35.65c-0.39,0.4-0.8,0.72-1.22,0.96l-0.01,1.29c0.18-0.04,0.38-0.12,0.59-0.23
			c0.21-0.11,0.48-0.3,0.81-0.55c0.33-0.25,0.77-0.61,1.31-1.08c1.08-0.91,2.04-1.4,2.87-1.46c0.83-0.06,1.57,0.23,2.22,0.87
			c0.45,0.44,0.75,0.98,0.92,1.61c0.16,0.63,0.12,1.33-0.12,2.07c-0.25,0.75-0.76,1.51-1.53,2.29c-1.04,1.06-2.09,1.71-3.14,1.97
			c-1.05,0.26-1.98-0.01-2.79-0.82c-0.31-0.31-0.54-0.7-0.69-1.18c-0.14-0.47-0.17-1.03-0.08-1.66c-0.3,0.12-0.58,0.21-0.85,0.26
			c-0.26,0.05-0.51,0.08-0.74,0.1l-0.37-0.36l-0.05-2.63c-1.09,0.09-2.04-0.28-2.87-1.09c-0.5-0.49-0.83-1.06-1.01-1.7
			c-0.18-0.64-0.16-1.32,0.05-2.01c0.21-0.7,0.63-1.37,1.26-2.01c0.42-0.43,0.87-0.76,1.36-1.01l2.78-2.82l1.07,1.05l-1.25,1.42
			c0.66,0.17,1.24,0.5,1.75,1c0.51,0.5,0.85,1.07,1.02,1.71c0.17,0.64,0.15,1.31-0.05,2C35.54,34.34,35.12,35.01,34.49,35.65
			 M33.23,34.4c0.46-0.47,0.71-0.97,0.75-1.5c0.04-0.53-0.17-1.03-0.63-1.48c-0.47-0.46-0.97-0.67-1.49-0.62
			c-0.53,0.05-1.02,0.31-1.49,0.77c-0.47,0.48-0.73,0.98-0.77,1.51c-0.04,0.53,0.17,1.03,0.64,1.49c0.46,0.45,0.95,0.66,1.49,0.61
			C32.25,35.14,32.76,34.88,33.23,34.4 M35.76,40.91c0.44,0.43,0.95,0.56,1.55,0.39c0.6-0.17,1.18-0.54,1.76-1.12
			c0.55-0.56,0.88-1.13,0.98-1.71c0.1-0.58-0.04-1.07-0.44-1.46c-0.29-0.29-0.66-0.42-1.1-0.39c-0.44,0.03-1,0.34-1.7,0.94
			c-0.51,0.46-0.98,0.84-1.42,1.16c-0.16,0.55-0.19,1-0.1,1.35C35.4,40.42,35.55,40.7,35.76,40.91"/>
		<path class="st2" d="M42.52,32.49l-6.18-8.63l1.64-1.17l1.22,1.41c-0.12-0.72-0.02-1.43,0.27-2.1c0.3-0.68,0.78-1.26,1.45-1.74
			c1.04-0.75,2.1-1.01,3.16-0.79c1.06,0.22,2.05,0.98,2.98,2.27l3.55,4.96l-1.83,1.31l-3.41-4.77c-1.19-1.67-2.48-2.02-3.85-1.04
			c-0.69,0.49-1.08,1.14-1.17,1.95c-0.1,0.81,0.18,1.66,0.83,2.57l3.19,4.46L42.52,32.49z"/>
		<rect x="71.12" y="71.31" class="st3" width="36.62" height="36.62"/>
	</g>
</g>
</svg>
